<svg width="240" height="80" viewBox="0 0 240 80" fill="none" xmlns="http://www.w3.org/2000/svg">
<path d="M30.6305 46.648C30.5238 46.904 30.4172 47.0853 30.3105 47.192L29.9265 47.768C29.7345 48.024 29.5212 48.2693 29.2865 48.504L28.7105 49.016C28.6892 49.4 28.6678 49.784 28.6465 50.168C28.6465 50.552 28.6358 50.9467 28.6145 51.352C28.5932 51.544 28.5932 51.736 28.6145 51.928C28.6358 52.1413 28.5932 52.3333 28.4865 52.504C28.4012 52.6107 28.3585 52.536 28.3585 52.28C28.3798 52.024 28.3905 51.8213 28.3905 51.672C28.3692 51.3093 28.3478 50.936 28.3265 50.552C28.3265 50.1467 28.3052 49.7627 28.2625 49.4C28.1132 49.5707 27.9852 49.784 27.8785 50.04C27.7718 50.296 27.6865 50.5307 27.6225 50.744C27.4945 51.1067 27.3665 51.48 27.2385 51.864C27.1105 52.248 26.9718 52.6213 26.8225 52.984C26.7585 53.1547 26.6945 53.3253 26.6305 53.496C26.5665 53.688 26.4812 53.8587 26.3745 54.008C26.3532 54.0293 26.3105 54.0613 26.2465 54.104C26.2038 54.1467 26.1612 54.1787 26.1185 54.2C25.9692 54.2213 25.8412 54.1253 25.7345 53.912C25.6278 53.72 25.5532 53.5813 25.5105 53.496C25.4892 53.4533 25.4572 53.4107 25.4145 53.368C25.3932 53.3253 25.3825 53.2827 25.3825 53.24C25.3612 52.92 25.3398 52.5893 25.3185 52.248C25.3185 51.928 25.2972 51.5973 25.2545 51.256C25.1692 51.384 25.0732 51.512 24.9665 51.64C24.8812 51.768 24.7852 51.896 24.6785 52.024C24.6358 52.0667 24.6145 52.088 24.6145 52.088C24.5932 52.1307 24.5612 52.1627 24.5185 52.184C24.4758 52.2267 24.4332 52.2693 24.3905 52.312C24.3692 52.3547 24.3265 52.4293 24.2625 52.536C24.2198 52.664 24.1772 52.7493 24.1345 52.792C24.0918 52.8347 24.0492 52.8347 24.0065 52.792C23.9425 52.7493 23.8892 52.6533 23.8465 52.504C23.8252 52.376 23.7932 52.28 23.7505 52.216C23.6652 52.152 23.5905 52.0667 23.5265 51.96C23.4625 51.8533 23.4092 51.7573 23.3665 51.672C23.3238 51.608 23.2812 51.5333 23.2385 51.448C23.2172 51.5547 23.1958 51.672 23.1745 51.8C23.1745 51.9493 23.1532 52.0773 23.1105 52.184C23.1105 52.184 23.0678 52.184 22.9825 52.184C22.9185 52.184 22.8545 52.1733 22.7905 52.152C22.7265 52.152 22.6625 52.152 22.5985 52.152C22.4492 52.1307 22.3425 52.1093 22.2785 52.088H22.0865C21.9798 52.152 21.8092 52.152 21.5745 52.088C21.5532 52.0667 21.5212 52.0453 21.4785 52.024C21.4572 52.0027 21.4465 52.0027 21.4465 52.024C21.4038 52.408 21.3825 52.7813 21.3825 53.144C21.3825 53.528 21.3612 53.9013 21.3185 54.264C21.2972 54.3493 21.2758 54.3067 21.2545 54.136C21.2332 53.9867 21.2118 53.8693 21.1905 53.784C21.1692 53.4427 21.1585 53.1013 21.1585 52.76C21.1798 52.4187 21.1478 52.0773 21.0625 51.736C21.0412 51.608 21.0198 51.6187 20.9985 51.768C20.9985 51.9173 20.9985 52.0987 20.9985 52.312C20.9985 52.5253 20.9772 52.6853 20.9345 52.792C20.9132 52.8773 20.8918 52.8347 20.8705 52.664C20.8705 52.5147 20.8598 52.3973 20.8385 52.312L20.6465 51.32H20.6145C18.5025 51.2773 16.6678 50.904 15.1105 50.2C13.5532 49.496 12.3478 48.4613 11.4945 47.096C11.3452 46.9253 11.2172 46.7227 11.1105 46.488C11.0252 46.2533 10.9505 46.0293 10.8865 45.816L10.6945 45.368V45.336C10.6518 45.208 10.6092 45.08 10.5665 44.952C10.5238 44.824 10.4812 44.696 10.4385 44.568C10.3532 44.248 10.2892 43.832 10.2465 43.32C10.2038 42.808 10.1825 42.3067 10.1825 41.816C10.1825 41.304 10.1825 40.888 10.1825 40.568C10.1825 40.1413 10.1825 39.7147 10.1825 39.288C10.1825 38.84 10.1932 38.4133 10.2145 38.008V37.752C10.2145 37.4533 10.2145 37.144 10.2145 36.824C10.2358 36.504 10.2785 36.1947 10.3425 35.896C10.3425 35.8533 10.3425 35.8213 10.3425 35.8C10.3638 35.7787 10.3745 35.7573 10.3745 35.736C10.5665 34.5627 10.9505 33.5173 11.5265 32.6C11.7185 32.216 11.9745 31.864 12.2945 31.544C14.2145 29.368 17.0945 28.28 20.9345 28.28H21.6065C21.6492 28.28 21.6812 28.2907 21.7025 28.312C21.8092 28.312 21.9052 28.312 21.9905 28.312C22.0972 28.312 22.1932 28.3227 22.2785 28.344C22.3425 28.3227 22.3958 28.3227 22.4385 28.344C22.5025 28.344 22.5665 28.344 22.6305 28.344L23.1745 28.44C23.3878 28.4613 23.5905 28.4933 23.7825 28.536C23.9958 28.5787 24.2092 28.6213 24.4225 28.664C24.6572 28.6853 24.9238 28.7493 25.2225 28.856C25.2438 28.856 25.2545 28.8667 25.2545 28.888C25.2758 28.888 25.2972 28.888 25.3185 28.888C25.4892 28.9093 25.6492 28.952 25.7985 29.016C25.9692 29.0587 26.1078 29.1227 26.2145 29.208C27.5798 29.7627 28.7532 30.5947 29.7345 31.704C30.0332 32.0027 30.2998 32.408 30.5345 32.92C30.9185 33.6453 31.2065 34.4027 31.3985 35.192C31.4625 35.3413 31.4945 35.5227 31.4945 35.736L31.5905 36.344C31.6118 36.5787 31.6225 36.8133 31.6225 37.048C31.6438 37.2827 31.6545 37.5173 31.6545 37.752C31.6758 38.072 31.6865 38.4667 31.6865 38.936C31.6865 39.4053 31.6865 39.8747 31.6865 40.344C31.6865 40.8133 31.6865 41.208 31.6865 41.528C31.6652 41.9333 31.6545 42.3493 31.6545 42.776C31.6545 43.1813 31.6012 43.576 31.4945 43.96C31.3452 44.9413 31.0572 45.8373 30.6305 46.648ZM19.5905 44.504C19.7185 44.6747 19.8572 44.824 20.0065 44.952C20.2198 44.9947 20.4758 45.0373 20.7745 45.08H21.1585C21.2225 45.0587 21.2865 45.048 21.3505 45.048C21.4358 45.048 21.5105 45.0373 21.5745 45.016C21.9798 44.9093 22.3105 44.7173 22.5665 44.44C22.6732 44.3333 22.7692 44.2053 22.8545 44.056C22.9398 43.9067 23.0038 43.7573 23.0465 43.608L23.1425 43.256C23.2278 42.8933 23.2705 42.5413 23.2705 42.2C23.2918 41.8373 23.3132 41.528 23.3345 41.272V39.064C23.3345 38.808 23.3345 38.552 23.3345 38.296C23.3345 38.0187 23.3238 37.752 23.3025 37.496C23.3025 37.3467 23.3025 37.208 23.3025 37.08C23.3025 36.9307 23.2918 36.792 23.2705 36.664C23.2492 36.6213 23.2385 36.5787 23.2385 36.536C23.2385 36.472 23.2278 36.4293 23.2065 36.408C23.2065 36.344 23.1852 36.248 23.1425 36.12C23.0785 35.864 22.9825 35.6507 22.8545 35.48C22.7265 35.288 22.5772 35.1173 22.4065 34.968L22.3745 34.936C22.2892 34.8933 22.2358 34.872 22.2145 34.872C22.1718 34.8507 22.0972 34.84 21.9905 34.84C21.9692 34.84 21.9478 34.8507 21.9265 34.872C21.9052 34.8933 21.8625 34.9147 21.7985 34.936C21.7772 34.936 21.7558 34.936 21.7345 34.936C21.7345 34.9147 21.7132 34.904 21.6705 34.904C21.5852 34.9253 21.4892 34.9787 21.3825 35.064C21.2758 35.1493 21.1905 35.224 21.1265 35.288C21.0838 35.3093 21.0198 35.3413 20.9345 35.384C20.8492 35.4267 20.7958 35.4693 20.7745 35.512C20.6892 35.6187 20.6465 35.7147 20.6465 35.8C20.6465 35.8853 20.5612 35.9173 20.3905 35.896C20.2412 35.896 20.1772 35.8747 20.1985 35.832C20.2412 35.7893 20.2092 35.6933 20.1025 35.544C20.0812 35.5013 20.0492 35.4693 20.0065 35.448C19.9638 35.4267 19.9212 35.4053 19.8785 35.384C19.8998 35.384 19.8678 35.3627 19.7825 35.32C19.7185 35.256 19.6758 35.2133 19.6545 35.192C19.6545 35.192 19.6438 35.192 19.6225 35.192C19.6225 35.1707 19.5798 35.1173 19.4945 35.032C19.4518 34.968 19.4412 34.9573 19.4625 35C19.5052 35.0213 19.4945 35.0213 19.4305 35C19.4305 35 19.4198 35 19.3985 35C19.3985 35 19.3985 35.0107 19.3985 35.032C19.3558 35.0747 19.3025 35.128 19.2385 35.192C19.1745 35.2347 19.0892 35.3413 18.9825 35.512C18.8332 35.7893 18.7372 36.0667 18.6945 36.344C18.6518 36.6 18.6092 36.856 18.5665 37.112C18.5665 37.2187 18.5558 37.368 18.5345 37.56C18.5345 37.752 18.5345 37.9333 18.5345 38.104V40.568C18.5345 40.7387 18.5345 40.9093 18.5345 41.08C18.5558 41.2293 18.5772 41.3893 18.5985 41.56C18.6625 42.008 18.7798 42.5307 18.9505 43.128L19.0465 43.384C19.1318 43.5973 19.2172 43.8 19.3025 43.992C19.3878 44.1627 19.4838 44.3333 19.5905 44.504ZM70.0605 48.856C70.0605 49.0693 70.0712 49.304 70.0925 49.56C70.1138 49.816 70.1032 50.0613 70.0605 50.296C70.0605 50.3387 70.0498 50.3813 70.0285 50.424C69.9858 50.5093 69.9538 50.5627 69.9325 50.584C69.9325 50.6053 69.9218 50.6373 69.9005 50.68C69.8792 50.7013 69.8685 50.7013 69.8685 50.68C69.8472 50.7013 69.8152 50.7333 69.7725 50.776C69.7512 50.7973 69.7192 50.8293 69.6765 50.872C69.6552 51.2773 69.6338 51.6933 69.6125 52.12C69.6125 52.568 69.5912 53.016 69.5485 53.464C69.5272 53.7413 69.5165 54.008 69.5165 54.264C69.5165 54.5413 69.4952 54.8293 69.4525 55.128C69.4312 55.192 69.4098 55.288 69.3885 55.416C69.3885 55.544 69.3672 55.576 69.3245 55.512C69.2392 55.4053 69.1965 55.2773 69.1965 55.128C69.2178 55 69.2178 54.872 69.1965 54.744C69.1752 54.3173 69.1538 53.8587 69.1325 53.368C69.1325 52.8987 69.1218 52.44 69.1005 51.992C69.0792 52.0133 69.0685 52.0347 69.0685 52.056C69.0472 52.0987 69.0258 52.1733 69.0045 52.28C68.9832 52.3867 68.9618 52.4187 68.9405 52.376C68.8552 52.1627 68.8338 52.0133 68.8765 51.928C68.9405 51.864 68.8978 51.7147 68.7485 51.48C68.7272 51.5013 68.7058 51.5227 68.6845 51.544C68.6845 51.5653 68.6738 51.5867 68.6525 51.608C68.5458 51.7573 68.4392 51.896 68.3325 52.024C68.2258 52.1733 68.1192 52.3333 68.0125 52.504C67.8205 52.8027 67.6178 53.0907 67.4045 53.368C67.1912 53.6667 66.9672 53.9653 66.7325 54.264C66.6898 54.328 66.6472 54.3813 66.6045 54.424C66.5618 54.488 66.5192 54.5413 66.4765 54.584C66.4338 54.6267 66.4125 54.648 66.4125 54.648L66.2525 54.744V54.776C66.1672 54.904 66.1032 55.0427 66.0605 55.192C66.0178 55.3413 65.9218 55.4693 65.7725 55.576C65.6018 55.6613 65.4205 55.64 65.2285 55.512C65.0578 55.4053 64.9192 55.288 64.8125 55.16C64.5992 54.84 64.4925 54.68 64.4925 54.68C64.4925 54.68 64.5245 54.7333 64.5885 54.84C64.6738 54.9467 64.7272 55 64.7485 55C64.7698 55.0213 64.6845 54.8827 64.4925 54.584C64.3645 54.4347 64.2578 54.264 64.1725 54.072C64.0872 53.88 64.0125 53.688 63.9485 53.496L63.7565 52.92C63.7352 52.8773 63.7245 52.8347 63.7245 52.792C63.7245 52.7707 63.7138 52.7493 63.6925 52.728L63.5965 52.408C63.5752 52.3653 63.5538 52.312 63.5325 52.248C63.5112 52.2053 63.4792 52.1413 63.4365 52.056L63.2445 51.288C63.2445 51.288 63.2338 51.2773 63.2125 51.256C63.2125 51.256 63.2125 51.2453 63.2125 51.224C63.2125 51.2027 63.2018 51.1813 63.1805 51.16L63.0845 50.84C63.0418 50.7973 63.0098 50.776 62.9885 50.776C63.0098 50.7973 63.0098 50.808 62.9885 50.808C62.9885 50.7867 62.9565 50.7333 62.8925 50.648C62.8498 50.6053 62.8178 50.552 62.7965 50.488C62.7752 50.4027 62.7538 50.328 62.7325 50.264C62.7112 50.136 62.7005 50.008 62.7005 49.88C62.7218 49.752 62.7325 49.624 62.7325 49.496V40.984C62.7325 41.2827 62.7325 41.3893 62.7325 41.304C62.7538 41.1973 62.7538 41.0053 62.7325 40.728C62.7325 40.4507 62.6898 40.1947 62.6045 39.96C62.5832 39.9813 62.5618 40.0133 62.5405 40.056C62.5192 40.0773 62.4978 40.0987 62.4765 40.12L62.0925 40.696C61.8792 41.0373 61.6978 41.3893 61.5485 41.752C61.3992 42.1147 61.2392 42.4773 61.0685 42.84C61.0472 42.9253 61.0045 43.0427 60.9405 43.192C60.8978 43.32 60.8232 43.416 60.7165 43.48C60.6952 43.5227 60.6418 43.544 60.5565 43.544C60.4712 43.5227 60.3858 43.448 60.3005 43.32C60.2365 43.192 60.1832 43.0853 60.1405 43L60.0445 42.808C59.9805 42.6373 59.9058 42.4667 59.8205 42.296C59.7565 42.1253 59.6712 41.9653 59.5645 41.816L59.3725 41.56C59.2872 41.4533 59.2125 41.3573 59.1485 41.272C59.0845 41.1867 59.0205 41.0907 58.9565 40.984L58.8605 40.792C58.7752 40.664 58.7005 40.472 58.6365 40.216V40.088C58.6152 40.1093 58.5938 40.1413 58.5725 40.184C58.5725 40.2267 58.5618 40.2587 58.5405 40.28C58.5192 40.3013 58.4978 40.312 58.4765 40.312C58.4552 40.2907 58.4338 40.28 58.4125 40.28C58.3912 40.3013 58.3805 40.3227 58.3805 40.344C58.3805 40.3653 58.3698 40.3867 58.3485 40.408C58.3485 40.472 58.3378 40.5147 58.3165 40.536C58.2952 40.5573 58.2632 40.6107 58.2205 40.696C58.1778 40.76 58.1245 40.824 58.0605 40.888C58.0178 40.9307 57.9645 40.9733 57.9005 41.016C57.8792 41.144 57.8792 41.3147 57.9005 41.528C57.9432 41.7413 57.9645 41.9227 57.9645 42.072C57.9645 42.2213 57.8898 42.2853 57.7405 42.264C57.5272 42.2 57.4632 42.0187 57.5485 41.72C57.6338 41.4213 57.6552 41.1653 57.6125 40.952L57.5165 40.856L57.2285 40.536C57.2072 40.472 57.1752 40.4187 57.1325 40.376C57.0898 40.312 57.0472 40.248 57.0045 40.184C56.9192 39.9493 56.8765 39.8853 56.8765 39.992C56.8978 40.0987 56.8978 40.1733 56.8765 40.216V49.304C56.8765 49.4747 56.8765 49.6667 56.8765 49.88C56.8978 50.072 56.8872 50.2533 56.8445 50.424C56.8232 50.5093 56.7912 50.5733 56.7485 50.616C56.7058 50.6587 56.6525 50.712 56.5885 50.776C56.5245 50.84 56.4285 50.9147 56.3005 51C56.2792 51.0427 56.2685 51.064 56.2685 51.064C56.2898 51.0853 56.2578 51.1173 56.1725 51.16C56.0872 51.288 56.0125 51.4267 55.9485 51.576C55.8845 51.7253 55.8205 51.8853 55.7565 52.056C55.7138 52.184 55.6712 52.28 55.6285 52.344C55.5858 52.4293 55.5432 52.4827 55.5005 52.504C55.4792 52.5253 55.4472 52.536 55.4045 52.536C55.3832 52.536 55.3725 52.5253 55.3725 52.504C55.3512 52.3333 55.3298 52.152 55.3085 51.96C55.3085 51.768 55.2872 51.5867 55.2445 51.416C55.2445 51.3733 55.2338 51.3307 55.2125 51.288C55.1912 51.2667 55.1698 51.2667 55.1485 51.288C55.1058 51.352 55.0845 51.4267 55.0845 51.512C55.0845 51.6187 55.0525 51.6933 54.9885 51.736C54.9672 51.7573 54.9458 51.7253 54.9245 51.64C54.9032 51.5547 54.8818 51.4907 54.8605 51.448C54.8392 51.4053 54.8285 51.352 54.8285 51.288C54.8285 51.2453 54.8072 51.2133 54.7645 51.192L54.5725 51.384C54.5298 51.448 54.4872 51.512 54.4445 51.576C54.4018 51.64 54.3592 51.6933 54.3165 51.736C54.2952 51.8 54.2418 51.896 54.1565 52.024C54.1565 52.0453 54.1458 52.056 54.1245 52.056C54.1245 52.0773 54.1245 52.0987 54.1245 52.12C54.1032 52.1413 54.0925 52.152 54.0925 52.152C54.0925 52.1733 54.0925 52.184 54.0925 52.184C54.0498 52.2267 54.0072 52.2907 53.9645 52.376C53.9432 52.4187 53.9112 52.4613 53.8685 52.504C53.8258 52.568 53.7725 52.632 53.7085 52.696C53.6872 52.7173 53.6658 52.7387 53.6445 52.76C53.6232 52.7813 53.5912 52.8027 53.5485 52.824C53.5058 53.1013 53.4738 53.368 53.4525 53.624C53.4312 53.9013 53.3885 54.1787 53.3245 54.456L53.2285 54.936C53.1858 55.0427 53.1432 55.096 53.1005 55.096C53.0792 55.1173 53.0578 55.1067 53.0365 55.064C53.0152 55.0427 52.9938 55.0213 52.9725 55C52.9298 54.872 52.8872 54.7227 52.8445 54.552C52.8232 54.4453 52.8018 54.328 52.7805 54.2C52.7592 54.0933 52.7378 53.9867 52.7165 53.88C52.6952 53.7307 52.6738 53.5813 52.6525 53.432C52.6525 53.304 52.6312 53.1653 52.5885 53.016C52.5672 52.9947 52.5458 52.9627 52.5245 52.92C52.5032 52.8773 52.4818 52.8453 52.4605 52.824C52.3325 52.5893 52.2365 52.3547 52.1725 52.12C52.1298 52.0133 52.0978 51.9067 52.0765 51.8C52.0552 51.6933 52.0338 51.6293 52.0125 51.608C51.9912 51.5653 51.9805 51.5227 51.9805 51.48C51.9805 51.4587 51.9698 51.4267 51.9485 51.384C51.9272 51.3627 51.9165 51.32 51.9165 51.256C51.8952 51.3413 51.8845 51.4267 51.8845 51.512C51.8845 51.5973 51.8632 51.672 51.8205 51.736C51.7992 51.7573 51.7672 51.7467 51.7245 51.704C51.7032 51.6827 51.6925 51.6613 51.6925 51.64C51.6712 51.6187 51.6605 51.5973 51.6605 51.576C51.6605 51.5547 51.6498 51.5333 51.6285 51.512L51.5325 51.704C51.5112 51.7467 51.4685 51.8 51.4045 51.864C51.1912 52.1627 51.1165 52.472 51.1805 52.792C51.2658 53.112 51.3405 53.4213 51.4045 53.72C51.4898 54.04 51.4152 54.36 51.1805 54.68C51.1805 54.7013 51.1592 54.712 51.1165 54.712C51.0738 54.7333 51.0525 54.7333 51.0525 54.712C51.0312 54.2213 51.0205 53.7307 51.0205 53.24C51.0205 52.7493 50.9992 52.2693 50.9565 51.8C50.9565 51.8 50.9032 51.7467 50.7965 51.64C50.6898 51.5333 50.6152 51.4693 50.5725 51.448C50.5085 51.5547 50.4658 51.736 50.4445 51.992C50.4232 52.2693 50.4125 52.5467 50.4125 52.824C50.4125 53.1013 50.4125 53.3147 50.4125 53.464C50.4125 53.6133 50.3912 53.624 50.3485 53.496C50.2205 53.1333 50.1778 52.76 50.2205 52.376C50.2632 51.992 50.2632 51.608 50.2205 51.224L50.0285 51.032C50.0072 50.9893 49.9752 50.9467 49.9325 50.904C49.9112 50.8613 49.8792 50.8293 49.8365 50.808C49.8365 50.7867 49.8258 50.776 49.8045 50.776C49.7618 50.712 49.7192 50.648 49.6765 50.584C49.6338 50.52 49.6018 50.4453 49.5805 50.36C49.5805 50.3387 49.5698 50.328 49.5485 50.328C49.5485 50.3067 49.5485 50.2853 49.5485 50.264C49.5272 50.1147 49.5165 49.9653 49.5165 49.816C49.5378 49.6667 49.5485 49.5173 49.5485 49.368V40.248L49.4205 39.96C49.3992 39.9813 49.3778 40.024 49.3565 40.088C49.3352 40.152 49.3138 40.2053 49.2925 40.248C49.2072 40.4613 49.1112 40.6853 49.0045 40.92C48.8978 41.1547 48.7805 41.3787 48.6525 41.592C48.6098 41.6773 48.5565 41.7627 48.4925 41.848C48.4498 41.912 48.3752 41.9653 48.2685 42.008C48.1832 42.008 48.1405 42.008 48.1405 42.008C48.1192 41.7307 48.0978 41.464 48.0765 41.208C48.0765 40.9307 48.0552 40.664 48.0125 40.408C47.9912 40.4293 47.9698 40.472 47.9485 40.536C47.9485 40.5787 47.9272 40.6213 47.8845 40.664C47.8632 40.6853 47.8418 40.7173 47.8205 40.76C47.7992 40.8027 47.7778 40.8453 47.7565 40.888C47.7352 41.272 47.7778 41.6773 47.8845 42.104C47.9912 42.5307 47.9058 42.8933 47.6285 43.192C47.4792 43.3413 47.4045 43.288 47.4045 43.032C47.4045 42.776 47.4258 42.456 47.4685 42.072C47.5325 41.6667 47.5432 41.3573 47.5005 41.144C47.5005 41.1227 47.4898 41.1333 47.4685 41.176C47.4472 41.1973 47.4152 41.208 47.3725 41.208C47.3512 41.208 47.3298 41.1973 47.3085 41.176C47.2872 41.1547 47.2658 41.1653 47.2445 41.208C47.2232 41.6773 47.2125 42.1467 47.2125 42.616C47.2338 43.064 47.2018 43.5227 47.1165 43.992C47.1165 44.0773 47.0952 44.0347 47.0525 43.864C47.0098 43.672 46.9672 43.5333 46.9245 43.448L46.7325 42.616C46.6685 42.232 46.6258 41.848 46.6045 41.464C46.5832 41.08 46.5405 40.696 46.4765 40.312L46.4445 40.28C46.4232 40.344 46.4125 40.408 46.4125 40.472C46.4125 40.536 46.4018 40.6 46.3805 40.664C46.2952 40.92 46.1672 41.1973 45.9965 41.496C45.8472 41.7733 45.6765 41.9973 45.4845 42.168C45.4205 42.232 45.3458 42.296 45.2605 42.36C45.1752 42.4027 45.0792 42.4133 44.9725 42.392C44.8445 42.3493 44.7378 42.264 44.6525 42.136C44.5672 41.9867 44.5032 41.8587 44.4605 41.752C44.3752 41.5813 44.2898 41.4 44.2045 41.208C44.1192 40.9947 44.0338 40.792 43.9485 40.6C43.8845 40.4507 43.8525 40.344 43.8525 40.28C43.8525 40.1947 43.7992 40.1307 43.6925 40.088V49.496C43.6925 49.624 43.6925 49.7627 43.6925 49.912C43.7138 50.04 43.7138 50.168 43.6925 50.296C43.6925 50.296 43.6818 50.328 43.6605 50.392C43.6605 50.4347 43.6605 50.4453 43.6605 50.424C43.6178 50.5093 43.5965 50.552 43.5965 50.552C43.5752 50.552 43.5645 50.5627 43.5645 50.584C43.5432 50.648 43.4792 50.7227 43.3725 50.808C43.2658 50.8933 43.2018 50.9467 43.1805 50.968L43.1485 51C43.1485 51.0213 43.1272 51.0747 43.0845 51.16C43.0632 51.1813 43.0418 51.2133 43.0205 51.256C43.0205 51.2987 42.9992 51.3413 42.9565 51.384C42.9352 51.4053 42.9138 51.448 42.8925 51.512C42.8925 51.5973 42.8712 51.6293 42.8285 51.608L42.7325 51.512L42.6685 51.608C42.6472 51.6293 42.6258 51.6507 42.6045 51.672C42.6045 51.6933 42.5938 51.7147 42.5725 51.736C42.4872 51.9067 42.3592 52.0773 42.1885 52.248C42.1458 52.2907 42.1032 52.3227 42.0605 52.344C41.9752 52.4933 41.9112 52.664 41.8685 52.856C41.8258 53.048 41.7192 53.1867 41.5485 53.272C41.4205 53.3147 41.3672 53.272 41.3885 53.144C41.4098 53.0373 41.4312 52.9093 41.4525 52.76C41.4738 52.632 41.4205 52.5573 41.2925 52.536C41.1858 52.5147 41.1432 52.6 41.1645 52.792C41.2072 52.984 41.2072 53.1333 41.1645 53.24C41.1645 53.2613 41.1432 53.2613 41.1005 53.24C41.0792 53.2187 41.0578 53.1973 41.0365 53.176C40.9938 53.176 40.9512 53.144 40.9085 53.08C40.6738 52.8453 40.5672 52.7173 40.5885 52.696C40.6098 52.696 40.6738 52.728 40.7805 52.792C40.9085 52.8773 40.9832 52.9093 41.0045 52.888C41.0258 52.888 40.9192 52.7707 40.6845 52.536L40.5885 52.632H40.5565C40.5352 52.6533 40.5138 52.6747 40.4925 52.696C40.4712 52.7173 40.4392 52.7493 40.3965 52.792C40.3752 52.9413 40.3538 53.0907 40.3325 53.24C40.3325 53.3893 40.3112 53.5493 40.2685 53.72C40.2472 53.8693 40.2365 54.072 40.2365 54.328C40.2578 54.6053 40.2258 54.6907 40.1405 54.584C40.0765 54.456 40.0445 54.264 40.0445 54.008C40.0445 53.752 40.0552 53.528 40.0765 53.336C40.0978 53.1653 40.0765 53.1547 40.0125 53.304C39.9485 53.496 39.9485 53.7627 40.0125 54.104C40.0765 54.4667 40.1192 54.7653 40.1405 55C40.1618 55.2347 40.0765 55.3093 39.8845 55.224C39.6925 55.1173 39.5965 54.9467 39.5965 54.712C39.6178 54.4773 39.6605 54.2107 39.7245 53.912C39.8098 53.6347 39.8312 53.3893 39.7885 53.176C39.7672 53.0907 39.7458 53.1227 39.7245 53.272C39.7245 53.4427 39.7245 53.6027 39.7245 53.752C39.7245 53.9227 39.7032 53.976 39.6605 53.912C39.5752 53.6987 39.5432 53.4747 39.5645 53.24C39.5858 53.0267 39.5752 52.8133 39.5325 52.6L39.5005 52.568C39.4792 52.568 39.4578 52.5573 39.4365 52.536C39.3512 52.4507 39.2978 52.3867 39.2765 52.344C39.1698 52.1947 39.0738 52.0347 38.9885 51.864C38.9245 51.7147 38.8498 51.5653 38.7645 51.416L38.6365 51.192C38.6365 51.192 38.6152 51.1493 38.5725 51.064C38.5298 51.0853 38.4872 51.1067 38.4445 51.128C38.3378 51.2347 38.2418 51.32 38.1565 51.384C38.1138 51.768 38.0818 52.152 38.0605 52.536C38.0605 52.9413 38.0498 53.3467 38.0285 53.752C38.0072 53.9013 37.9858 54.1253 37.9645 54.424C37.9645 54.7227 37.9538 54.9573 37.9325 55.128C37.9325 55.32 37.9112 55.3413 37.8685 55.192C37.6338 54.9573 37.5272 54.776 37.5485 54.648C37.5698 54.5413 37.6338 54.456 37.7405 54.392C37.8472 54.328 37.9112 54.232 37.9325 54.104C37.9538 53.9973 37.8472 53.8267 37.6125 53.592C37.5272 53.2293 37.4952 52.8453 37.5165 52.44C37.5592 52.056 37.5592 51.672 37.5165 51.288C37.4738 51.2453 37.4312 51.2027 37.3885 51.16C37.3458 51.1173 37.3032 51.0853 37.2605 51.064C37.1965 51 37.0898 50.968 36.9405 50.968C36.8552 50.9253 36.7805 50.8827 36.7165 50.84C36.4818 50.6693 36.3645 50.4347 36.3645 50.136V40.472L36.2365 39.96C36.2365 39.9813 36.2258 39.992 36.2045 39.992C36.2045 39.992 36.2045 40.0027 36.2045 40.024C36.1832 40.0453 36.1725 40.0773 36.1725 40.12C36.1725 40.1413 36.1618 40.1733 36.1405 40.216C36.1405 40.216 36.1298 40.216 36.1085 40.216C36.1085 40.216 36.1085 40.2267 36.1085 40.248C36.0658 40.4187 36.0125 40.5893 35.9485 40.76C35.8845 40.9093 35.8205 41.0693 35.7565 41.24C35.7352 41.2613 35.7138 41.2933 35.6925 41.336C35.6925 41.3787 35.6712 41.4213 35.6285 41.464C35.5858 41.5493 35.5432 41.592 35.5005 41.592C35.4365 41.6133 35.3725 41.6133 35.3085 41.592L35.2125 41.432C35.1698 41.3893 35.1485 41.368 35.1485 41.368C35.1058 41.2827 35.0418 41.176 34.9565 41.048C34.8925 40.8987 34.8072 40.7493 34.7005 40.6C34.6792 40.5573 34.6258 40.5147 34.5405 40.472C34.4978 40.5573 34.4658 40.664 34.4445 40.792C34.4445 40.92 34.4232 41.0373 34.3805 41.144C34.3592 41.2293 34.3485 41.3147 34.3485 41.4C34.3485 41.464 34.3165 41.5173 34.2525 41.56C34.2098 41.5813 34.1778 41.5493 34.1565 41.464C34.1565 41.3787 34.1458 41.3147 34.1245 41.272C34.1032 41.1013 34.0818 40.9413 34.0605 40.792C34.0605 40.6427 34.0392 40.4933 33.9965 40.344C33.9325 40.3227 33.8898 40.28 33.8685 40.216C33.8472 40.216 33.8152 40.1733 33.7725 40.088C33.7512 40.0027 33.7405 39.9707 33.7405 39.992L33.6445 39.8C33.5378 39.7147 33.4525 39.608 33.3885 39.48C33.3458 39.4373 33.3245 39.3947 33.3245 39.352C33.3032 39.3093 33.2925 39.2453 33.2925 39.16C33.2712 38.9893 33.2605 38.8293 33.2605 38.68C33.2818 38.5307 33.2925 38.3813 33.2925 38.232V35.992C33.2925 35.9493 33.2818 35.8427 33.2605 35.672C33.2605 35.48 33.2712 35.3307 33.2925 35.224C33.2925 35.032 33.3458 34.8613 33.4525 34.712L33.6445 34.52C33.6872 34.4773 33.7725 34.4347 33.9005 34.392C33.9432 34.3707 34.0285 34.36 34.1565 34.36H36.3645V33.56C36.3645 33.176 36.3965 32.8133 36.4605 32.472C36.5032 32.088 36.5778 31.7147 36.6845 31.352C36.8125 30.968 36.9832 30.5947 37.1965 30.232C37.5378 29.656 37.9752 29.176 38.5085 28.792C39.0418 28.408 39.6392 28.1093 40.3005 27.896L40.7165 27.704C40.9938 27.5973 41.2712 27.5333 41.5485 27.512C41.8258 27.4693 42.1032 27.4373 42.3805 27.416C42.5298 27.3947 42.6685 27.384 42.7965 27.384C42.9458 27.384 43.0952 27.3733 43.2445 27.352C43.4792 27.3307 43.7138 27.32 43.9485 27.32C44.2045 27.32 44.4498 27.32 44.6845 27.32H46.4125C46.5192 27.32 46.6365 27.32 46.7645 27.32C46.8925 27.2987 47.0205 27.288 47.1485 27.288H47.4045C47.4472 27.288 47.4898 27.2987 47.5325 27.32C47.5752 27.32 47.6178 27.32 47.6605 27.32C48.0232 27.32 48.2685 27.4587 48.3965 27.736L48.4925 27.928C48.5138 27.992 48.5245 28.0773 48.5245 28.184C48.5458 28.2907 48.5458 28.408 48.5245 28.536C48.5245 28.664 48.5245 28.792 48.5245 28.92V31.288C48.5458 31.3733 48.5565 31.48 48.5565 31.608C48.5565 31.7147 48.5565 31.8213 48.5565 31.928C48.5565 32.0347 48.5352 32.1733 48.4925 32.344C48.4925 32.3653 48.4818 32.3867 48.4605 32.408C48.4605 32.408 48.4605 32.4187 48.4605 32.44C48.4392 32.44 48.4285 32.4507 48.4285 32.472C48.3645 32.5787 48.2898 32.6747 48.2045 32.76C48.1192 32.824 48.0232 32.8987 47.9165 32.984C47.8952 32.984 47.8525 33.016 47.7885 33.08C47.6605 33.208 47.5432 33.3467 47.4365 33.496C47.3298 33.6453 47.2125 33.784 47.0845 33.912C46.8072 34.1893 46.4872 34.328 46.1245 34.328C45.7832 34.328 45.4738 34.1893 45.1965 33.912C45.1325 33.848 45.0685 33.784 45.0045 33.72C44.9405 33.6347 44.8658 33.5707 44.7805 33.528C44.7165 33.4853 44.6418 33.4533 44.5565 33.432C44.4925 33.4107 44.4285 33.3893 44.3645 33.368C44.3218 33.3467 44.2578 33.3253 44.1725 33.304C44.0872 33.2613 44.0232 33.24 43.9805 33.24C43.9378 33.2613 43.8845 33.336 43.8205 33.464C43.7565 33.5707 43.7245 33.624 43.7245 33.624C43.7032 33.7093 43.6925 33.7947 43.6925 33.88C43.6925 33.9653 43.6925 34.04 43.6925 34.104V34.36H48.2685C48.4392 34.36 48.6098 34.36 48.7805 34.36C48.9725 34.3387 49.1432 34.3387 49.2925 34.36H49.5485V33.816C49.5485 33.368 49.5805 32.9413 49.6445 32.536C49.7085 31.8533 49.8792 31.224 50.1565 30.648C50.1992 30.5413 50.2312 30.4667 50.2525 30.424C50.2952 30.36 50.3272 30.3173 50.3485 30.296C51.0312 29.1013 52.0445 28.312 53.3885 27.928C54.7325 27.5227 56.2792 27.32 58.0285 27.32C58.1778 27.2987 58.3272 27.2987 58.4765 27.32C58.6258 27.32 58.7752 27.32 58.9245 27.32C59.1378 27.32 59.3512 27.32 59.5645 27.32C59.7992 27.2987 60.0338 27.2987 60.2685 27.32C60.3112 27.32 60.3432 27.3307 60.3645 27.352C60.4072 27.352 60.4392 27.352 60.4605 27.352C60.5885 27.3947 60.6738 27.4373 60.7165 27.48C60.8445 27.544 60.9405 27.672 61.0045 27.864C61.0472 27.992 61.0685 28.088 61.0685 28.152V28.216C61.1112 28.344 61.1112 28.472 61.0685 28.6V31.32C61.0685 31.448 61.0685 31.5867 61.0685 31.736C61.0898 31.864 61.0898 31.992 61.0685 32.12C61.0258 32.3973 60.8978 32.6107 60.6845 32.76L60.4605 32.984C60.5672 32.8773 60.5672 32.8773 60.4605 32.984C60.3538 33.0693 60.2898 33.1227 60.2685 33.144C60.0765 33.2933 59.8952 33.464 59.7245 33.656C59.5538 33.8267 59.3512 33.976 59.1165 34.104C59.0098 34.1467 58.8925 34.1893 58.7645 34.232C58.6365 34.2747 58.5085 34.2747 58.3805 34.232C58.1672 34.168 57.9965 34.0507 57.8685 33.88C57.7405 33.7093 57.5912 33.56 57.4205 33.432C57.3352 33.3893 57.2712 33.3467 57.2285 33.304C57.1858 33.304 57.1645 33.2827 57.1645 33.24C57.1218 33.2827 57.0578 33.3573 56.9725 33.464C56.9512 33.5067 56.9298 33.5493 56.9085 33.592C56.9085 33.6347 56.9085 33.6773 56.9085 33.72C56.8872 33.784 56.8765 33.848 56.8765 33.912C56.8978 33.976 56.8978 34.04 56.8765 34.104L57.0045 34.36H61.4525C61.6232 34.36 61.7938 34.36 61.9645 34.36C62.1352 34.3387 62.3058 34.3387 62.4765 34.36H62.7325V29.176C62.7325 28.8773 62.7218 28.568 62.7005 28.248C62.6792 27.928 62.8072 27.672 63.0845 27.48C63.1272 27.4373 63.1698 27.416 63.2125 27.416L63.4685 27.32C63.6178 27.2987 63.7672 27.2987 63.9165 27.32C64.0658 27.32 64.2152 27.32 64.3645 27.32H68.3005C68.4285 27.32 68.5565 27.32 68.6845 27.32C68.8125 27.2987 68.9512 27.2987 69.1005 27.32H69.2605C69.3032 27.32 69.3458 27.3307 69.3885 27.352C69.4312 27.352 69.4632 27.352 69.4845 27.352C69.5058 27.3733 69.5272 27.384 69.5485 27.384C69.5698 27.384 69.5912 27.3947 69.6125 27.416C69.8045 27.5227 69.9218 27.64 69.9645 27.768C69.9645 27.7893 69.9645 27.8107 69.9645 27.832C69.9858 27.832 69.9965 27.8427 69.9965 27.864C70.0392 27.9493 70.0605 28.0347 70.0605 28.12C70.0818 28.2693 70.0818 28.4293 70.0605 28.6C70.0605 28.7707 70.0605 28.9307 70.0605 29.08V48.856ZM78.9468 33.656C78.6908 33.6987 78.4241 33.6667 78.1468 33.56C77.8908 33.4533 77.6348 33.3253 77.3788 33.176C77.3148 33.1547 77.2401 33.1333 77.1548 33.112C77.0908 33.0693 77.0161 33.0373 76.9308 33.016C76.7601 32.9733 76.5788 32.9307 76.3868 32.888C76.2161 32.824 76.0454 32.76 75.8748 32.696C75.8108 32.6747 75.7468 32.664 75.6828 32.664C75.6401 32.6427 75.5868 32.6213 75.5228 32.6L75.2668 32.504C75.2454 32.4613 75.2134 32.4293 75.1708 32.408C75.1494 32.3867 75.1174 32.3653 75.0748 32.344C74.9254 32.1947 74.8401 32.0347 74.8188 31.864V28.6C74.8188 28.408 74.8081 28.1947 74.7868 27.96C74.7868 27.7253 74.8508 27.5227 74.9788 27.352L75.1708 27.16C75.2348 27.1173 75.3308 27.0747 75.4588 27.032C75.6294 26.9893 75.8001 26.968 75.9708 26.968C76.1628 26.968 76.3334 26.9787 76.4828 27H80.0988C80.2908 26.9787 80.4828 26.968 80.6748 26.968C80.8881 26.9467 81.0908 26.9573 81.2828 27C81.3041 27 81.3148 27.0107 81.3148 27.032C81.3148 27.032 81.3254 27.032 81.3468 27.032C81.3681 27.032 81.4214 27.0533 81.5068 27.096C81.6134 27.1387 81.6988 27.2133 81.7628 27.32C81.8694 27.448 81.9228 27.5653 81.9228 27.672C81.9441 27.7787 81.9548 27.864 81.9548 27.928C81.9761 28.0133 81.9868 28.0987 81.9868 28.184C81.9868 28.248 81.9868 28.3227 81.9868 28.408C81.9868 28.856 81.9761 29.3147 81.9548 29.784C81.9548 30.2533 81.9548 30.712 81.9548 31.16V31.736C81.9548 31.8427 81.9441 31.928 81.9228 31.992C81.9014 32.0987 81.8374 32.2053 81.7308 32.312L81.6028 32.44C81.5601 32.4827 81.5174 32.504 81.4748 32.504C81.4534 32.5253 81.4321 32.5573 81.4108 32.6C81.4108 32.6427 81.3894 32.6747 81.3468 32.696C81.3468 32.696 81.3254 32.696 81.2828 32.696C81.2401 32.6747 81.1974 32.664 81.1548 32.664C81.1121 32.664 81.0588 32.6747 80.9948 32.696C80.9308 32.7173 80.8774 32.7387 80.8348 32.76C80.7921 32.7813 80.7388 32.8027 80.6748 32.824C80.6108 32.824 80.5574 32.8347 80.5148 32.856C80.4721 32.856 80.4401 32.8667 80.4188 32.888C80.2694 32.952 80.1201 33.0373 79.9708 33.144C79.8214 33.2507 79.6614 33.3573 79.4908 33.464C79.3201 33.5493 79.1388 33.6133 78.9468 33.656ZM82.0828 50.424C82.0614 50.4453 82.0508 50.4667 82.0508 50.488C82.0508 50.5093 82.0401 50.5307 82.0188 50.552V50.584C81.9761 50.6267 81.9334 50.6693 81.8908 50.712C81.8481 50.7547 81.8054 50.7973 81.7628 50.84C81.7628 50.84 81.7521 50.8507 81.7308 50.872C81.7308 50.872 81.7201 50.872 81.6988 50.872C81.6988 50.872 81.6881 50.8827 81.6667 50.904C81.6667 50.904 81.6561 50.904 81.6348 50.904C81.5921 50.9467 81.5494 51.0107 81.5068 51.096C81.4854 51.1173 81.4641 51.1493 81.4427 51.192C81.4427 51.2347 81.4214 51.2667 81.3788 51.288C81.2934 51.3947 81.2081 51.4907 81.1228 51.576C81.0374 51.6827 80.9521 51.7893 80.8668 51.896V51.928H80.8348C80.8348 51.9493 80.8134 51.9813 80.7708 52.024L80.3548 52.728C80.2481 52.92 80.1201 53.0587 79.9708 53.144C79.8854 53.1867 79.8428 53.208 79.8428 53.208C79.8214 53.3787 79.8321 53.5813 79.8748 53.816C79.9174 54.072 79.9388 54.2853 79.9388 54.456C79.9388 54.648 79.8641 54.7227 79.7148 54.68C79.5441 54.6373 79.4588 54.52 79.4588 54.328C79.4588 54.1573 79.4801 53.9547 79.5228 53.72C79.5868 53.5067 79.6081 53.3147 79.5868 53.144C79.5654 53.144 79.5228 53.112 79.4588 53.048C79.3948 52.984 79.3414 52.9093 79.2988 52.824C79.2561 52.76 79.2134 52.6853 79.1708 52.6C79.1068 52.536 79.0641 52.4827 79.0428 52.44L78.7548 52.152C78.7334 52.3013 78.7334 52.5147 78.7548 52.792C78.7974 53.0693 78.7654 53.1653 78.6588 53.08C78.5094 52.9733 78.4668 52.8133 78.5308 52.6C78.5948 52.3867 78.6054 52.1947 78.5628 52.024C78.5414 51.9813 78.5094 51.9493 78.4668 51.928C78.4454 51.9067 78.4134 51.8747 78.3708 51.832L78.1468 51.608C78.1041 51.544 78.0401 51.4693 77.9548 51.384C77.9121 51.5973 77.8908 51.8213 77.8908 52.056C77.8908 52.2907 77.8694 52.5253 77.8268 52.76C77.8054 52.7813 77.7841 52.7707 77.7628 52.728C77.7414 52.6853 77.7201 52.6533 77.6988 52.632C77.6348 52.5467 77.5708 52.472 77.5068 52.408C77.4641 52.344 77.4001 52.2907 77.3148 52.248C77.2081 52.2053 77.1014 52.1947 76.9948 52.216C76.8881 52.2373 76.7814 52.2053 76.6748 52.12C76.5894 52.056 76.5148 51.9813 76.4508 51.896C76.4081 51.832 76.3548 51.7573 76.2908 51.672C76.2694 51.672 76.2481 51.6613 76.2268 51.64C76.2054 51.6187 76.1841 51.6293 76.1628 51.672C76.1414 52.0347 76.1201 52.408 76.0988 52.792C76.0988 53.176 76.0774 53.56 76.0348 53.944C76.0348 53.9867 76.0134 53.9547 75.9708 53.848C75.9494 53.7627 75.9281 53.6987 75.9068 53.656C75.8641 53.528 75.8214 53.3787 75.7788 53.208C75.7361 53.0587 75.6934 52.92 75.6508 52.792C75.5654 52.4933 75.5121 52.2907 75.4908 52.184C75.4908 52.0773 75.4908 51.992 75.4908 51.928C75.5121 51.864 75.5014 51.768 75.4588 51.64C75.4374 51.5333 75.3628 51.3093 75.2348 50.968L75.0428 50.872C74.8934 50.7653 74.7868 50.6373 74.7228 50.488C74.6801 50.3387 74.6588 50.1893 74.6588 50.04C74.6374 49.8907 74.6268 49.7413 74.6268 49.592C74.6481 49.4213 74.6588 49.2613 74.6588 49.112V35.224C74.6588 35.1173 74.6694 35.032 74.6908 34.968C74.7334 34.84 74.7761 34.7547 74.8188 34.712L75.0108 34.52C75.0961 34.456 75.2348 34.4027 75.4268 34.36C75.6401 34.3173 75.8534 34.3067 76.0668 34.328C76.3014 34.3493 76.5041 34.36 76.6748 34.36H79.8428C80.0988 34.36 80.3548 34.3493 80.6108 34.328C80.8881 34.3067 81.1548 34.3173 81.4108 34.36C81.4534 34.36 81.4961 34.3707 81.5388 34.392C81.5814 34.4133 81.6241 34.4347 81.6667 34.456C81.7308 34.4773 81.7734 34.4987 81.7948 34.52C81.8588 34.584 81.9014 34.6373 81.9228 34.68C82.0081 34.7653 82.0721 34.904 82.1148 35.096C82.1361 35.1813 82.1361 35.288 82.1148 35.416C82.1148 35.5227 82.1148 35.6293 82.1148 35.736C82.1361 36.1413 82.1361 36.5467 82.1148 36.952C82.1148 37.336 82.1148 37.7307 82.1148 38.136V49.24C82.1148 49.3253 82.1148 49.4107 82.1148 49.496C82.1148 49.5813 82.1254 49.6773 82.1468 49.784C82.1468 49.8693 82.1468 49.9547 82.1468 50.04C82.1468 50.1253 82.1254 50.2533 82.0828 50.424ZM105.444 48.216C105.444 48.5147 105.455 48.824 105.476 49.144C105.498 49.464 105.487 49.7733 105.444 50.072C105.444 50.2427 105.434 50.36 105.412 50.424C105.348 50.5947 105.242 50.7333 105.092 50.84C105.092 50.84 105.082 50.8507 105.06 50.872C105.06 50.872 105.05 50.872 105.028 50.872C105.028 50.872 105.018 50.8827 104.996 50.904C104.996 50.904 104.986 50.904 104.964 50.904C104.943 50.9253 104.9 51 104.836 51.128C104.772 51.256 104.719 51.32 104.676 51.32C104.57 51.4907 104.452 51.6293 104.324 51.736C104.303 51.7573 104.282 51.768 104.26 51.768C104.239 51.7893 104.218 51.8107 104.196 51.832C104.111 52.216 104.047 52.6 104.004 52.984C103.983 53.3893 103.919 53.784 103.812 54.168C103.77 54.3387 103.727 54.456 103.684 54.52C103.62 54.584 103.578 54.6053 103.556 54.584C103.535 54.584 103.492 54.5307 103.428 54.424C103.407 54.3387 103.364 54.2107 103.3 54.04C103.258 53.8907 103.226 53.7733 103.204 53.688C103.162 53.5387 103.119 53.3893 103.076 53.24C103.034 53.112 102.98 52.9733 102.916 52.824C102.895 52.7813 102.874 52.728 102.852 52.664C102.852 52.6 102.831 52.5573 102.788 52.536C102.788 52.536 102.767 52.5253 102.724 52.504C102.682 52.4827 102.65 52.4613 102.628 52.44C102.607 52.3973 102.575 52.3653 102.532 52.344C102.511 52.3227 102.49 52.3013 102.468 52.28C102.362 52.1307 102.319 52.056 102.34 52.056C102.362 52.0773 102.372 52.088 102.372 52.088C102.372 52.088 102.298 52.0133 102.148 51.864C102.127 51.8853 102.084 51.896 102.02 51.896C101.956 51.896 101.914 51.9067 101.892 51.928C101.871 52.3973 101.85 53.0053 101.828 53.752C101.828 54.52 101.807 55.1493 101.764 55.64C101.764 55.6827 101.722 55.6827 101.636 55.64C101.572 55.5973 101.54 55.576 101.54 55.576C101.455 55.4907 101.38 55.384 101.316 55.256C101.252 55.1493 101.199 55.0533 101.156 54.968C101.135 54.904 101.103 54.84 101.06 54.776C101.039 54.7333 101.028 54.6907 101.028 54.648C100.986 54.1573 100.964 53.656 100.964 53.144C100.964 52.632 100.943 52.1413 100.9 51.672C100.858 51.6293 100.826 51.608 100.804 51.608C100.783 51.672 100.772 51.736 100.772 51.8C100.772 51.8853 100.751 51.96 100.708 52.024C100.687 52.088 100.634 52.0773 100.548 51.992C100.442 51.9493 100.335 51.896 100.228 51.832C100.143 51.7893 100.047 51.7467 99.9403 51.704C99.8549 51.6613 99.7483 51.6187 99.6203 51.576C99.5136 51.5547 99.4283 51.512 99.3643 51.448C99.2789 51.6187 99.1403 51.7253 98.9483 51.768C98.7776 51.8107 98.6176 51.768 98.4683 51.64C98.3403 51.5333 98.2336 51.4053 98.1483 51.256C98.0843 51.1067 97.9883 50.936 97.8603 50.744C97.8176 50.7013 97.7749 50.6587 97.7323 50.616C97.6896 50.552 97.6576 50.4773 97.6363 50.392C97.6149 50.3067 97.6043 50.168 97.6043 49.976V41.528C97.6043 41.3787 97.5936 41.2613 97.5723 41.176C97.5296 40.8133 97.4016 40.504 97.1883 40.248C97.1669 40.2053 97.1349 40.1733 97.0923 40.152C97.0709 40.1093 97.0389 40.0773 96.9963 40.056C96.9749 40.0347 96.9429 40.024 96.9003 40.024C96.8576 40.088 96.8256 40.1627 96.8043 40.248C96.8043 40.312 96.7829 40.376 96.7403 40.44C96.6336 40.5467 96.5696 40.568 96.5483 40.504C96.5056 40.4187 96.4843 40.3653 96.4843 40.344C96.4203 40.408 96.3456 40.504 96.2603 40.632C96.2176 40.76 96.1749 40.8453 96.1323 40.888C96.1109 40.9307 96.0896 40.9947 96.0683 41.08C96.0469 41.1653 96.0256 41.1867 96.0043 41.144C95.9616 41.016 95.9296 40.888 95.9083 40.76C95.9083 40.632 95.8976 40.4933 95.8763 40.344C95.8763 40.3867 95.8656 40.408 95.8443 40.408C95.8443 40.4507 95.8336 40.472 95.8123 40.472C95.7909 40.536 95.7483 40.6213 95.6843 40.728C95.6416 40.8347 95.5776 40.9093 95.4923 40.952C95.4496 41.1227 95.4603 41.3573 95.5243 41.656C95.5883 41.9333 95.5349 42.0507 95.3643 42.008C95.1723 41.9653 95.1083 41.816 95.1723 41.56C95.2576 41.2827 95.2789 41.0373 95.2363 40.824C95.2149 40.8027 95.2043 40.7493 95.2043 40.664V40.504C95.2043 40.44 95.2043 40.376 95.2043 40.312C95.2043 40.2267 95.1723 40.1733 95.1083 40.152C95.1083 40.152 95.0763 40.152 95.0123 40.152C94.9696 40.1307 94.9376 40.12 94.9163 40.12C94.6603 40.3547 94.5003 40.6853 94.4363 41.112C94.4149 41.2187 94.4043 41.336 94.4043 41.464C94.4043 41.5707 94.4043 41.6773 94.4043 41.784V49.464C94.4043 49.6133 94.4043 49.7733 94.4043 49.944C94.4256 50.1147 94.4149 50.2747 94.3723 50.424C94.3509 50.488 94.3189 50.552 94.2763 50.616C94.2336 50.68 94.1909 50.7333 94.1483 50.776C94.1269 50.776 94.1163 50.7867 94.1163 50.808C94.1163 50.808 94.1056 50.808 94.0843 50.808C94.0843 50.808 94.0629 50.8293 94.0203 50.872C93.9989 50.936 93.9776 51 93.9563 51.064C93.9563 51.128 93.9349 51.192 93.8923 51.256C93.8923 51.2773 93.8816 51.288 93.8603 51.288C93.8389 51.3093 93.8176 51.3093 93.7963 51.288C93.7749 51.2667 93.7536 51.224 93.7323 51.16C93.7323 51.1173 93.7216 51.0853 93.7003 51.064C93.6576 51.1067 93.6149 51.1387 93.5723 51.16C93.5509 51.2027 93.5403 51.256 93.5403 51.32C93.5616 51.384 93.5616 51.4373 93.5403 51.48C93.4976 51.608 93.4549 51.6933 93.4123 51.736C93.3909 51.7573 93.3483 51.7467 93.2843 51.704C93.2416 51.5973 93.2416 51.5547 93.2843 51.576C93.3269 51.6187 93.2843 51.576 93.1562 51.448C93.1349 51.4267 93.1243 51.4053 93.1243 51.384C93.0603 51.4267 93.0069 51.4693 92.9643 51.512C92.9216 51.576 92.8683 51.6293 92.8043 51.672C92.7829 51.6933 92.7616 51.7147 92.7403 51.736C92.7189 51.7787 92.6549 51.8213 92.5483 51.864H92.5163C92.4523 51.8853 92.3563 51.896 92.2283 51.896C92.1429 51.896 92.0576 51.8747 91.9723 51.832C91.9083 51.8107 91.8336 51.7893 91.7483 51.768C91.6416 51.704 91.5243 51.6293 91.3963 51.544C91.2896 51.4587 91.2043 51.3947 91.1403 51.352C90.9909 51.2667 90.9269 51.224 90.9483 51.224C90.9483 51.224 90.9269 51.2133 90.8843 51.192C90.8416 51.2133 90.7989 51.2027 90.7563 51.16C90.7136 51.1387 90.6709 51.128 90.6283 51.128C90.6069 51.1493 90.5749 51.1813 90.5323 51.224C90.5109 51.2667 90.4789 51.3093 90.4363 51.352C90.4149 51.3733 90.3936 51.3947 90.3723 51.416C90.3509 51.4373 90.3189 51.4587 90.2763 51.48C90.2549 51.48 90.2443 51.48 90.2443 51.48C90.2443 51.5013 90.2443 51.512 90.2443 51.512C90.2229 51.512 90.2123 51.5227 90.2123 51.544C90.1909 51.544 90.1696 51.544 90.1483 51.544C90.1483 51.5653 90.1483 51.576 90.1483 51.576C90.1269 51.5973 90.1056 51.6613 90.0843 51.768C90.0629 51.896 89.9989 51.96 89.8923 51.96C89.8709 51.96 89.8176 51.928 89.7323 51.864C89.6683 51.8213 89.6256 51.8 89.6043 51.8C89.5616 51.7573 89.5296 51.736 89.5083 51.736C89.4229 51.6933 89.3376 51.64 89.2523 51.576C89.1883 51.512 89.1349 51.448 89.0923 51.384C89.0923 51.3627 89.0816 51.352 89.0603 51.352C89.0603 51.352 89.0603 51.3413 89.0603 51.32C89.0389 51.4053 89.0283 51.4907 89.0283 51.576C89.0283 51.6613 89.0069 51.7467 88.9643 51.832C88.9643 51.8533 88.9536 51.8533 88.9323 51.832C88.9109 51.832 88.8896 51.8427 88.8683 51.864C88.7829 51.864 88.7403 51.8747 88.7403 51.896C88.7189 51.8107 88.6976 51.7253 88.6763 51.64C88.6763 51.5547 88.6656 51.4693 88.6443 51.384C88.6229 51.4267 88.5696 51.4907 88.4843 51.576C88.4629 51.5973 88.4416 51.608 88.4203 51.608C88.3989 51.6293 88.3776 51.6507 88.3563 51.672C88.3349 51.8213 88.3136 51.96 88.2923 52.088C88.2923 52.2373 88.2709 52.3973 88.2283 52.568C88.2069 52.6107 88.1856 52.6747 88.1643 52.76C88.1643 52.8667 88.1429 52.9093 88.1003 52.888C88.0149 52.8453 87.9723 52.7707 87.9723 52.664C87.9936 52.5787 87.9936 52.504 87.9723 52.44C87.9509 52.2693 87.9403 52.1093 87.9403 51.96C87.9403 51.832 87.9189 51.6933 87.8763 51.544C87.8336 51.5013 87.7803 51.448 87.7163 51.384C87.6736 51.32 87.6309 51.256 87.5883 51.192C87.5456 51.1493 87.5136 51.1067 87.4923 51.064C87.4069 51.0213 87.3429 51 87.3003 51C87.2789 51 87.2576 51 87.2363 51C87.2363 50.9787 87.2149 50.968 87.1723 50.968C87.0016 50.904 86.8629 50.7973 86.7563 50.648C86.7136 50.6053 86.6709 50.52 86.6283 50.392C86.5856 50.2427 86.5643 50.072 86.5643 49.88C86.5856 49.688 86.5963 49.5173 86.5963 49.368V35.512C86.5749 35.448 86.5643 35.3947 86.5643 35.352C86.5856 35.288 86.5963 35.224 86.5963 35.16C86.6176 34.9253 86.7136 34.7333 86.8843 34.584C87.0549 34.4347 87.2576 34.36 87.4923 34.36C87.6629 34.3387 87.8336 34.3387 88.0043 34.36C88.1963 34.36 88.3669 34.36 88.5163 34.36H91.9083C92.0149 34.36 92.1856 34.36 92.4203 34.36C92.6549 34.3387 92.8683 34.3387 93.0603 34.36C93.1883 34.36 93.3376 34.4027 93.5083 34.488C93.7003 34.5947 93.8283 34.7547 93.8923 34.968C93.9349 35.096 93.9456 35.2347 93.9243 35.384C93.9243 35.5333 93.9243 35.672 93.9243 35.8L93.9883 36.184L94.1803 35.992C94.3083 35.864 94.4469 35.7467 94.5963 35.64C94.7456 35.512 94.8949 35.3947 95.0443 35.288L95.3323 35.096H95.3643C95.5776 34.9467 95.7909 34.8293 96.0043 34.744C96.1323 34.616 96.3563 34.52 96.6763 34.456C96.7189 34.4347 96.7723 34.424 96.8363 34.424C97.5829 34.168 98.3829 34.04 99.2363 34.04C100.218 34.04 101.146 34.2533 102.02 34.68C102.895 35.0853 103.631 35.736 104.228 36.632C104.847 37.5067 105.231 38.6373 105.38 40.024C105.402 40.1093 105.412 40.1947 105.412 40.28C105.412 40.344 105.412 40.4187 105.412 40.504C105.434 40.6533 105.444 40.8027 105.444 40.952C105.444 41.1013 105.444 41.2507 105.444 41.4V48.216ZM119.583 55.384C119.561 55.4907 119.551 55.6613 119.551 55.896C119.551 56.1307 119.519 56.1947 119.455 56.088C119.369 55.9173 119.348 55.7147 119.391 55.48C119.455 55.2667 119.433 55.0747 119.327 54.904C119.284 54.8187 119.263 54.8613 119.263 55.032C119.263 55.224 119.263 55.4053 119.263 55.576C119.263 55.7467 119.241 55.8 119.199 55.736C119.113 55.5227 119.081 55.2987 119.103 55.064C119.145 54.8507 119.145 54.6373 119.103 54.424C118.996 54.3387 118.889 54.2427 118.783 54.136C118.697 54.0293 118.623 53.9333 118.559 53.848C118.473 53.7413 118.399 53.6347 118.335 53.528C118.271 53.4427 118.207 53.3573 118.143 53.272C117.972 53.1013 117.812 52.888 117.663 52.632L117.279 51.96C117.279 51.9387 117.247 51.864 117.183 51.736C117.119 51.6293 117.065 51.5547 117.023 51.512C116.98 51.4693 116.937 51.4373 116.895 51.416C116.809 51.416 116.767 51.448 116.767 51.512C116.745 51.7253 116.735 51.928 116.735 52.12C116.735 52.3333 116.713 52.5467 116.671 52.76C116.671 52.8027 116.66 52.7707 116.639 52.664C116.617 52.5573 116.607 52.472 116.607 52.408C116.585 52.2373 116.564 52.056 116.543 51.864C116.543 51.672 116.532 51.4907 116.511 51.32H116.319C115.039 51.2773 113.876 51.096 112.831 50.776C111.785 50.456 110.889 49.9653 110.143 49.304L109.951 49.144L109.727 48.92C109.172 48.3227 108.713 47.6187 108.351 46.808C108.009 45.9973 107.785 45.0373 107.679 43.928C107.657 43.928 107.647 43.9067 107.647 43.864C107.625 43.8213 107.615 43.7147 107.615 43.544C107.615 43.5227 107.615 43.5013 107.615 43.48C107.636 43.4587 107.647 43.4373 107.647 43.416C107.625 43.3093 107.615 43.2027 107.615 43.096C107.615 42.968 107.615 42.84 107.615 42.712V42.488C107.636 41.208 107.839 40.0667 108.223 39.064C108.607 38.0613 109.14 37.208 109.823 36.504C109.865 36.4827 109.887 36.4613 109.887 36.44C109.908 36.4187 109.929 36.3973 109.951 36.376C109.972 36.3547 110.015 36.3227 110.079 36.28C110.143 36.216 110.175 36.184 110.175 36.184C110.239 36.12 110.292 36.0773 110.335 36.056C111.913 34.712 114.047 34.04 116.735 34.04H117.407C117.492 34.04 117.545 34.0507 117.567 34.072C117.759 34.072 117.897 34.0827 117.983 34.104C118.281 34.0827 118.505 34.104 118.655 34.168C118.761 34.1893 118.868 34.2107 118.975 34.232C119.081 34.232 119.188 34.2533 119.295 34.296C120.404 34.5093 121.364 34.8827 122.175 35.416C122.985 35.928 123.657 36.5467 124.191 37.272C124.297 37.3573 124.383 37.464 124.447 37.592C124.511 37.72 124.575 37.8373 124.639 37.944L124.895 38.392C124.916 38.456 124.937 38.52 124.959 38.584C125.001 38.6267 125.033 38.68 125.055 38.744C125.097 38.808 125.129 38.872 125.151 38.936C125.172 39 125.193 39.064 125.215 39.128C125.321 39.4267 125.417 39.736 125.503 40.056C125.609 40.376 125.684 40.696 125.727 41.016C125.727 41.1013 125.737 41.1653 125.759 41.208C125.801 41.3787 125.823 41.5493 125.823 41.72C125.823 41.8907 125.833 42.0613 125.855 42.232V43.704C125.855 44.0027 125.727 44.248 125.471 44.44C125.407 44.4827 125.332 44.5467 125.247 44.632C125.204 44.7387 125.161 44.792 125.119 44.792C125.119 44.792 125.076 44.7493 124.991 44.664C124.948 44.664 124.884 44.6747 124.799 44.696C124.713 44.7173 124.649 44.7387 124.607 44.76C124.521 44.7813 124.447 44.8027 124.383 44.824C124.319 44.824 124.244 44.824 124.159 44.824C123.988 44.8453 123.828 44.888 123.679 44.952C123.529 45.016 123.369 45.0693 123.199 45.112C123.071 45.1333 122.932 45.144 122.783 45.144C122.633 45.144 122.484 45.144 122.335 45.144C122.143 45.1653 121.961 45.208 121.791 45.272C121.641 45.336 121.481 45.3573 121.311 45.336C121.183 45.3147 121.055 45.2933 120.927 45.272C120.799 45.2293 120.66 45.1973 120.511 45.176C120.425 45.1973 120.34 45.2187 120.255 45.24C120.191 45.2613 120.116 45.2827 120.031 45.304C119.967 45.3253 119.903 45.336 119.839 45.336C119.775 45.336 119.711 45.3573 119.647 45.4C119.583 45.4427 119.487 45.528 119.359 45.656H123.743C123.828 45.656 123.913 45.656 123.999 45.656C124.105 45.6347 124.212 45.624 124.319 45.624H124.479C124.607 45.624 124.756 45.6453 124.927 45.688C124.969 45.688 125.001 45.6987 125.023 45.72C125.044 45.72 125.065 45.72 125.087 45.72C125.236 45.784 125.343 45.9013 125.407 46.072C125.449 46.2 125.46 46.3067 125.439 46.392C125.439 46.5413 125.407 46.712 125.343 46.904L125.247 47.16C125.119 47.5013 124.948 47.7893 124.735 48.024C124.649 48.1307 124.564 48.2373 124.479 48.344C124.393 48.4507 124.297 48.5573 124.191 48.664C124.105 48.7493 124.02 48.8347 123.935 48.92C123.849 49.0053 123.753 49.0907 123.647 49.176L123.455 49.368C123.348 49.4747 123.252 49.6027 123.167 49.752C123.103 49.88 123.028 50.008 122.943 50.136C122.879 50.2 122.836 50.2533 122.815 50.296C122.857 50.2533 122.857 50.2747 122.815 50.36C122.772 50.4453 122.729 50.4667 122.687 50.424C122.644 50.5307 122.591 50.6267 122.527 50.712C122.484 50.7973 122.42 50.9253 122.335 51.096C122.292 51.2027 122.239 51.2987 122.175 51.384C122.132 51.4907 122.089 51.5973 122.047 51.704C121.919 51.9387 121.801 52.1307 121.695 52.28C121.673 52.344 121.641 52.3973 121.599 52.44C121.577 52.504 121.545 52.5573 121.503 52.6L121.375 52.792C121.353 52.8133 121.332 52.8453 121.311 52.888C121.289 52.9307 121.257 52.9733 121.215 53.016C121.087 53.1653 120.959 53.304 120.831 53.432C120.703 53.5813 120.575 53.7307 120.447 53.88L120.223 54.104C120.18 54.168 120.127 54.232 120.063 54.296C120.02 54.36 119.967 54.4133 119.903 54.456C119.817 54.5413 119.753 54.584 119.711 54.584C119.689 54.712 119.668 54.84 119.647 54.968C119.647 55.1173 119.625 55.256 119.583 55.384ZM115.583 40.568H115.743C116.02 40.568 116.297 40.568 116.575 40.568C116.852 40.5467 117.129 40.5467 117.407 40.568L118.015 40.536V40.152C117.993 40.1307 117.983 40.1093 117.983 40.088C117.983 40.0027 117.972 39.9067 117.951 39.8C117.951 39.6933 117.94 39.5973 117.919 39.512L117.727 39.064C117.705 39.0427 117.695 39.032 117.695 39.032C117.695 39.0107 117.684 38.9893 117.663 38.968C117.556 38.8187 117.439 38.7227 117.311 38.68C117.311 38.6587 117.279 38.648 117.215 38.648H117.183C117.033 38.648 116.884 38.6587 116.735 38.68C116.585 38.68 116.436 38.6907 116.287 38.712C116.244 38.7333 116.18 38.7547 116.095 38.776C116.031 38.776 115.967 38.7973 115.903 38.84C115.881 38.8613 115.871 38.8827 115.871 38.904C115.871 38.904 115.86 38.9147 115.839 38.936C115.796 38.9787 115.764 39.032 115.743 39.096C115.721 39.16 115.689 39.2133 115.647 39.256C115.519 39.5973 115.455 39.8427 115.455 39.992C115.476 40.1413 115.519 40.3333 115.583 40.568ZM116.447 46.648C116.489 46.6693 116.617 46.68 116.831 46.68C116.959 46.6373 117.076 46.5733 117.183 46.488C117.311 46.4027 117.417 46.3173 117.503 46.232L117.791 45.944C117.961 45.816 118.089 45.7413 118.175 45.72C118.26 45.6987 118.356 45.6773 118.463 45.656C118.313 45.6133 118.164 45.5707 118.015 45.528C117.887 45.4853 117.748 45.4427 117.599 45.4C117.364 45.3147 117.129 45.2187 116.895 45.112C116.681 45.0053 116.457 44.9093 116.223 44.824L115.583 44.632C115.54 44.5893 115.497 44.568 115.455 44.568V44.728C115.455 44.7493 115.455 44.8453 115.455 45.016C115.476 45.1653 115.487 45.2613 115.487 45.304C115.508 45.5387 115.561 45.7733 115.647 46.008C115.753 46.2213 115.892 46.392 116.063 46.52L116.319 46.616C116.34 46.6373 116.383 46.648 116.447 46.648ZM158.226 50.296C158.204 50.3173 158.194 50.3493 158.194 50.392C158.194 50.4133 158.183 50.4347 158.162 50.456C158.119 50.5413 158.098 50.584 158.098 50.584C158.076 50.6693 158.044 50.7227 158.002 50.744C157.959 50.7653 157.916 50.7973 157.874 50.84L157.746 50.936C157.682 51.2133 157.628 51.48 157.586 51.736C157.564 52.0133 157.532 52.2907 157.49 52.568C157.468 52.6747 157.447 52.8347 157.426 53.048C157.426 53.2613 157.404 53.3147 157.362 53.208C157.298 52.9307 157.266 52.6533 157.266 52.376C157.287 52.0987 157.276 51.8213 157.234 51.544C157.234 51.5227 157.212 51.5227 157.17 51.544C157.148 51.5867 157.127 51.608 157.106 51.608C157.063 51.6293 157.01 51.6613 156.946 51.704C156.882 51.7467 156.807 51.7573 156.722 51.736C156.7 51.736 156.668 51.7147 156.626 51.672C156.455 51.672 156.274 51.5973 156.082 51.448C156.06 51.512 156.05 51.5867 156.05 51.672C156.071 51.7787 156.05 51.8533 155.986 51.896C155.922 51.9387 155.89 51.9067 155.89 51.8C155.89 51.6933 155.879 51.608 155.858 51.544C155.858 51.544 155.847 51.448 155.826 51.256C155.826 51.0853 155.73 51.0427 155.538 51.128C155.516 51.1493 155.484 51.1813 155.442 51.224C155.42 51.2667 155.378 51.32 155.314 51.384C155.25 51.4693 155.175 51.544 155.09 51.608C155.068 51.6293 155.036 51.6613 154.994 51.704C154.972 51.768 154.94 51.8213 154.898 51.864C154.834 51.9067 154.77 51.896 154.706 51.832C154.663 51.7893 154.62 51.7573 154.578 51.736C154.556 51.736 154.503 51.7467 154.418 51.768C154.354 51.8107 154.322 51.8427 154.322 51.864C154.322 51.864 154.311 51.864 154.29 51.864C154.29 51.864 154.29 51.8747 154.29 51.896C154.29 51.896 154.268 51.9173 154.226 51.96C154.098 52.1093 154.002 52.28 153.938 52.472C153.874 52.6853 153.799 52.8773 153.714 53.048C153.671 53.1333 153.618 53.2293 153.554 53.336C153.511 53.464 153.436 53.56 153.33 53.624C153.308 53.9013 153.287 54.1787 153.266 54.456C153.266 54.7333 153.244 55.0107 153.202 55.288C153.18 55.352 153.159 55.448 153.138 55.576C153.138 55.704 153.116 55.736 153.074 55.672C153.01 55.544 152.978 55.4053 152.978 55.256C152.978 55.128 152.967 54.9893 152.946 54.84C152.924 54.6053 152.914 54.3813 152.914 54.168C152.914 53.9547 152.892 53.7413 152.85 53.528C152.722 53.4213 152.626 53.3253 152.562 53.24C152.476 53.112 152.38 52.9733 152.274 52.824C152.188 52.6747 152.092 52.5253 151.986 52.376C151.9 52.2267 151.815 52.088 151.73 51.96C151.666 51.832 151.591 51.704 151.506 51.576C151.484 51.5333 151.452 51.4907 151.41 51.448L151.314 51.288H151.282C151.26 51.288 151.228 51.2347 151.186 51.128C151.164 51.0427 151.132 50.968 151.09 50.904C151.196 51.0107 151.228 51.0427 151.186 51C151.164 50.9573 151.111 50.8933 151.026 50.808C150.962 50.7227 150.919 50.68 150.898 50.68L150.866 50.648L150.77 50.488C150.77 50.4667 150.759 50.456 150.738 50.456C150.738 50.4347 150.738 50.4133 150.738 50.392C150.674 50.2213 150.652 50.0293 150.674 49.816C150.695 49.5813 150.706 49.3787 150.706 49.208V41.624C150.706 41.9867 150.716 42.1573 150.738 42.136C150.759 42.1147 150.78 42.0187 150.802 41.848C150.823 41.6773 150.823 41.5387 150.802 41.432C150.78 41.304 150.727 41.3253 150.642 41.496L150.514 41.688C150.471 41.7307 150.45 41.7627 150.45 41.784C150.471 41.784 150.46 41.8053 150.418 41.848C150.418 41.848 150.407 41.8587 150.386 41.88C150.386 41.88 150.386 41.8907 150.386 41.912C150.279 42.0613 150.172 42.2213 150.066 42.392C149.98 42.5627 149.884 42.7333 149.778 42.904C149.607 43.1813 149.436 43.4693 149.266 43.768C149.095 44.0667 148.914 44.3547 148.722 44.632C148.7 44.696 148.668 44.76 148.626 44.824C148.583 44.888 148.54 44.9413 148.498 44.984C148.434 45.0693 148.359 45.1547 148.274 45.24C148.21 45.3253 148.124 45.3893 148.018 45.432C147.996 45.4533 147.964 45.4853 147.922 45.528C147.9 45.5707 147.858 45.6453 147.794 45.752C147.772 45.7733 147.74 45.784 147.698 45.784C147.676 46.0187 147.655 46.3813 147.634 46.872C147.634 47.3413 147.623 47.8533 147.602 48.408C147.602 48.9627 147.591 49.4853 147.57 49.976C147.57 50.4453 147.559 50.7973 147.538 51.032C147.538 51.0533 147.516 51.064 147.474 51.064C147.431 51.064 147.41 51.0533 147.41 51.032C147.388 50.7333 147.367 50.264 147.346 49.624C147.346 48.984 147.346 48.3333 147.346 47.672C147.346 47.0107 147.324 46.488 147.282 46.104C147.282 46.104 147.25 46.072 147.186 46.008L147.154 46.04C147.154 46.04 147.154 46.0507 147.154 46.072C147.154 46.072 147.143 46.072 147.122 46.072C147.122 46.1147 147.1 46.1573 147.058 46.2C147.015 46.2853 146.962 46.3707 146.898 46.456C146.834 46.52 146.759 46.5733 146.674 46.616C146.631 46.7227 146.62 46.8613 146.642 47.032C146.663 47.2027 146.62 47.2773 146.514 47.256C146.407 47.2133 146.375 47.1173 146.418 46.968C146.46 46.7973 146.46 46.648 146.418 46.52C146.375 46.4773 146.332 46.424 146.29 46.36C146.247 46.296 146.204 46.2533 146.162 46.232C146.098 46.168 146.066 46.136 146.066 46.136C146.044 46.2213 146.012 46.3067 145.97 46.392C145.948 46.4773 145.927 46.5413 145.906 46.584C145.906 46.4773 145.874 46.3493 145.81 46.2C145.767 46.2427 145.746 46.2747 145.746 46.296C145.746 46.296 145.724 46.3173 145.682 46.36C145.639 46.424 145.596 46.4987 145.554 46.584C145.511 46.6693 145.468 46.744 145.426 46.808C145.404 46.8293 145.362 46.872 145.298 46.936C145.255 46.9787 145.212 46.9893 145.17 46.968C145.127 46.9467 145.095 46.9253 145.074 46.904C145.052 46.8613 145.02 46.8293 144.978 46.808C144.871 46.7013 144.796 46.5413 144.754 46.328C144.711 46.1787 144.668 46.04 144.626 45.912C144.604 45.7627 144.572 45.6133 144.53 45.464C144.444 45.4213 144.37 45.368 144.306 45.304C144.263 45.2187 144.21 45.144 144.146 45.08L143.986 44.824C143.815 44.5467 143.644 44.2693 143.474 43.992C143.303 43.6933 143.132 43.4053 142.962 43.128L142.674 42.648C142.61 42.5627 142.546 42.4773 142.482 42.392C142.439 42.3067 142.386 42.2213 142.322 42.136L142.226 41.944C142.204 41.9013 142.183 41.8587 142.162 41.816C142.14 41.7733 142.108 41.7307 142.066 41.688C142.066 41.6667 142.055 41.656 142.034 41.656C142.034 41.656 142.034 41.6453 142.034 41.624C142.034 41.624 142.012 41.6027 141.97 41.56C141.97 41.4533 141.948 41.3787 141.906 41.336C141.884 41.272 141.874 41.3253 141.874 41.496V49.624C141.874 49.7307 141.874 49.848 141.874 49.976C141.895 50.0827 141.895 50.1893 141.874 50.296C141.874 50.2533 141.863 50.2747 141.842 50.36C141.82 50.424 141.82 50.4453 141.842 50.424C141.82 50.5093 141.767 50.5947 141.682 50.68L141.49 50.872C141.468 50.9573 141.447 51.0427 141.426 51.128C141.426 51.2347 141.404 51.3413 141.362 51.448C141.319 51.7253 141.266 51.992 141.202 52.248C141.159 52.5253 141.095 52.8027 141.01 53.08C140.988 53.144 140.956 53.2507 140.914 53.4C140.871 53.5493 140.828 53.656 140.786 53.72C140.658 53.848 140.562 53.8053 140.498 53.592C140.434 53.4 140.391 53.2933 140.37 53.272C140.327 53.1013 140.284 52.92 140.242 52.728C140.199 52.5573 140.156 52.376 140.114 52.184C140.092 52.0773 140.082 51.9707 140.082 51.864C140.082 51.7573 140.06 51.6613 140.018 51.576C139.975 51.6187 139.922 51.6613 139.858 51.704C139.794 51.768 139.73 51.8213 139.666 51.864C139.623 52.2693 139.591 52.6853 139.57 53.112C139.57 53.56 139.548 53.9973 139.506 54.424C139.506 54.4453 139.484 54.4347 139.442 54.392C139.399 54.3493 139.378 54.3173 139.378 54.296C139.186 53.976 139.122 53.6773 139.186 53.4C139.25 53.144 139.314 52.8773 139.378 52.6C139.463 52.3227 139.41 52.0347 139.218 51.736C139.196 51.6933 139.175 51.6507 139.154 51.608C139.132 51.5653 139.1 51.5227 139.058 51.48C139.015 51.48 138.994 51.48 138.994 51.48C138.951 51.8213 138.93 52.152 138.93 52.472C138.93 52.8133 138.908 53.144 138.866 53.464C138.866 53.464 138.823 53.464 138.738 53.464C138.652 53.464 138.61 53.4533 138.61 53.432C138.588 53.112 138.567 52.7813 138.546 52.44C138.546 52.12 138.524 51.7893 138.482 51.448H138.322L138.29 51.416C138.247 51.416 138.226 51.416 138.226 51.416C138.204 51.6933 138.194 51.96 138.194 52.216C138.194 52.4933 138.172 52.7707 138.13 53.048C138.13 53.0693 138.087 53.0373 138.002 52.952C137.916 52.9093 137.874 52.8773 137.874 52.856C137.831 52.6213 137.81 52.3973 137.81 52.184C137.81 51.9707 137.799 51.7573 137.778 51.544C137.756 51.5653 137.735 51.5973 137.714 51.64C137.692 51.6827 137.692 51.6827 137.714 51.64C137.692 51.704 137.65 51.768 137.586 51.832C137.564 51.8533 137.532 51.8747 137.49 51.896C137.447 51.9387 137.404 51.9813 137.362 52.024C137.298 52.152 137.255 52.28 137.234 52.408C137.212 52.5573 137.17 52.7067 137.106 52.856C137.084 52.8773 137.063 52.9093 137.042 52.952C137.042 52.9947 137.02 53.0373 136.978 53.08C136.935 53.1227 136.892 53.1227 136.85 53.08C136.764 52.9947 136.711 52.8453 136.69 52.632C136.668 52.4187 136.636 52.28 136.594 52.216C136.487 52.1093 136.391 51.9707 136.306 51.8C136.242 51.6507 136.156 51.4693 136.05 51.256C136.028 51.2987 136.018 51.3307 136.018 51.352C136.018 51.3947 136.007 51.4373 135.986 51.48C135.964 51.5013 135.911 51.4907 135.826 51.448C135.762 51.4267 135.73 51.416 135.73 51.416C135.644 51.3733 135.58 51.3307 135.538 51.288C135.559 51.3307 135.57 51.4053 135.57 51.512C135.57 51.6187 135.527 51.7893 135.442 52.024C135.42 52.1093 135.399 52.184 135.378 52.248C135.356 52.312 135.335 52.3867 135.314 52.472C135.292 52.7067 135.282 53.0693 135.282 53.56C135.282 54.072 135.282 54.6053 135.282 55.16C135.282 55.736 135.282 56.2693 135.282 56.76C135.282 57.272 135.26 57.6453 135.218 57.88C135.196 58.0933 135.175 58.1253 135.154 57.976C135.154 57.8267 135.154 57.5707 135.154 57.208C135.154 56.8453 135.154 56.472 135.154 56.088C135.154 55.704 135.154 55.4053 135.154 55.192C135.132 54.552 135.122 54.0187 135.122 53.592C135.122 53.1867 135.111 52.7813 135.09 52.376C135.068 51.992 135.015 51.5227 134.93 50.968C134.844 50.9253 134.77 50.8827 134.706 50.84C134.471 50.6693 134.354 50.4347 134.354 50.136V29.464C134.354 29.2293 134.439 29.0267 134.61 28.856C134.78 28.6853 135.015 28.6 135.314 28.6H139.634C139.868 28.6 140.092 28.6 140.306 28.6C140.519 28.5787 140.722 28.6213 140.914 28.728C141.148 28.8347 141.33 28.984 141.458 29.176C141.607 29.368 141.735 29.5707 141.842 29.784C141.884 29.8267 141.916 29.88 141.938 29.944C141.98 29.9867 142.012 30.04 142.034 30.104L142.194 30.36C142.386 30.5947 142.567 30.872 142.738 31.192C142.93 31.4907 143.111 31.8107 143.282 32.152L144.402 34.008C144.658 34.392 144.903 34.7867 145.138 35.192C145.372 35.5973 145.607 35.992 145.842 36.376C145.884 36.4613 145.938 36.5573 146.002 36.664C146.066 36.7493 146.119 36.8453 146.162 36.952L146.29 37.144L146.418 36.92C146.46 36.8133 146.514 36.7173 146.578 36.632C146.642 36.5467 146.695 36.4613 146.738 36.376C146.93 36.0773 147.122 35.768 147.314 35.448C147.506 35.128 147.698 34.808 147.89 34.488L148.114 34.104C148.114 34.0827 148.114 34.072 148.114 34.072C148.135 34.072 148.146 34.0613 148.146 34.04C148.146 34.04 148.167 34.0187 148.21 33.976L149.298 32.152C149.319 32.152 149.33 32.152 149.33 32.152C149.33 32.1307 149.33 32.12 149.33 32.12C149.5 31.8 149.671 31.4907 149.842 31.192C150.034 30.8933 150.204 30.6267 150.354 30.392L150.546 30.072C150.652 29.9013 150.748 29.7413 150.834 29.592C150.94 29.4213 151.058 29.2613 151.186 29.112C151.186 29.0907 151.196 29.08 151.218 29.08C151.324 28.9307 151.474 28.8133 151.666 28.728C151.858 28.6213 152.06 28.5787 152.274 28.6C152.508 28.6 152.732 28.6 152.946 28.6H157.362C157.49 28.6 157.586 28.6213 157.65 28.664C157.714 28.6853 157.788 28.7173 157.874 28.76C158.066 28.888 158.183 29.1013 158.226 29.4C158.247 29.5493 158.247 29.7093 158.226 29.88C158.226 30.0507 158.226 30.2107 158.226 30.36V48.728C158.226 48.984 158.236 49.2507 158.258 49.528C158.279 49.784 158.268 50.04 158.226 50.296ZM180.16 50.136C180.139 50.1787 180.128 50.232 180.128 50.296C180.128 50.3387 180.117 50.3813 180.096 50.424C180.096 50.4453 180.085 50.4667 180.064 50.488C180.064 50.5093 180.053 50.5307 180.032 50.552C180.032 50.552 180.011 50.5733 179.968 50.616C179.947 50.68 179.872 50.7547 179.744 50.84C179.701 50.904 179.648 50.9573 179.584 51C179.52 51.0853 179.456 51.1813 179.392 51.288C179.349 51.3947 179.307 51.4907 179.264 51.576C179.179 51.7467 179.093 51.928 179.008 52.12C178.923 52.312 178.837 52.504 178.752 52.696L178.624 53.016C178.603 53.0587 178.581 53.1333 178.56 53.24C178.539 53.368 178.517 53.4 178.496 53.336C178.453 53.0373 178.432 52.7387 178.432 52.44C178.432 52.1413 178.411 51.8427 178.368 51.544C178.368 51.544 178.325 51.5653 178.24 51.608C178.219 51.608 178.208 51.608 178.208 51.608C178.208 51.6293 178.197 51.64 178.176 51.64C178.091 51.7893 178.005 51.96 177.92 52.152C177.856 52.344 177.792 52.536 177.728 52.728C177.707 52.792 177.685 52.856 177.664 52.92C177.643 53.0053 177.611 53.0907 177.568 53.176C177.525 53.2613 177.483 53.3573 177.44 53.464C177.397 53.592 177.323 53.6987 177.216 53.784C177.067 53.912 176.928 53.8693 176.8 53.656C176.693 53.464 176.619 53.3147 176.576 53.208C176.533 53.1227 176.48 53.0267 176.416 52.92C176.352 52.8347 176.299 52.7493 176.256 52.664C176.192 52.536 176.128 52.408 176.064 52.28C176 52.152 175.947 52.024 175.904 51.896L175.808 51.608C175.744 51.5653 175.712 51.5547 175.712 51.576C175.669 51.9173 175.648 52.248 175.648 52.568C175.648 52.9093 175.627 53.2507 175.584 53.592C175.563 53.6347 175.541 53.6027 175.52 53.496C175.499 53.4107 175.477 53.3467 175.456 53.304C175.413 53.24 175.371 53.144 175.328 53.016C175.243 52.8453 175.157 52.664 175.072 52.472C175.008 52.3013 174.923 52.1413 174.816 51.992C174.688 51.7787 174.517 51.5333 174.304 51.256C174.283 51.3627 174.261 51.4693 174.24 51.576C174.24 51.6827 174.219 51.7893 174.176 51.896C174.155 51.9173 174.133 51.9387 174.112 51.96C174.091 51.9813 174.069 52.0133 174.048 52.056C173.963 52.056 173.92 52.0667 173.92 52.088L173.76 51.672C173.76 51.6933 173.749 51.7253 173.728 51.768C173.707 51.8107 173.685 51.8533 173.664 51.896C173.643 51.9173 173.621 51.896 173.6 51.832C173.579 51.768 173.557 51.7253 173.536 51.704C173.493 51.6187 173.451 51.5227 173.408 51.416C173.365 51.3307 173.323 51.2453 173.28 51.16C173.259 51.1173 173.237 51.064 173.216 51C173.216 50.936 173.195 50.8827 173.152 50.84C173.109 50.8187 173.077 50.7973 173.056 50.776C173.035 50.7333 173.003 50.6907 172.96 50.648C172.917 50.5627 172.885 50.5093 172.864 50.488C172.821 50.36 172.8 50.2533 172.8 50.168C172.779 50.0613 172.768 49.9653 172.768 49.88C172.789 49.7733 172.8 49.6453 172.8 49.496V49.08C172.779 49.1227 172.736 49.176 172.672 49.24C172.651 49.304 172.565 49.4107 172.416 49.56L172.32 49.656C172.32 49.6773 172.309 49.688 172.288 49.688C172.288 49.688 172.288 49.6987 172.288 49.72L171.872 50.104C171.787 50.296 171.723 50.4987 171.68 50.712C171.637 50.904 171.531 51.064 171.36 51.192C171.211 51.32 171.115 51.2987 171.072 51.128C171.051 51.2133 171.019 51.2773 170.976 51.32C170.933 51.384 170.859 51.48 170.752 51.608L170.592 51.768C170.464 51.8533 170.357 51.96 170.272 52.088L170.016 52.632C169.995 52.6747 169.952 52.7493 169.888 52.856C169.845 52.9627 169.803 53.0373 169.76 53.08C169.675 53.1013 169.611 53.08 169.568 53.016C169.547 52.952 169.525 52.8987 169.504 52.856C169.483 52.792 169.461 52.7173 169.44 52.632C169.419 52.568 169.397 52.504 169.376 52.44C169.355 52.3333 169.333 52.2267 169.312 52.12C169.312 52.0133 169.291 51.9173 169.248 51.832C169.163 51.7467 169.099 51.672 169.056 51.608H169.024C169.003 51.608 168.981 51.5973 168.96 51.576C168.939 51.5547 168.917 51.5547 168.896 51.576C168.875 51.7893 168.853 52.0027 168.832 52.216C168.832 52.4293 168.811 52.6427 168.768 52.856C168.768 52.8773 168.757 52.856 168.736 52.792C168.715 52.728 168.683 52.6853 168.64 52.664C168.619 52.6213 168.597 52.5893 168.576 52.568C168.555 52.5467 168.533 52.5147 168.512 52.472C168.491 52.344 168.48 52.2053 168.48 52.056C168.48 51.928 168.459 51.8 168.416 51.672C168.395 51.6933 168.384 51.6933 168.384 51.672C168.363 51.6933 168.331 51.704 168.288 51.704C168.288 51.7253 168.277 51.736 168.256 51.736C168.235 51.7573 168.213 51.7787 168.192 51.8C168.192 51.8213 168.171 51.8427 168.128 51.864C168.107 51.8853 168.075 51.8853 168.032 51.864C167.989 51.864 167.947 51.864 167.904 51.864C167.733 51.8427 167.605 51.7787 167.52 51.672C167.435 51.5867 167.36 51.4693 167.296 51.32H167.136C167.093 51.32 167.051 51.3093 167.008 51.288C166.965 51.288 166.923 51.288 166.88 51.288C166.752 51.288 166.656 51.2773 166.592 51.256C166.421 51.2347 166.251 51.2027 166.08 51.16C165.909 51.1387 165.739 51.096 165.568 51.032C165.419 51.0107 165.269 50.9573 165.12 50.872C164.907 50.7867 164.693 50.6907 164.48 50.584C164.288 50.4773 164.096 50.36 163.904 50.232C163.52 49.9547 163.2 49.656 162.944 49.336C162.837 49.2293 162.741 49.112 162.656 48.984C162.571 48.8347 162.475 48.6853 162.368 48.536C162.091 48.088 161.856 47.576 161.664 47C161.493 46.4027 161.376 45.752 161.312 45.048C161.248 44.5573 161.227 44.0133 161.248 43.416C161.269 42.8187 161.28 42.296 161.28 41.848V35.224C161.28 35.032 161.333 34.8613 161.44 34.712L161.632 34.52C161.781 34.4133 161.941 34.36 162.112 34.36C162.304 34.36 162.485 34.36 162.656 34.36H168.256C168.341 34.36 168.448 34.3813 168.576 34.424C168.768 34.488 168.896 34.584 168.96 34.712C169.003 34.7547 169.045 34.84 169.088 34.968C169.109 35.0533 169.12 35.192 169.12 35.384V44.024C169.163 44.3013 169.227 44.568 169.312 44.824C169.419 45.0587 169.632 45.272 169.952 45.464C170.08 45.5067 170.165 45.528 170.208 45.528C170.315 45.5493 170.4 45.5707 170.464 45.592C170.549 45.592 170.635 45.592 170.72 45.592C170.827 45.592 170.912 45.592 170.976 45.592C171.061 45.5707 171.147 45.5493 171.232 45.528C171.275 45.528 171.307 45.5173 171.328 45.496C171.371 45.4747 171.413 45.4533 171.456 45.432C171.52 45.4107 171.573 45.3893 171.616 45.368L171.872 45.208C171.979 45.0587 172.085 44.888 172.192 44.696C172.235 44.5893 172.256 44.4827 172.256 44.376C172.277 44.2693 172.299 44.1627 172.32 44.056V35.224C172.32 34.9893 172.405 34.7867 172.576 34.616C172.747 34.4453 172.949 34.36 173.184 34.36H178.752C179.029 34.36 179.232 34.36 179.36 34.36C179.509 34.36 179.68 34.4453 179.872 34.616C179.979 34.7227 180.043 34.84 180.064 34.968C180.107 35.0747 180.128 35.1813 180.128 35.288C180.149 35.3947 180.149 35.512 180.128 35.64C180.128 35.768 180.128 35.8853 180.128 35.992V49.24C180.128 49.3253 180.128 49.4107 180.128 49.496C180.128 49.5813 180.139 49.6773 180.16 49.784V50.136ZM173.024 50.744C173.024 50.744 173.035 50.7547 173.056 50.776C173.035 50.7547 173.024 50.744 173.024 50.744ZM199.771 46.168C199.707 47.064 199.419 47.864 198.907 48.568C198.885 48.6107 198.853 48.6533 198.811 48.696C198.768 48.7387 198.725 48.7813 198.683 48.824C198.597 48.9093 198.501 49.0053 198.395 49.112C198.288 49.2187 198.171 49.3253 198.043 49.432C197.936 49.5813 197.829 49.7413 197.722 49.912C197.637 50.0827 197.531 50.2427 197.403 50.392C197.317 50.4773 197.253 50.4987 197.211 50.456C197.04 50.84 196.869 51.1707 196.699 51.448C196.656 51.5333 196.603 51.608 196.539 51.672C196.475 51.7573 196.411 51.8427 196.347 51.928C196.261 52.0133 196.219 52.0453 196.219 52.024C196.197 51.8533 196.187 51.672 196.187 51.48C196.187 51.3093 196.176 51.1387 196.155 50.968C196.091 51.0107 196.037 51.064 195.995 51.128C195.973 51.1493 195.952 51.16 195.931 51.16C195.909 51.1813 195.888 51.2133 195.867 51.256C195.845 51.4693 195.824 51.6933 195.803 51.928C195.781 52.1627 195.749 52.3973 195.707 52.632C195.685 52.7387 195.664 52.8987 195.643 53.112C195.621 53.3253 195.589 53.3787 195.547 53.272C195.44 52.9307 195.419 52.6747 195.483 52.504C195.547 52.3547 195.493 52.088 195.323 51.704C195.301 51.8533 195.291 52.0027 195.291 52.152C195.291 52.3013 195.28 52.4507 195.259 52.6C195.259 52.6213 195.237 52.632 195.195 52.632C195.173 52.632 195.152 52.6427 195.131 52.664C195.109 52.664 195.088 52.664 195.067 52.664C195.067 52.6853 195.045 52.696 195.003 52.696C194.875 52.8027 194.757 52.92 194.651 53.048C194.501 53.2187 194.373 53.432 194.267 53.688C194.245 53.7093 194.224 53.7413 194.203 53.784C194.181 53.8267 194.16 53.8693 194.139 53.912C194.117 53.9547 194.085 54.008 194.043 54.072C194.021 54.1573 194.011 54.1893 194.011 54.168C193.968 53.784 193.947 53.4 193.947 53.016C193.947 52.632 193.925 52.248 193.883 51.864C193.84 51.8213 193.797 51.8 193.755 51.8C193.712 51.8213 193.669 51.832 193.627 51.832C193.584 51.8533 193.541 51.8747 193.499 51.896C193.371 51.9387 193.253 51.96 193.147 51.96C193.147 51.9813 193.136 51.992 193.115 51.992C193.115 51.992 193.115 52.0027 193.115 52.024C192.901 52.2587 192.795 52.376 192.795 52.376C192.795 52.376 192.837 52.3333 192.923 52.248C193.008 52.1627 193.061 52.1093 193.083 52.088C193.125 52.088 193.051 52.2053 192.859 52.44C192.816 52.4827 192.773 52.5467 192.731 52.632C192.709 52.6533 192.688 52.696 192.667 52.76C192.645 52.824 192.624 52.8453 192.603 52.824C192.539 52.7173 192.507 52.5467 192.507 52.312C192.528 52.0987 192.517 52.0453 192.475 52.152C192.411 52.2587 192.4 52.3973 192.443 52.568C192.485 52.76 192.507 52.92 192.507 53.048C192.528 53.1973 192.475 53.272 192.347 53.272C192.155 53.272 192.091 53.1333 192.155 52.856C192.24 52.5787 192.261 52.344 192.219 52.152C192.219 52.1307 192.176 52.12 192.091 52.12C192.027 52.12 191.984 52.1093 191.963 52.088C191.899 52.088 191.845 52.0667 191.803 52.024C191.781 52.216 191.771 52.408 191.771 52.6C191.771 52.792 191.749 52.984 191.707 53.176C191.685 53.24 191.664 53.2187 191.643 53.112C191.621 53.0053 191.6 52.9307 191.579 52.888C191.557 52.824 191.536 52.76 191.515 52.696C191.493 52.6533 191.472 52.6107 191.451 52.568L191.163 51.832C191.163 51.9173 191.152 52.0133 191.131 52.12C191.131 52.248 191.109 52.3547 191.067 52.44C191.045 52.4827 191.024 52.4507 191.003 52.344C191.003 52.2587 190.981 52.1947 190.939 52.152L190.555 51.32H190.363C188.464 51.2773 186.928 51 185.755 50.488C184.581 49.9547 183.717 49.3573 183.163 48.696C183.077 48.5893 182.981 48.472 182.875 48.344C182.789 48.216 182.715 48.088 182.651 47.96C182.565 47.8107 182.501 47.672 182.459 47.544C182.416 47.3947 182.373 47.256 182.331 47.128C182.267 46.872 182.256 46.648 182.299 46.456C182.299 46.4133 182.309 46.3707 182.331 46.328C182.352 46.2853 182.373 46.2533 182.395 46.232C182.416 46.1893 182.459 46.136 182.523 46.072C182.651 45.944 182.811 45.88 183.003 45.88C183.173 45.8373 183.397 45.8267 183.674 45.848C183.952 45.8693 184.197 45.88 184.411 45.88H187.323C187.557 45.88 187.803 45.8693 188.059 45.848C188.315 45.8267 188.56 45.8373 188.795 45.88C188.837 45.9013 188.869 45.912 188.891 45.912C188.933 45.912 188.976 45.9227 189.019 45.944C189.168 45.9867 189.307 46.0507 189.435 46.136C189.563 46.2 189.691 46.2853 189.819 46.392L190.043 46.52C190.128 46.5627 190.213 46.6053 190.299 46.648C190.384 46.6907 190.469 46.7333 190.555 46.776C190.661 46.7973 190.747 46.8187 190.811 46.84C190.875 46.84 190.949 46.84 191.035 46.84C191.205 46.84 191.355 46.808 191.483 46.744C191.653 46.68 191.749 46.552 191.771 46.36V46.136C191.749 46.1147 191.739 46.0933 191.739 46.072C191.653 45.9013 191.483 45.7627 191.227 45.656L190.97 45.56C190.928 45.5387 190.885 45.528 190.843 45.528C190.8 45.5067 190.757 45.496 190.715 45.496C190.608 45.4747 190.48 45.4747 190.331 45.496C190.203 45.496 190.085 45.4853 189.979 45.464C189.829 45.4427 189.68 45.4107 189.531 45.368C189.403 45.3253 189.253 45.3147 189.083 45.336C188.976 45.3573 188.859 45.3893 188.731 45.432C188.624 45.4533 188.517 45.4747 188.411 45.496C188.304 45.5173 188.197 45.5173 188.091 45.496C187.984 45.4747 187.877 45.464 187.771 45.464C187.685 45.4427 187.589 45.432 187.483 45.432C187.397 45.432 187.301 45.4213 187.195 45.4C186.96 45.3573 186.715 45.272 186.459 45.144C186.203 44.9947 185.968 44.8453 185.755 44.696C185.605 44.568 185.435 44.3973 185.243 44.184C185.072 43.9707 184.88 43.7573 184.667 43.544C184.603 43.48 184.571 43.448 184.571 43.448C184.549 43.448 184.528 43.4693 184.507 43.512C184.507 43.5547 184.485 43.5653 184.443 43.544C184.421 43.5227 184.4 43.4907 184.379 43.448C184.379 43.4053 184.368 43.3627 184.347 43.32C184.283 43.192 184.187 43.0747 184.059 42.968C184.016 42.9253 183.973 42.8827 183.931 42.84C183.909 42.7973 183.877 42.7653 183.835 42.744C183.877 42.7653 183.845 42.7333 183.739 42.648C183.632 42.5413 183.579 42.4773 183.579 42.456C183.451 42.2853 183.344 42.136 183.259 42.008C183.109 41.752 183.003 41.56 182.939 41.432C182.896 41.2827 182.843 41.1013 182.779 40.888C182.629 40.376 182.565 39.8427 182.587 39.288C182.587 39.224 182.597 39.1707 182.618 39.128C182.725 37.9973 183.291 36.9627 184.315 36.024C185.36 35.064 186.832 34.4453 188.731 34.168C188.837 34.1467 188.944 34.136 189.051 34.136C189.157 34.1147 189.264 34.104 189.371 34.104C189.477 34.0827 189.584 34.072 189.691 34.072C189.819 34.0507 189.936 34.04 190.043 34.04H190.267C190.544 34.0187 190.811 34.008 191.067 34.008C191.344 34.008 191.6 34.0293 191.835 34.072C191.877 34.072 191.909 34.0827 191.931 34.104C193.36 34.2107 194.576 34.4987 195.579 34.968C196.581 35.4373 197.392 35.9813 198.01 36.6C198.096 36.6853 198.171 36.7707 198.235 36.856C198.299 36.92 198.373 37.0053 198.458 37.112C198.715 37.432 198.885 37.7627 198.971 38.104C199.013 38.2533 199.045 38.4133 199.067 38.584C199.088 38.7333 199.067 38.8827 199.003 39.032C198.981 39.0533 198.971 39.0853 198.971 39.128C198.949 39.128 198.939 39.1387 198.939 39.16L198.715 39.384C198.693 39.384 198.672 39.3947 198.651 39.416C198.651 39.416 198.64 39.416 198.619 39.416C198.619 39.4373 198.608 39.4907 198.587 39.576C198.565 39.64 198.533 39.672 198.491 39.672C198.491 39.672 198.48 39.672 198.458 39.672C198.458 39.672 198.448 39.6613 198.427 39.64C198.427 39.64 198.405 39.6187 198.363 39.576H198.267C198.267 39.5973 198.256 39.6187 198.235 39.64C198.235 39.64 198.235 39.6507 198.235 39.672C198.213 39.8 198.213 39.9387 198.235 40.088C198.256 40.2373 198.213 40.3653 198.107 40.472C198.043 40.5573 198.01 40.5147 198.01 40.344C198.032 40.152 198.021 40.0133 197.979 39.928C197.957 39.9067 197.936 39.9173 197.915 39.96C197.893 40.0027 197.872 40.0347 197.851 40.056L197.467 40.44C197.168 40.696 196.816 40.8773 196.411 40.984C196.24 41.0267 196.091 41.048 195.963 41.048C196.816 41.3893 197.509 41.7947 198.043 42.264C198.576 42.712 198.981 43.2133 199.259 43.768C199.344 43.896 199.397 43.992 199.419 44.056C199.504 44.2693 199.579 44.4827 199.642 44.696C199.707 44.888 199.749 45.1013 199.771 45.336V46.168ZM193.531 40.44C193.744 40.4613 193.947 40.4933 194.139 40.536C194.331 40.5787 194.523 40.6213 194.715 40.664C194.629 40.5787 194.533 40.504 194.427 40.44C194.32 40.3547 194.213 40.28 194.107 40.216C193.893 40.2587 193.659 40.3013 193.403 40.344C193.168 40.3653 192.933 40.3333 192.699 40.248C192.421 40.1413 192.187 39.9813 191.995 39.768C191.803 39.5547 191.6 39.352 191.387 39.16C191.28 39.2027 191.163 39.2027 191.035 39.16C190.949 39.1173 190.864 39.0747 190.779 39.032C190.693 38.968 190.597 38.904 190.491 38.84C190.448 38.7973 190.405 38.7547 190.363 38.712C190.32 38.6693 190.277 38.6587 190.235 38.68C190.128 38.744 190.064 38.8187 190.043 38.904V38.936C190.021 38.9573 190.01 38.9893 190.01 39.032V39.224C190.032 39.2453 190.043 39.2667 190.043 39.288C190.085 39.3733 190.149 39.4587 190.235 39.544C190.32 39.6293 190.405 39.6933 190.491 39.736C190.576 39.7787 190.629 39.8 190.651 39.8C190.843 39.8853 191.099 39.9707 191.419 40.056C191.739 40.12 192.144 40.2053 192.635 40.312L193.403 40.408C193.381 40.408 193.403 40.4187 193.467 40.44C193.552 40.4613 193.573 40.4613 193.531 40.44ZM206.166 33.656C205.91 33.6987 205.643 33.6667 205.366 33.56C205.11 33.4533 204.854 33.3253 204.598 33.176C204.534 33.1547 204.459 33.1333 204.374 33.112C204.31 33.0693 204.235 33.0373 204.15 33.016C203.979 32.9733 203.798 32.9307 203.606 32.888C203.435 32.824 203.264 32.76 203.094 32.696C203.03 32.6747 202.966 32.664 202.902 32.664C202.859 32.6427 202.806 32.6213 202.742 32.6L202.486 32.504C202.464 32.4613 202.432 32.4293 202.39 32.408C202.368 32.3867 202.336 32.3653 202.294 32.344C202.144 32.1947 202.059 32.0347 202.038 31.864V28.6C202.038 28.408 202.027 28.1947 202.006 27.96C202.006 27.7253 202.07 27.5227 202.198 27.352L202.39 27.16C202.454 27.1173 202.55 27.0747 202.678 27.032C202.848 26.9893 203.019 26.968 203.19 26.968C203.382 26.968 203.552 26.9787 203.702 27H207.318C207.51 26.9787 207.702 26.968 207.894 26.968C208.107 26.9467 208.31 26.9573 208.502 27C208.523 27 208.534 27.0107 208.534 27.032C208.534 27.032 208.544 27.032 208.566 27.032C208.587 27.032 208.64 27.0533 208.726 27.096C208.832 27.1387 208.918 27.2133 208.982 27.32C209.088 27.448 209.142 27.5653 209.142 27.672C209.163 27.7787 209.174 27.864 209.174 27.928C209.195 28.0133 209.206 28.0987 209.206 28.184C209.206 28.248 209.206 28.3227 209.206 28.408C209.206 28.856 209.195 29.3147 209.174 29.784C209.174 30.2533 209.174 30.712 209.174 31.16V31.736C209.174 31.8427 209.163 31.928 209.142 31.992C209.12 32.0987 209.056 32.2053 208.95 32.312L208.822 32.44C208.779 32.4827 208.736 32.504 208.694 32.504C208.672 32.5253 208.651 32.5573 208.63 32.6C208.63 32.6427 208.608 32.6747 208.566 32.696C208.566 32.696 208.544 32.696 208.502 32.696C208.459 32.6747 208.416 32.664 208.374 32.664C208.331 32.664 208.278 32.6747 208.214 32.696C208.15 32.7173 208.096 32.7387 208.054 32.76C208.011 32.7813 207.958 32.8027 207.894 32.824C207.83 32.824 207.776 32.8347 207.734 32.856C207.691 32.856 207.659 32.8667 207.638 32.888C207.488 32.952 207.339 33.0373 207.19 33.144C207.04 33.2507 206.88 33.3573 206.71 33.464C206.539 33.5493 206.358 33.6133 206.166 33.656ZM209.302 50.424C209.28 50.4453 209.27 50.4667 209.27 50.488C209.27 50.5093 209.259 50.5307 209.238 50.552V50.584C209.195 50.6267 209.152 50.6693 209.11 50.712C209.067 50.7547 209.024 50.7973 208.982 50.84C208.982 50.84 208.971 50.8507 208.95 50.872C208.95 50.872 208.939 50.872 208.918 50.872C208.918 50.872 208.907 50.8827 208.885 50.904C208.885 50.904 208.875 50.904 208.854 50.904C208.811 50.9467 208.768 51.0107 208.726 51.096C208.704 51.1173 208.683 51.1493 208.661 51.192C208.661 51.2347 208.64 51.2667 208.598 51.288C208.512 51.3947 208.427 51.4907 208.342 51.576C208.256 51.6827 208.171 51.7893 208.086 51.896V51.928H208.054C208.054 51.9493 208.032 51.9813 207.99 52.024L207.574 52.728C207.467 52.92 207.339 53.0587 207.19 53.144C207.104 53.1867 207.062 53.208 207.062 53.208C207.04 53.3787 207.051 53.5813 207.094 53.816C207.136 54.072 207.158 54.2853 207.158 54.456C207.158 54.648 207.083 54.7227 206.934 54.68C206.763 54.6373 206.678 54.52 206.678 54.328C206.678 54.1573 206.699 53.9547 206.742 53.72C206.806 53.5067 206.827 53.3147 206.806 53.144C206.784 53.144 206.742 53.112 206.678 53.048C206.614 52.984 206.56 52.9093 206.518 52.824C206.475 52.76 206.432 52.6853 206.39 52.6C206.326 52.536 206.283 52.4827 206.262 52.44L205.974 52.152C205.952 52.3013 205.952 52.5147 205.974 52.792C206.016 53.0693 205.984 53.1653 205.878 53.08C205.728 52.9733 205.686 52.8133 205.75 52.6C205.814 52.3867 205.824 52.1947 205.782 52.024C205.76 51.9813 205.728 51.9493 205.686 51.928C205.664 51.9067 205.632 51.8747 205.59 51.832L205.366 51.608C205.323 51.544 205.259 51.4693 205.174 51.384C205.131 51.5973 205.11 51.8213 205.11 52.056C205.11 52.2907 205.088 52.5253 205.046 52.76C205.024 52.7813 205.003 52.7707 204.982 52.728C204.96 52.6853 204.939 52.6533 204.918 52.632C204.854 52.5467 204.79 52.472 204.726 52.408C204.683 52.344 204.619 52.2907 204.534 52.248C204.427 52.2053 204.32 52.1947 204.214 52.216C204.107 52.2373 204 52.2053 203.894 52.12C203.808 52.056 203.734 51.9813 203.67 51.896C203.627 51.832 203.574 51.7573 203.51 51.672C203.488 51.672 203.467 51.6613 203.446 51.64C203.424 51.6187 203.403 51.6293 203.382 51.672C203.36 52.0347 203.339 52.408 203.318 52.792C203.318 53.176 203.296 53.56 203.254 53.944C203.254 53.9867 203.232 53.9547 203.19 53.848C203.168 53.7627 203.147 53.6987 203.126 53.656C203.083 53.528 203.04 53.3787 202.998 53.208C202.955 53.0587 202.912 52.92 202.87 52.792C202.784 52.4933 202.731 52.2907 202.71 52.184C202.71 52.0773 202.71 51.992 202.71 51.928C202.731 51.864 202.72 51.768 202.678 51.64C202.656 51.5333 202.582 51.3093 202.454 50.968L202.262 50.872C202.112 50.7653 202.006 50.6373 201.942 50.488C201.899 50.3387 201.878 50.1893 201.878 50.04C201.856 49.8907 201.846 49.7413 201.846 49.592C201.867 49.4213 201.878 49.2613 201.878 49.112V35.224C201.878 35.1173 201.888 35.032 201.91 34.968C201.952 34.84 201.995 34.7547 202.038 34.712L202.23 34.52C202.315 34.456 202.454 34.4027 202.646 34.36C202.859 34.3173 203.072 34.3067 203.286 34.328C203.52 34.3493 203.723 34.36 203.894 34.36H207.062C207.318 34.36 207.574 34.3493 207.83 34.328C208.107 34.3067 208.374 34.3173 208.63 34.36C208.672 34.36 208.715 34.3707 208.758 34.392C208.8 34.4133 208.843 34.4347 208.885 34.456C208.95 34.4773 208.992 34.4987 209.014 34.52C209.078 34.584 209.12 34.6373 209.142 34.68C209.227 34.7653 209.291 34.904 209.334 35.096C209.355 35.1813 209.355 35.288 209.334 35.416C209.334 35.5227 209.334 35.6293 209.334 35.736C209.355 36.1413 209.355 36.5467 209.334 36.952C209.334 37.336 209.334 37.7307 209.334 38.136V49.24C209.334 49.3253 209.334 49.4107 209.334 49.496C209.334 49.5813 209.344 49.6773 209.366 49.784C209.366 49.8693 209.366 49.9547 209.366 50.04C209.366 50.1253 209.344 50.2533 209.302 50.424ZM230.135 44.568C230.263 44.696 230.327 44.8453 230.327 45.016C230.37 45.2933 230.327 45.5813 230.199 45.88C230.071 46.1573 229.954 46.4027 229.847 46.616C229.655 47.0213 229.431 47.384 229.175 47.704C228.941 48.0027 228.685 48.3013 228.407 48.6C228.343 48.664 228.258 48.7387 228.151 48.824C228.066 48.9093 228.002 48.9733 227.959 49.016C227.917 49.0373 227.863 49.08 227.799 49.144C227.799 49.144 227.778 49.1653 227.735 49.208C227.65 49.3573 227.575 49.528 227.511 49.72C227.447 49.912 227.383 50.0933 227.319 50.264C227.234 50.4347 227.149 50.6267 227.063 50.84C226.978 51.0533 226.882 51.2453 226.775 51.416L226.583 51.672L226.551 51.704C226.487 51.768 226.423 51.8213 226.359 51.864C226.317 51.928 226.263 51.9813 226.199 52.024C226.135 52.088 226.071 52.152 226.007 52.216C225.965 52.28 225.901 52.344 225.815 52.408C225.666 52.5147 225.506 52.536 225.335 52.472C225.165 52.4293 225.026 52.3333 224.919 52.184C224.898 52.1413 224.877 52.088 224.855 52.024C224.855 51.9813 224.834 51.9493 224.791 51.928C224.749 51.8853 224.727 51.8533 224.727 51.832C224.642 51.7893 224.546 51.7147 224.439 51.608C224.375 51.5653 224.322 51.512 224.279 51.448C224.237 51.4053 224.215 51.384 224.215 51.384C224.002 51.5973 223.885 51.8427 223.863 52.12C223.863 52.3973 223.885 52.6853 223.927 52.984C223.97 53.2827 223.959 53.5813 223.895 53.88C223.895 53.944 223.853 54.04 223.767 54.168C223.746 54.2107 223.725 54.2747 223.703 54.36C223.682 54.4667 223.661 54.4987 223.639 54.456C223.597 54.008 223.575 53.56 223.575 53.112C223.575 52.6853 223.554 52.248 223.511 51.8C223.511 51.8 223.469 51.8213 223.383 51.864C223.362 51.864 223.341 51.864 223.319 51.864C223.319 51.8853 223.298 51.896 223.255 51.896C223.191 51.896 223.149 51.9067 223.127 51.928C223.106 52.3973 223.085 52.8773 223.063 53.368C223.063 53.88 223.042 54.3813 222.999 54.872C222.999 54.8933 222.989 54.872 222.967 54.808C222.946 54.7653 222.914 54.7333 222.871 54.712L222.743 54.488C222.679 54.36 222.615 54.2213 222.551 54.072C222.487 53.944 222.423 53.816 222.359 53.688C222.146 53.176 221.89 52.664 221.591 52.152C221.485 51.96 221.378 51.7893 221.271 51.64C221.271 51.6827 221.25 51.704 221.207 51.704C221.186 51.7253 221.143 51.672 221.079 51.544C220.951 51.3947 220.813 51.32 220.663 51.32C217.911 51.256 215.714 50.4347 214.071 48.856L213.943 48.728C213.474 48.2373 213.069 47.672 212.727 47.032C212.407 46.3707 212.194 45.6453 212.087 44.856C212.002 44.472 211.959 44.088 211.959 43.704C211.959 43.32 211.959 42.9253 211.959 42.52V42.488C211.959 42.3173 211.959 42.1467 211.959 41.976C211.959 41.784 211.97 41.592 211.991 41.4C211.991 41.2933 211.991 41.1867 211.991 41.08C212.013 40.9733 212.034 40.8667 212.055 40.76C212.055 40.7173 212.055 40.664 212.055 40.6C212.055 40.536 212.066 40.472 212.087 40.408C212.087 40.3867 212.087 40.3653 212.087 40.344C212.109 40.3227 212.119 40.3013 212.119 40.28C212.226 39.7253 212.386 39.2027 212.599 38.712C212.813 38.2 213.069 37.7307 213.367 37.304C213.41 37.24 213.485 37.1547 213.591 37.048C214.402 36.0667 215.437 35.32 216.695 34.808C217.975 34.296 219.394 34.04 220.951 34.04C221.079 34.04 221.207 34.04 221.335 34.04C221.463 34.04 221.581 34.0507 221.687 34.072C221.815 34.0293 221.933 34.0293 222.039 34.072L222.807 34.168C223.106 34.1253 223.351 34.1467 223.543 34.232L223.735 34.328C225.122 34.6267 226.263 35.096 227.159 35.736C228.055 36.3547 228.77 37.0373 229.303 37.784C229.346 37.848 229.389 37.9227 229.431 38.008C229.495 38.072 229.549 38.1467 229.591 38.232C229.869 38.6373 230.071 39.096 230.199 39.608C230.221 39.6293 230.231 39.6613 230.231 39.704C230.231 39.7253 230.242 39.7573 230.263 39.8C230.349 40.0987 230.359 40.344 230.295 40.536C230.295 40.5573 230.285 40.5787 230.263 40.6C230.242 40.6853 230.21 40.7493 230.167 40.792C230.125 40.8133 230.082 40.8453 230.039 40.888C230.018 40.9093 229.997 40.9413 229.975 40.984C229.954 41.0053 229.933 41.0373 229.911 41.08C229.911 41.08 229.89 41.1227 229.847 41.208C229.805 41.2933 229.762 41.3573 229.719 41.4C229.698 41.4213 229.677 41.464 229.655 41.528C229.655 41.592 229.634 41.6133 229.591 41.592C229.549 41.5493 229.527 41.496 229.527 41.432C229.527 41.3467 229.506 41.2827 229.463 41.24C229.442 41.2187 229.399 41.24 229.335 41.304C229.293 41.3467 229.25 41.432 229.207 41.56C229.186 41.624 229.165 41.6987 229.143 41.784C229.143 41.848 229.122 41.88 229.079 41.88C229.037 41.88 229.015 41.8373 229.015 41.752C229.015 41.6453 228.994 41.5813 228.951 41.56C228.951 41.5387 228.909 41.5707 228.823 41.656C228.738 41.7413 228.653 41.8053 228.567 41.848C228.397 41.9973 228.205 42.1893 227.991 42.424C227.778 42.6373 227.543 42.7333 227.287 42.712C227.117 42.712 226.946 42.6693 226.775 42.584C226.605 42.4987 226.434 42.4347 226.263 42.392C226.178 42.3493 226.071 42.3173 225.943 42.296C225.837 42.2747 225.73 42.2427 225.623 42.2C225.538 42.1573 225.442 42.1147 225.335 42.072C225.229 42.008 225.122 41.9653 225.015 41.944C224.887 41.9013 224.749 41.8693 224.599 41.848C224.471 41.8053 224.354 41.752 224.247 41.688C224.141 41.6453 224.034 41.592 223.927 41.528C223.821 41.464 223.714 41.4107 223.607 41.368C223.501 41.304 223.383 41.2613 223.255 41.24C223.149 41.1973 223.042 41.1547 222.935 41.112C222.85 41.0693 222.786 41.0267 222.743 40.984C222.573 40.8987 222.434 40.7493 222.327 40.536C222.242 40.3867 222.157 40.2373 222.071 40.088C222.007 39.9173 221.901 39.7893 221.751 39.704L221.559 39.896C221.645 39.8107 221.687 39.7467 221.687 39.704C221.666 39.704 221.613 39.7147 221.527 39.736C221.463 39.7573 221.41 39.7787 221.367 39.8V40.088C221.389 40.1733 221.399 40.2587 221.399 40.344C221.421 40.408 221.431 40.4827 221.431 40.568C221.474 40.7387 221.463 40.856 221.399 40.92C221.378 40.984 221.335 41.016 221.271 41.016C221.229 41.016 221.186 41.016 221.143 41.016L221.111 40.984C221.069 40.9413 221.047 40.8667 221.047 40.76C221.047 40.6533 221.058 40.5467 221.079 40.44C221.101 40.312 221.111 40.1947 221.111 40.088V39.928C221.111 39.864 221.101 39.832 221.079 39.832C221.079 39.8107 221.079 39.8 221.079 39.8C221.058 39.8 221.037 39.8107 221.015 39.832C220.994 39.832 220.973 39.832 220.951 39.832C220.866 39.8747 220.823 39.896 220.823 39.896C220.802 39.9173 220.749 39.928 220.663 39.928C220.642 39.928 220.61 39.9173 220.567 39.896C220.546 39.8747 220.525 39.8853 220.503 39.928C220.482 39.9707 220.471 40.056 220.471 40.184C220.471 40.312 220.439 40.3653 220.375 40.344C220.269 40.3013 220.215 40.2267 220.215 40.12C220.215 40.0133 220.226 39.928 220.247 39.864C220.205 39.9067 220.183 39.928 220.183 39.928C220.141 40.0133 220.119 40.056 220.119 40.056C220.098 40.0987 220.077 40.152 220.055 40.216C220.034 40.28 220.013 40.3333 219.991 40.376C219.927 40.504 219.895 40.6533 219.895 40.824C219.874 40.9307 219.853 41.048 219.831 41.176C219.831 41.304 219.831 41.432 219.831 41.56V41.72C219.831 41.8053 219.831 41.9013 219.831 42.008C219.831 42.0933 219.821 42.1893 219.799 42.296C219.799 42.5947 219.799 42.872 219.799 43.128C219.799 43.3627 219.81 43.5973 219.831 43.832V44.024C219.853 44.0667 219.863 44.1413 219.863 44.248C219.863 44.3547 219.874 44.4293 219.895 44.472C219.895 44.536 219.895 44.6 219.895 44.664C219.917 44.7067 219.927 44.76 219.927 44.824C219.949 44.8453 219.959 44.8773 219.959 44.92C219.959 44.9413 219.97 44.9733 219.991 45.016C220.077 45.2933 220.205 45.5067 220.375 45.656C220.418 45.6987 220.514 45.7413 220.663 45.784C220.706 45.8053 220.77 45.816 220.855 45.816C220.941 45.8373 221.015 45.848 221.079 45.848C221.143 45.848 221.218 45.848 221.303 45.848C221.346 45.8267 221.389 45.816 221.431 45.816C221.495 45.816 221.549 45.8053 221.591 45.784C221.655 45.7413 221.719 45.6987 221.783 45.656C221.869 45.6133 221.933 45.56 221.975 45.496C221.997 45.4533 222.018 45.4213 222.039 45.4C222.061 45.3787 222.082 45.3573 222.103 45.336L222.295 44.888C222.359 44.696 222.477 44.5467 222.647 44.44C222.69 44.376 222.743 44.344 222.807 44.344C222.893 44.3227 222.925 44.312 222.903 44.312C222.989 44.2693 223.063 44.248 223.127 44.248C223.298 44.2053 223.511 44.1947 223.767 44.216C224.045 44.2373 224.29 44.248 224.503 44.248H228.695C228.845 44.248 228.994 44.248 229.143 44.248C229.314 44.2267 229.474 44.2267 229.623 44.248C229.751 44.2907 229.847 44.3333 229.911 44.376L230.071 44.472C230.114 44.5147 230.135 44.5467 230.135 44.568Z" fill="black"/>
</svg>
