<svg width="240" height="80" viewBox="0 0 240 80" fill="none" xmlns="http://www.w3.org/2000/svg">
<path d="M33.9678 29.4C33.9678 29.5493 33.9464 29.6987 33.9038 29.848C33.8824 29.9973 33.8611 30.1573 33.8398 30.328L33.6478 31.544C33.6264 31.928 33.5838 32.3227 33.5198 32.728C33.4771 33.1333 33.4131 33.496 33.3278 33.816L32.5598 39.128L32.4638 39.992V40.088C32.4424 40.3013 32.4211 40.5147 32.3998 40.728C32.3784 40.9413 32.3464 41.1547 32.3038 41.368C32.2824 41.688 32.2504 42.0187 32.2078 42.36C32.1651 42.68 32.1224 42.9893 32.0798 43.288C31.9944 44.0987 31.8984 44.8027 31.7918 45.4C31.7064 45.976 31.6104 46.3387 31.5038 46.488C31.5038 46.5307 31.4931 46.584 31.4718 46.648C31.4718 46.6907 31.4718 46.7333 31.4718 46.776C31.4291 47.0533 31.3864 47.32 31.3438 47.576C31.3224 47.832 31.2904 48.0667 31.2478 48.28C31.2478 48.3013 31.2371 48.3333 31.2158 48.376C31.2158 48.3973 31.2158 48.4293 31.2158 48.472L31.1838 48.696C31.1624 48.888 31.1411 49.0907 31.1198 49.304C31.0984 49.5173 31.0558 49.72 30.9918 49.912C30.9918 49.976 30.9704 50.0507 30.9278 50.136C30.9064 50.1787 30.8851 50.2213 30.8638 50.264C30.8424 50.3067 30.8211 50.3493 30.7998 50.392C30.7784 50.4133 30.7571 50.4453 30.7358 50.488C30.7144 50.5093 30.6824 50.5307 30.6398 50.552C30.5544 50.6373 30.4798 50.7013 30.4158 50.744C30.3518 50.8293 30.3091 50.9147 30.2878 51C30.2878 51.064 30.2878 51.096 30.2878 51.096C30.2664 51.1173 30.2558 51.1493 30.2558 51.192C30.2558 51.256 30.2344 51.32 30.1918 51.384C30.1704 51.4693 30.1384 51.544 30.0958 51.608C30.0531 51.6933 30.0104 51.7893 29.9678 51.896C29.9464 51.9813 29.9038 52.0667 29.8398 52.152C29.7971 52.2373 29.7544 52.3333 29.7118 52.44L29.6158 52.632C29.5944 52.6533 29.5731 52.6747 29.5518 52.696C29.5518 52.7173 29.5411 52.7387 29.5198 52.76C29.4344 52.9307 29.3171 53.08 29.1678 53.208C29.0184 53.336 28.8691 53.4747 28.7198 53.624L28.5918 53.816C28.4851 53.9653 28.3891 54.136 28.3038 54.328C28.2184 54.52 28.1224 54.7013 28.0158 54.872C27.9944 54.8933 27.9624 54.936 27.9198 55C27.8771 55.0853 27.8238 55.128 27.7598 55.128C27.6744 55.128 27.5891 55.0533 27.5038 54.904C27.4824 54.8613 27.4611 54.8187 27.4398 54.776C27.4184 54.7333 27.3971 54.6907 27.3758 54.648C27.2904 54.456 27.2158 54.2747 27.1518 54.104C27.0878 53.9333 27.0344 53.784 26.9918 53.656C26.9704 53.592 26.9384 53.5387 26.8958 53.496C26.8531 53.4533 26.8318 53.432 26.8318 53.432C26.8531 53.4533 26.8531 53.4427 26.8318 53.4C26.8104 53.3787 26.7891 53.3573 26.7678 53.336C26.7678 53.336 26.7464 53.3147 26.7038 53.272C26.6824 53.272 26.6718 53.2613 26.6718 53.24C26.6718 53.24 26.6611 53.24 26.6398 53.24C26.6184 53.432 26.6291 53.8053 26.6718 54.36C26.7144 54.936 26.7571 55.5653 26.7998 56.248C26.8638 56.952 26.9064 57.6133 26.9278 58.232C26.9491 58.8507 26.9278 59.32 26.8638 59.64C26.7998 59.9813 26.6718 60.056 26.4798 59.864C26.2451 59.6293 26.1064 59.192 26.0638 58.552C26.0211 57.9333 26.0318 57.24 26.0958 56.472C26.1598 55.7253 26.2238 55.032 26.2878 54.392C26.3518 53.7733 26.3731 53.336 26.3518 53.08C26.3091 53.0373 26.2878 53.016 26.2878 53.016C26.2878 53.016 26.2771 53.016 26.2558 53.016C26.2558 53.016 26.2558 53.0053 26.2558 52.984C26.2344 52.9627 26.2024 52.92 26.1597 52.856C26.1384 52.8133 26.1171 52.7813 26.0958 52.76C25.9891 52.4827 25.9038 52.2373 25.8398 52.024C25.8184 51.9173 25.7864 51.8 25.7438 51.672C25.7011 51.544 25.6584 51.416 25.6158 51.288C25.5944 51.2667 25.5838 51.2133 25.5838 51.128C25.5624 51.1493 25.5304 51.1813 25.4878 51.224C25.4664 51.2667 25.4344 51.2667 25.3918 51.224C25.3704 51.2453 25.3598 51.256 25.3598 51.256C25.3598 51.2773 25.3598 51.288 25.3598 51.288C25.3171 51.3733 25.2744 51.4267 25.2318 51.448C25.1891 51.4907 25.1464 51.512 25.1038 51.512C25.0611 51.5973 25.0398 51.6933 25.0398 51.8C25.0398 51.9067 25.0184 52.0027 24.9757 52.088C24.9544 52.1093 24.9224 52.1093 24.8798 52.088C24.8584 52.088 24.8478 52.0773 24.8478 52.056C24.8051 51.9493 24.7838 51.832 24.7838 51.704C24.7838 51.5973 24.7624 51.48 24.7198 51.352C24.6984 51.352 24.6878 51.3413 24.6878 51.32C24.6878 51.32 24.6771 51.32 24.6558 51.32C24.6558 51.2987 24.6451 51.288 24.6238 51.288C24.5598 51.2453 24.4958 51.192 24.4318 51.128C24.3891 51.0853 24.3464 51.0427 24.3038 51C24.2824 50.9573 24.2504 50.9147 24.2078 50.872C24.1651 50.8293 24.1224 50.7867 24.0798 50.744C24.0584 50.7013 24.0264 50.6587 23.9838 50.616C23.9411 50.5733 23.8984 50.5307 23.8558 50.488C23.8131 50.424 23.7704 50.3493 23.7278 50.264C23.6638 50.1573 23.5998 50.04 23.5358 49.912C23.4931 49.784 23.4504 49.656 23.4078 49.528L23.3118 49.272C23.3118 49.2507 23.3011 49.24 23.2798 49.24C23.2798 49.24 23.2798 49.2293 23.2798 49.208C23.2371 49.1227 23.2158 49.0587 23.2158 49.016C23.1944 48.9947 23.1838 48.9627 23.1838 48.92L23.0878 48.728C22.9811 48.4933 22.8958 48.28 22.8318 48.088C22.7464 47.896 22.6611 47.6933 22.5758 47.48C22.4904 47.2453 22.4051 47.0213 22.3198 46.808L22.1918 46.456C22.0424 46.1147 21.8931 45.7733 21.7438 45.432C21.6158 45.0907 21.4878 44.7493 21.3598 44.408L21.2638 44.12L21.1678 43.928L21.0718 43.704C21.0718 43.6827 21.0718 43.6507 21.0718 43.608C21.0718 43.544 21.0504 43.576 21.0078 43.704C20.9864 43.7253 20.9651 43.7573 20.9438 43.8C20.9438 43.8427 20.9331 43.8853 20.9118 43.928L20.6878 44.472L20.3998 45.208C20.3998 45.208 20.3998 45.2187 20.3998 45.24C20.3998 45.24 20.3891 45.24 20.3678 45.24C20.3038 45.432 20.2291 45.624 20.1438 45.816C20.0798 46.008 20.0051 46.2 19.9198 46.392C19.9198 46.4133 19.9091 46.424 19.8878 46.424C19.8878 46.424 19.8878 46.4347 19.8878 46.456L19.6958 46.936C19.6104 47.192 19.5144 47.448 19.4078 47.704C19.3224 47.9387 19.2264 48.1733 19.1198 48.408C19.0131 48.7493 18.8958 49.08 18.7678 49.4C18.6611 49.72 18.5331 49.9973 18.3838 50.232C18.3624 50.2533 18.3198 50.3067 18.2558 50.392C18.2131 50.4773 18.2024 50.5093 18.2238 50.488C18.1598 50.5947 18.0531 50.7013 17.9038 50.808C17.8611 51 17.8184 51.192 17.7758 51.384C17.7331 51.5973 17.6798 51.7893 17.6158 51.96C17.5731 52.1093 17.5091 52.2587 17.4238 52.408C17.3598 52.5787 17.2851 52.7493 17.1998 52.92L16.8798 53.624C16.7944 53.8373 16.7091 54.0507 16.6238 54.264C16.5598 54.4987 16.4851 54.7333 16.3998 54.968C16.3784 55.0107 16.3571 55.0533 16.3358 55.096C16.3144 55.16 16.2931 55.2133 16.2718 55.256C16.2718 55.2773 16.2504 55.3307 16.2078 55.416C16.2078 55.48 16.1864 55.5333 16.1438 55.576C16.1011 55.6187 16.0798 55.64 16.0798 55.64L16.0478 55.672C16.0478 55.6933 16.0371 55.704 16.0158 55.704C15.9944 55.704 15.9838 55.704 15.9838 55.704C15.9838 55.7253 15.9731 55.736 15.9518 55.736C15.9304 55.9707 15.9518 56.2693 16.0158 56.632C16.1011 57.016 16.1651 57.3893 16.2078 57.752C16.2718 58.1147 16.2824 58.392 16.2398 58.584C16.1971 58.7973 16.0584 58.8613 15.8238 58.776C15.5038 58.648 15.3438 58.392 15.3438 58.008C15.3651 57.6453 15.4398 57.24 15.5677 56.792C15.6958 56.3653 15.7491 55.992 15.7278 55.672L15.5677 55.416V55.384C15.5251 55.3413 15.5038 55.32 15.5038 55.32C15.4611 55.2133 15.4078 55.096 15.3438 54.968C15.3011 54.8613 15.2478 54.7547 15.1838 54.648L15.0558 54.52C15.0131 54.456 14.9491 54.4027 14.8638 54.36C14.7998 54.3173 14.7464 54.264 14.7038 54.2C14.7038 54.2 14.6824 54.1787 14.6398 54.136C14.6184 54.1147 14.5971 54.0933 14.5758 54.072C14.5544 54.0507 14.5224 54.0293 14.4798 54.008C14.4371 53.9227 14.4158 53.88 14.4158 53.88C14.2024 53.6027 14.0424 53.2933 13.9358 52.952C13.8504 52.632 13.7544 52.3333 13.6478 52.056L13.5518 51.832C13.5304 51.768 13.4984 51.6933 13.4558 51.608C13.4131 51.544 13.3704 51.48 13.3278 51.416C13.2851 51.3733 13.2531 51.3307 13.2318 51.288C13.2104 51.2453 13.1891 51.2133 13.1678 51.192C13.1464 51.1707 13.1144 51.1493 13.0718 51.128L12.9118 51.064C12.8904 51.064 12.8691 51.0533 12.8478 51.032C12.8264 51.032 12.7944 51.032 12.7518 51.032C12.6878 51.1173 12.6558 51.288 12.6558 51.544C12.6771 51.8213 12.7091 52.088 12.7518 52.344C12.7944 52.6 12.8051 52.7707 12.7838 52.856C12.7838 52.9627 12.7731 53.112 12.7518 53.304C12.7304 53.496 12.7091 53.656 12.6878 53.784C12.6878 53.912 12.6771 53.9227 12.6558 53.816C12.5704 53.4533 12.5384 53.0693 12.5598 52.664C12.6024 52.28 12.5918 51.896 12.5278 51.512L12.4318 51.192C12.4104 51.1493 12.3998 51.1067 12.3998 51.064C12.3998 51.0427 12.3891 51.0213 12.3678 51C12.3251 51 12.2931 50.9893 12.2718 50.968C12.2078 50.968 12.1118 50.9467 11.9838 50.904C11.9624 50.904 11.9411 50.904 11.9198 50.904C11.9198 50.8827 11.9091 50.872 11.8878 50.872C11.8878 50.872 11.8771 50.872 11.8558 50.872C11.8558 50.872 11.8558 50.8613 11.8558 50.84C11.7918 50.84 11.7491 50.8293 11.7278 50.808C11.6211 50.744 11.5144 50.648 11.4078 50.52C11.3224 50.392 11.2478 50.2747 11.1838 50.168C11.1198 50.04 11.0771 49.8907 11.0558 49.72C11.0344 49.592 11.0131 49.464 10.9918 49.336C10.9704 49.208 10.9491 49.08 10.9278 48.952L10.8958 48.6C10.8744 48.472 10.8531 48.344 10.8318 48.216C10.8104 48.088 10.7891 47.96 10.7678 47.832L10.6398 46.872C10.5331 46.7013 10.4264 46.2853 10.3198 45.624C10.2131 44.9627 10.1064 44.184 9.99975 43.288C9.95708 43.032 9.91442 42.6907 9.87175 42.264C9.82908 41.8373 9.78642 41.3893 9.74375 40.92C9.72242 40.792 9.70108 40.664 9.67975 40.536C9.67975 40.408 9.67975 40.28 9.67975 40.152L8.75175 33.784C8.75175 33.7627 8.74108 33.752 8.71975 33.752C8.71975 33.752 8.71975 33.7413 8.71975 33.72C8.69842 33.5707 8.67708 33.4213 8.65575 33.272C8.63442 33.1013 8.61308 32.9413 8.59175 32.792L8.39975 31.448L8.17575 29.784C8.15442 29.7413 8.14375 29.6987 8.14375 29.656L8.11175 29.304C8.11175 29.112 8.17575 28.952 8.30375 28.824C8.45308 28.6747 8.62375 28.6 8.81575 28.6H14.1278C14.3838 28.6 14.6718 28.6 14.9918 28.6C15.3331 28.6 15.5891 28.7173 15.7598 28.952C15.8024 29.016 15.8344 29.08 15.8558 29.144C15.8771 29.208 15.8878 29.272 15.8878 29.336C15.9091 29.3573 15.9198 29.4 15.9198 29.464L15.9838 29.944C15.9838 29.9867 15.9838 30.0293 15.9838 30.072C16.0051 30.1147 16.0158 30.1573 16.0158 30.2L16.0798 30.776C16.1224 30.9893 16.1544 31.2133 16.1758 31.448C16.1971 31.6827 16.2184 31.928 16.2398 32.184L16.4958 34.232C16.5384 34.5307 16.5811 34.872 16.6238 35.256C16.6878 35.6187 16.7304 35.9813 16.7517 36.344L16.9758 38.328C16.9971 38.328 17.0184 38.328 17.0398 38.328C17.0611 38.2427 17.0718 38.2107 17.0718 38.232C17.1144 38.104 17.1571 37.976 17.1998 37.848C17.2638 37.6987 17.3171 37.5493 17.3598 37.4C17.3811 37.336 17.4024 37.2827 17.4238 37.24C17.4451 37.176 17.4664 37.112 17.4878 37.048L18.1918 34.872C18.2771 34.5093 18.4051 34.2107 18.5758 33.976C18.6398 33.8907 18.7144 33.816 18.7998 33.752C18.9278 33.624 19.1304 33.56 19.4078 33.56H19.7918C20.2824 33.56 20.7624 33.5493 21.2318 33.528C21.7224 33.5067 22.2024 33.5173 22.6718 33.56C23.0558 33.56 23.3224 33.6773 23.4718 33.912C23.6211 34.1467 23.7171 34.3387 23.7598 34.488L25.0078 38.232C25.0078 38.296 25.0291 38.3707 25.0718 38.456C25.1144 38.52 25.1144 38.4773 25.0718 38.328C25.0931 38.2853 25.1038 38.232 25.1038 38.168C25.1038 38.104 25.1144 38.0507 25.1358 38.008C25.1358 37.88 25.1358 37.7627 25.1358 37.656C25.1571 37.528 25.1784 37.4 25.1998 37.272C25.2424 37.1013 25.2638 36.9413 25.2638 36.792C25.2851 36.6213 25.3064 36.4507 25.3278 36.28L25.4237 35.448C25.4664 35.0427 25.5091 34.648 25.5518 34.264C25.5944 33.88 25.6371 33.56 25.6798 33.304C25.7224 32.92 25.7651 32.568 25.8078 32.248C25.8504 31.928 25.8824 31.672 25.9038 31.48L26.0958 29.976V29.816C26.1171 29.6667 26.1384 29.528 26.1597 29.4C26.1811 29.2507 26.2238 29.1227 26.2878 29.016C26.3518 28.888 26.4478 28.792 26.5758 28.728C26.7464 28.6427 26.9598 28.6 27.2158 28.6C27.3438 28.5787 27.4718 28.5787 27.5998 28.6C27.7278 28.6 27.8451 28.6 27.9518 28.6H32.7518C32.8584 28.6 32.9651 28.6 33.0718 28.6C33.1998 28.5787 33.3171 28.5787 33.4238 28.6C33.6158 28.664 33.7651 28.7813 33.8718 28.952C33.8718 28.952 33.8718 28.9627 33.8718 28.984C33.8931 28.984 33.9038 28.9947 33.9038 29.016C33.9251 29.08 33.9358 29.1333 33.9358 29.176C33.9571 29.2187 33.9678 29.2933 33.9678 29.4ZM21.0718 43.704C21.0718 43.7467 21.0718 43.7467 21.0718 43.704V43.704ZM40.478 33.656C40.222 33.6987 39.9553 33.6667 39.678 33.56C39.422 33.4533 39.166 33.3253 38.91 33.176C38.846 33.1547 38.7713 33.1333 38.686 33.112C38.622 33.0693 38.5473 33.0373 38.462 33.016C38.2913 32.9733 38.11 32.9307 37.918 32.888C37.7473 32.824 37.5767 32.76 37.406 32.696C37.342 32.6747 37.278 32.664 37.214 32.664C37.1713 32.6427 37.118 32.6213 37.054 32.6L36.798 32.504C36.7767 32.4613 36.7447 32.4293 36.702 32.408C36.6807 32.3867 36.6487 32.3653 36.606 32.344C36.4567 32.1947 36.3713 32.0347 36.35 31.864V28.6C36.35 28.408 36.3393 28.1947 36.318 27.96C36.318 27.7253 36.382 27.5227 36.51 27.352L36.702 27.16C36.766 27.1173 36.862 27.0747 36.99 27.032C37.1607 26.9893 37.3313 26.968 37.502 26.968C37.694 26.968 37.8647 26.9787 38.014 27H41.63C41.822 26.9787 42.014 26.968 42.206 26.968C42.4193 26.9467 42.622 26.9573 42.814 27C42.8353 27 42.846 27.0107 42.846 27.032C42.846 27.032 42.8567 27.032 42.878 27.032C42.8993 27.032 42.9527 27.0533 43.038 27.096C43.1447 27.1387 43.23 27.2133 43.294 27.32C43.4007 27.448 43.454 27.5653 43.454 27.672C43.4753 27.7787 43.486 27.864 43.486 27.928C43.5073 28.0133 43.518 28.0987 43.518 28.184C43.518 28.248 43.518 28.3227 43.518 28.408C43.518 28.856 43.5073 29.3147 43.486 29.784C43.486 30.2533 43.486 30.712 43.486 31.16V31.736C43.486 31.8427 43.4753 31.928 43.454 31.992C43.4327 32.0987 43.3687 32.2053 43.262 32.312L43.134 32.44C43.0913 32.4827 43.0487 32.504 43.006 32.504C42.9847 32.5253 42.9633 32.5573 42.942 32.6C42.942 32.6427 42.9207 32.6747 42.878 32.696C42.878 32.696 42.8567 32.696 42.814 32.696C42.7713 32.6747 42.7287 32.664 42.686 32.664C42.6433 32.664 42.59 32.6747 42.526 32.696C42.462 32.7173 42.4087 32.7387 42.366 32.76C42.3233 32.7813 42.27 32.8027 42.206 32.824C42.142 32.824 42.0887 32.8347 42.046 32.856C42.0033 32.856 41.9713 32.8667 41.95 32.888C41.8007 32.952 41.6513 33.0373 41.502 33.144C41.3527 33.2507 41.1927 33.3573 41.022 33.464C40.8513 33.5493 40.67 33.6133 40.478 33.656ZM43.614 50.424C43.5927 50.4453 43.582 50.4667 43.582 50.488C43.582 50.5093 43.5713 50.5307 43.55 50.552V50.584C43.5073 50.6267 43.4647 50.6693 43.422 50.712C43.3793 50.7547 43.3367 50.7973 43.294 50.84C43.294 50.84 43.2833 50.8507 43.262 50.872C43.262 50.872 43.2513 50.872 43.23 50.872C43.23 50.872 43.2193 50.8827 43.198 50.904C43.198 50.904 43.1873 50.904 43.166 50.904C43.1233 50.9467 43.0807 51.0107 43.038 51.096C43.0167 51.1173 42.9953 51.1493 42.974 51.192C42.974 51.2347 42.9527 51.2667 42.91 51.288C42.8247 51.3947 42.7393 51.4907 42.654 51.576C42.5687 51.6827 42.4833 51.7893 42.398 51.896V51.928H42.366C42.366 51.9493 42.3447 51.9813 42.302 52.024L41.886 52.728C41.7793 52.92 41.6513 53.0587 41.502 53.144C41.4167 53.1867 41.374 53.208 41.374 53.208C41.3527 53.3787 41.3633 53.5813 41.406 53.816C41.4487 54.072 41.47 54.2853 41.47 54.456C41.47 54.648 41.3953 54.7227 41.246 54.68C41.0753 54.6373 40.99 54.52 40.99 54.328C40.99 54.1573 41.0113 53.9547 41.054 53.72C41.118 53.5067 41.1393 53.3147 41.118 53.144C41.0967 53.144 41.054 53.112 40.99 53.048C40.926 52.984 40.8727 52.9093 40.83 52.824C40.7873 52.76 40.7447 52.6853 40.702 52.6C40.638 52.536 40.5953 52.4827 40.574 52.44L40.286 52.152C40.2647 52.3013 40.2647 52.5147 40.286 52.792C40.3287 53.0693 40.2967 53.1653 40.19 53.08C40.0407 52.9733 39.998 52.8133 40.062 52.6C40.126 52.3867 40.1367 52.1947 40.094 52.024C40.0727 51.9813 40.0407 51.9493 39.998 51.928C39.9767 51.9067 39.9447 51.8747 39.902 51.832L39.678 51.608C39.6353 51.544 39.5713 51.4693 39.486 51.384C39.4433 51.5973 39.422 51.8213 39.422 52.056C39.422 52.2907 39.4007 52.5253 39.358 52.76C39.3367 52.7813 39.3153 52.7707 39.294 52.728C39.2727 52.6853 39.2513 52.6533 39.23 52.632C39.166 52.5467 39.102 52.472 39.038 52.408C38.9953 52.344 38.9313 52.2907 38.846 52.248C38.7393 52.2053 38.6327 52.1947 38.526 52.216C38.4193 52.2373 38.3127 52.2053 38.206 52.12C38.1207 52.056 38.046 51.9813 37.982 51.896C37.9393 51.832 37.886 51.7573 37.822 51.672C37.8007 51.672 37.7793 51.6613 37.758 51.64C37.7367 51.6187 37.7153 51.6293 37.694 51.672C37.6727 52.0347 37.6513 52.408 37.63 52.792C37.63 53.176 37.6087 53.56 37.566 53.944C37.566 53.9867 37.5447 53.9547 37.502 53.848C37.4807 53.7627 37.4593 53.6987 37.438 53.656C37.3953 53.528 37.3527 53.3787 37.31 53.208C37.2673 53.0587 37.2247 52.92 37.182 52.792C37.0967 52.4933 37.0433 52.2907 37.022 52.184C37.022 52.0773 37.022 51.992 37.022 51.928C37.0433 51.864 37.0327 51.768 36.99 51.64C36.9687 51.5333 36.894 51.3093 36.766 50.968L36.574 50.872C36.4247 50.7653 36.318 50.6373 36.254 50.488C36.2113 50.3387 36.19 50.1893 36.19 50.04C36.1687 49.8907 36.158 49.7413 36.158 49.592C36.1793 49.4213 36.19 49.2613 36.19 49.112V35.224C36.19 35.1173 36.2007 35.032 36.222 34.968C36.2647 34.84 36.3073 34.7547 36.35 34.712L36.542 34.52C36.6273 34.456 36.766 34.4027 36.958 34.36C37.1713 34.3173 37.3847 34.3067 37.598 34.328C37.8327 34.3493 38.0353 34.36 38.206 34.36H41.374C41.63 34.36 41.886 34.3493 42.142 34.328C42.4193 34.3067 42.686 34.3173 42.942 34.36C42.9847 34.36 43.0273 34.3707 43.07 34.392C43.1127 34.4133 43.1553 34.4347 43.198 34.456C43.262 34.4773 43.3047 34.4987 43.326 34.52C43.39 34.584 43.4327 34.6373 43.454 34.68C43.5393 34.7653 43.6033 34.904 43.646 35.096C43.6673 35.1813 43.6673 35.288 43.646 35.416C43.646 35.5227 43.646 35.6293 43.646 35.736C43.6673 36.1413 43.6673 36.5467 43.646 36.952C43.646 37.336 43.646 37.7307 43.646 38.136V49.24C43.646 49.3253 43.646 49.4107 43.646 49.496C43.646 49.5813 43.6567 49.6773 43.678 49.784C43.678 49.8693 43.678 49.9547 43.678 50.04C43.678 50.1253 43.6567 50.2533 43.614 50.424ZM65.1258 50.168V50.36C65.1044 50.4027 65.0938 50.4453 65.0938 50.488C65.0938 50.5307 65.0724 50.5733 65.0298 50.616L64.9978 50.648C64.9978 50.648 64.9338 50.712 64.8058 50.84C64.7844 51.096 64.7631 51.352 64.7418 51.608C64.7418 51.8853 64.7204 52.1627 64.6778 52.44C64.6564 52.5893 64.6351 52.7493 64.6138 52.92C64.6138 53.0907 64.5924 53.2613 64.5498 53.432C64.5498 53.4747 64.5391 53.528 64.5178 53.592C64.5178 53.6773 64.4964 53.7093 64.4538 53.688C64.3898 53.624 64.3471 53.5493 64.3258 53.464C64.3258 53.3787 64.3258 53.2933 64.3258 53.208C64.2618 52.8453 64.2298 52.5573 64.2298 52.344C64.2511 52.152 64.2084 51.8853 64.1018 51.544C64.0378 51.608 63.9951 51.6293 63.9738 51.608C63.9311 51.5227 63.9097 51.4587 63.9097 51.416C63.8884 51.416 63.8778 51.416 63.8778 51.416C63.8778 51.4373 63.8778 51.448 63.8778 51.448C63.8564 51.4907 63.8244 51.5333 63.7818 51.576C63.7391 51.64 63.6964 51.704 63.6538 51.768L63.5258 51.992C63.3978 52.2907 63.2271 52.5573 63.0138 52.792L62.9498 52.856C62.8858 52.92 62.8111 52.9733 62.7257 53.016C62.6404 53.1227 62.5444 53.2613 62.4378 53.432C62.3524 53.6027 62.2244 53.688 62.0538 53.688C61.8831 53.688 61.7444 53.5813 61.6378 53.368C61.5311 53.176 61.4138 53.0373 61.2858 52.952C61.2218 52.9093 61.1578 52.888 61.0938 52.888C61.0298 52.9093 60.9658 52.9093 60.9018 52.888C60.8378 52.8667 60.7738 52.8347 60.7098 52.792C60.6458 52.7707 60.5818 52.7493 60.5178 52.728C60.4324 52.6853 60.3791 52.664 60.3578 52.664C60.3578 52.6853 60.3258 52.6747 60.2618 52.632C60.1978 52.5893 60.1338 52.536 60.0698 52.472C60.0271 52.408 59.9844 52.3547 59.9418 52.312C59.7924 52.1413 59.6431 51.9493 59.4938 51.736C59.3658 51.544 59.1951 51.3733 58.9818 51.224C58.9604 51.2453 58.8751 51.2347 58.7258 51.192C58.7044 51.2133 58.6938 51.3413 58.6938 51.576C58.6938 51.832 58.6084 51.9173 58.4378 51.832C58.3524 51.7893 58.2778 51.704 58.2138 51.576C58.1498 51.4693 58.0964 51.3733 58.0538 51.288L57.9578 51.096L57.7658 51C57.7658 51.0427 57.7658 51.0853 57.7658 51.128C57.7871 51.192 57.7444 51.16 57.6378 51.032L57.5418 50.808C57.4564 50.7227 57.4031 50.6587 57.3818 50.616C57.3604 50.5733 57.3178 50.5307 57.2538 50.488C57.2111 50.424 57.2004 50.4027 57.2218 50.424C57.2218 50.4027 57.2111 50.392 57.1898 50.392L56.9658 50.008C56.9444 49.9867 56.9124 49.9547 56.8698 49.912C56.8271 49.848 56.8164 49.8267 56.8378 49.848L56.8058 49.816C56.7631 49.7093 56.7204 49.624 56.6778 49.56C56.6351 49.496 56.5924 49.4533 56.5498 49.432C56.5284 49.3893 56.5071 49.3573 56.4858 49.336C56.4858 49.3147 56.4751 49.2933 56.4538 49.272C56.3684 49.1653 56.2831 49.048 56.1978 48.92C56.1124 48.792 56.0271 48.664 55.9418 48.536C55.8351 48.3653 55.7284 48.2053 55.6218 48.056C55.5151 47.9067 55.4084 47.7573 55.3018 47.608L55.2058 47.448L55.1418 47.352L54.6938 47.992C54.6511 48.0347 54.6084 48.0987 54.5658 48.184L53.3177 49.944C53.2751 49.9867 53.2538 50.0187 53.2538 50.04C53.2111 50.0827 53.1684 50.1467 53.1258 50.232C53.0618 50.3173 52.9978 50.4133 52.9338 50.52C52.8698 50.6053 52.7951 50.68 52.7098 50.744C52.6671 50.7653 52.6244 50.7973 52.5818 50.84C52.5604 50.84 52.5284 50.8613 52.4858 50.904C52.3791 51.0533 52.2724 51.2133 52.1658 51.384C52.0591 51.5547 51.9524 51.7253 51.8458 51.896C51.8244 51.9813 51.7818 52.056 51.7178 52.12C51.6964 52.1413 51.6751 52.184 51.6538 52.248C51.6324 52.312 51.6111 52.3227 51.5898 52.28C51.5044 52.1947 51.4404 52.1307 51.3978 52.088C51.4831 52.1947 51.5578 52.312 51.6218 52.44C51.7071 52.568 51.6111 52.5787 51.3338 52.472C51.1844 52.408 51.1311 52.2587 51.1738 52.024C51.2378 51.7893 51.2484 51.5867 51.2058 51.416C51.0991 51.48 51.0138 51.5653 50.9498 51.672C50.8858 51.7787 50.8004 51.8747 50.6938 51.96C50.6724 52.024 50.6298 52.0667 50.5658 52.088C50.5018 52.152 50.4591 52.1733 50.4378 52.152C50.4164 52.0667 50.4058 51.9813 50.4058 51.896C50.4058 51.8107 50.3951 51.7253 50.3738 51.64C50.3738 51.64 50.3631 51.64 50.3418 51.64C50.3418 51.6613 50.3311 51.672 50.3098 51.672C50.3098 51.6933 50.2671 51.7253 50.1818 51.768C50.1178 51.8107 50.0858 51.8427 50.0858 51.864C50.0431 52.056 50.0218 52.248 50.0218 52.44C50.0218 52.6533 50.0004 52.856 49.9578 53.048C49.9364 53.0907 49.8724 53.112 49.7658 53.112C49.6591 53.112 49.5844 53.112 49.5418 53.112C49.4564 53.112 49.4138 53.112 49.4138 53.112C49.4138 53.1973 49.3284 53.208 49.1578 53.144C48.9658 53.0587 48.9124 52.8773 48.9978 52.6C49.0831 52.3227 49.1044 52.0773 49.0618 51.864C49.0618 51.8427 49.0404 51.8213 48.9978 51.8C48.9764 51.7787 48.9658 51.7787 48.9658 51.8C48.9018 51.992 48.8698 52.1413 48.8698 52.248C48.8484 52.1627 48.8271 52.0667 48.8058 51.96C48.8058 51.8747 48.7844 51.768 48.7418 51.64C48.7418 51.5973 48.7204 51.576 48.6778 51.576C48.6138 51.5973 48.5818 51.5547 48.5818 51.448C48.5178 51.3627 48.4431 51.288 48.3578 51.224C48.3364 51.2667 48.3258 51.32 48.3258 51.384C48.3258 51.448 48.3151 51.512 48.2938 51.576C48.2724 51.64 48.2511 51.704 48.2298 51.768C48.2084 51.8533 48.1871 51.928 48.1658 51.992C48.1444 52.056 48.1231 52.12 48.1018 52.184C48.0804 52.248 48.0591 52.312 48.0378 52.376C47.9738 52.5253 47.8778 52.7067 47.7498 52.92C47.6431 53.1547 47.4831 53.272 47.2698 53.272C47.1204 53.2507 47.0031 53.1653 46.9178 53.016C46.8538 52.888 46.8004 52.7813 46.7578 52.696C46.6511 52.44 46.5444 52.184 46.4378 51.928C46.3311 51.672 46.2138 51.416 46.0858 51.16C46.0644 51.224 46.0324 51.256 45.9898 51.256C45.9471 51.2773 45.9258 51.2347 45.9258 51.128C45.8831 51.0853 45.8618 51.0427 45.8618 51C45.8404 51 45.8191 51 45.7978 51C45.7978 50.9787 45.7764 50.968 45.7338 50.968L45.4458 50.776L45.3818 50.712C45.2751 50.584 45.2218 50.424 45.2218 50.232C45.2218 50.1253 45.2431 50.0293 45.2858 49.944C45.3284 49.8587 45.3818 49.7733 45.4458 49.688L45.6058 49.432L45.7658 49.24C45.8084 49.1547 45.8511 49.08 45.8938 49.016C45.9578 48.9307 46.0218 48.856 46.0858 48.792C46.0858 48.7493 46.1178 48.696 46.1818 48.632L47.6538 46.52C47.7178 46.4347 47.7711 46.3493 47.8138 46.264C47.8778 46.1573 47.9311 46.0613 47.9738 45.976C48.1444 45.6773 48.3151 45.4 48.4858 45.144C48.6778 44.888 48.8591 44.6533 49.0298 44.44C49.0724 44.376 49.1258 44.312 49.1898 44.248C49.2538 44.184 49.3178 44.12 49.3818 44.056C49.4244 43.992 49.4671 43.9387 49.5098 43.896C49.5524 43.832 49.5844 43.7787 49.6058 43.736L50.1498 42.968C50.1498 42.9467 50.1604 42.936 50.1818 42.936L50.3418 42.712C50.3418 42.6693 50.3524 42.6373 50.3738 42.616C50.4164 42.5733 50.4484 42.5413 50.4698 42.52C50.4698 42.4987 50.4911 42.4667 50.5338 42.424C50.5764 42.3813 50.5764 42.3813 50.5338 42.424L50.3418 42.136C50.3204 42.0933 50.2884 42.0507 50.2458 42.008L49.5418 40.952C49.3924 40.8027 49.2538 40.632 49.1258 40.44C49.0404 40.3333 48.9551 40.2267 48.8698 40.12C48.8058 39.992 48.7311 39.864 48.6458 39.736L48.1978 38.968C48.1551 38.8827 48.1124 38.808 48.0698 38.744L46.6938 36.696C46.6724 36.6533 46.6511 36.6107 46.6298 36.568C46.6084 36.5253 46.5764 36.4933 46.5338 36.472L46.0538 35.768C46.0111 35.6613 45.9684 35.5867 45.9258 35.544C45.8404 35.416 45.7978 35.2773 45.7978 35.128C45.7978 35.0427 45.8084 34.9893 45.8298 34.968C45.8298 34.904 45.8511 34.8293 45.8938 34.744C45.9151 34.7013 45.9364 34.6693 45.9578 34.648C45.9791 34.6267 46.0004 34.6053 46.0218 34.584C46.0858 34.5413 46.1498 34.4987 46.2138 34.456C46.2991 34.4133 46.3844 34.3813 46.4698 34.36C46.6191 34.3173 46.7684 34.3067 46.9178 34.328C47.0671 34.328 47.2164 34.3387 47.3658 34.36H51.2698C51.5044 34.36 51.7604 34.3493 52.0378 34.328C52.3151 34.3067 52.5711 34.3387 52.8058 34.424C52.9124 34.4453 53.0084 34.488 53.0938 34.552C53.1791 34.616 53.2324 34.6693 53.2538 34.712L53.3498 34.808L53.6058 35.16C53.6484 35.224 53.6804 35.288 53.7018 35.352C53.7444 35.3947 53.7764 35.4373 53.7978 35.48L53.9898 35.768C54.1178 35.9813 54.2458 36.184 54.3738 36.376C54.5018 36.568 54.6298 36.76 54.7578 36.952C54.8644 37.144 54.9284 37.2507 54.9498 37.272C54.9924 37.272 55.0671 37.4 55.1738 37.656L55.3018 37.816L55.4298 37.592C55.4724 37.5493 55.5044 37.5067 55.5258 37.464C55.5684 37.4213 55.6004 37.3787 55.6218 37.336C55.6431 37.2933 55.6644 37.2507 55.6858 37.208C55.7284 37.1653 55.7604 37.1227 55.7818 37.08L56.3258 36.216C56.3684 36.1733 56.4111 36.12 56.4538 36.056C56.4964 35.992 56.5284 35.9387 56.5498 35.896C56.5924 35.832 56.6351 35.768 56.6778 35.704C56.7204 35.6187 56.7631 35.544 56.8058 35.48L57.1258 34.968C57.1684 34.904 57.2111 34.8507 57.2538 34.808C57.2964 34.7653 57.3604 34.7013 57.4458 34.616C57.5098 34.5733 57.5844 34.5307 57.6698 34.488C57.7764 34.424 57.8938 34.3813 58.0218 34.36C58.1924 34.3387 58.3738 34.3387 58.5658 34.36C58.7578 34.36 58.9284 34.36 59.0778 34.36H62.7578C62.8644 34.36 63.0564 34.36 63.3338 34.36C63.6111 34.3387 63.8458 34.3493 64.0378 34.392C64.1444 34.4133 64.2191 34.456 64.2618 34.52C64.3044 34.5413 64.3258 34.5627 64.3258 34.584C64.3471 34.6053 64.3684 34.6267 64.3898 34.648C64.4538 34.712 64.4858 34.776 64.4858 34.84C64.5071 34.904 64.5178 34.936 64.5178 34.936C64.5391 34.9787 64.5498 35.032 64.5498 35.096C64.5498 35.16 64.5498 35.2133 64.5498 35.256C64.5284 35.32 64.5071 35.3733 64.4858 35.416C64.4644 35.4587 64.4431 35.5013 64.4218 35.544L64.1338 35.928C64.1124 35.992 64.0804 36.056 64.0378 36.12C63.9951 36.184 63.9524 36.2373 63.9097 36.28L63.5578 36.824L63.4938 36.888L62.2138 38.744C62.1924 38.7653 62.1711 38.7973 62.1498 38.84C62.1498 38.8827 62.1284 38.9253 62.0858 38.968C61.9364 39.2453 61.7658 39.5333 61.5738 39.832C61.4031 40.1093 61.2218 40.3547 61.0298 40.568C61.0084 40.632 60.9658 40.696 60.9018 40.76C60.8591 40.8027 60.8164 40.8453 60.7738 40.888L60.6138 41.08C60.5284 41.2293 60.4324 41.3787 60.3258 41.528C60.2191 41.6773 60.1124 41.8267 60.0058 41.976C60.0271 41.9547 59.9951 42.008 59.9098 42.136C59.8244 42.2427 59.7818 42.296 59.7818 42.296L59.7498 42.456C59.7711 42.456 59.7924 42.4773 59.8138 42.52C59.8351 42.5413 59.8351 42.5413 59.8138 42.52L60.0698 42.904L60.1978 43.064C60.5178 43.5333 60.8484 43.96 61.1898 44.344C61.4244 44.6427 61.6484 44.9627 61.8618 45.304C62.0751 45.624 62.2884 45.9547 62.5018 46.296L63.9738 48.376C64.1871 48.6107 64.3471 48.8453 64.4538 49.08C64.4964 49.1227 64.5391 49.176 64.5818 49.24C64.6244 49.2827 64.6671 49.336 64.7098 49.4C64.7524 49.464 64.8058 49.5387 64.8698 49.624C64.9551 49.688 65.0084 49.7627 65.0298 49.848C65.0938 49.9333 65.1258 50.04 65.1258 50.168ZM91.3475 46.744C91.3475 47.1707 91.3582 47.672 91.3795 48.248C91.4008 48.8027 91.4008 49.3147 91.3795 49.784C91.3795 49.8907 91.3795 49.9973 91.3795 50.104C91.3795 50.2107 91.3582 50.3173 91.3155 50.424C91.3155 50.4453 91.3048 50.4667 91.2835 50.488C91.2622 50.5733 91.2195 50.648 91.1555 50.712C91.0915 50.7547 91.0275 50.7973 90.9635 50.84C90.9422 50.8827 90.8995 50.9253 90.8355 50.968C90.7928 51.0107 90.7502 51.064 90.7075 51.128C90.6862 51.1707 90.6542 51.224 90.6115 51.288C90.5688 51.352 90.5262 51.416 90.4835 51.48C90.4622 51.5013 90.4408 51.5227 90.4195 51.544C90.3982 51.5653 90.3768 51.5973 90.3555 51.64C90.2488 51.768 90.1315 51.896 90.0035 52.024C89.8968 52.152 89.7902 52.2907 89.6835 52.44L89.4595 52.76C89.3742 52.8667 89.2995 52.9733 89.2355 53.08C89.1715 53.1867 89.0968 53.2933 89.0115 53.4C88.9688 53.4427 88.9475 53.464 88.9475 53.464C88.8835 53.5493 88.7662 53.6453 88.5955 53.752C88.5742 53.7733 88.5528 53.784 88.5315 53.784C88.5102 53.8053 88.4782 53.8267 88.4355 53.848C88.3928 53.8693 88.3395 53.912 88.2755 53.976C88.2115 54.04 88.1475 54.0827 88.0835 54.104C87.9982 54.1253 87.9022 54.104 87.7955 54.04C87.7102 53.9973 87.6355 53.9547 87.5715 53.912C87.5288 53.8693 87.4968 53.848 87.4755 53.848C87.5182 53.8053 87.4862 53.8267 87.3795 53.912C87.2942 53.9973 87.2302 54.0613 87.1875 54.104C87.1448 54.552 87.1235 55 87.1235 55.448C87.1235 55.9173 87.1022 56.3867 87.0595 56.856C87.0382 57.048 87.0595 57.2827 87.1235 57.56C87.1875 57.8373 87.1235 57.9973 86.9315 58.04C86.7395 58.0613 86.6648 57.9227 86.7075 57.624C86.7715 57.3253 86.8035 57.08 86.8035 56.888C86.7822 56.3973 86.7608 55.9173 86.7395 55.448C86.7395 54.9787 86.7182 54.5093 86.6755 54.04C86.6542 54.0187 86.6435 53.9973 86.6435 53.976C86.6222 53.976 86.6008 53.9653 86.5795 53.944L86.4195 53.688C86.3342 53.5173 86.2382 53.336 86.1315 53.144C86.0462 52.952 85.9502 52.7707 85.8435 52.6L85.3635 51.768C85.3422 51.6827 85.3102 51.5973 85.2675 51.512C85.2248 51.448 85.1822 51.3627 85.1395 51.256L85.1075 51.224C85.0862 51.352 85.0755 51.48 85.0755 51.608C85.0755 51.7573 85.0542 51.896 85.0115 52.024C84.9902 52.0453 84.9688 52.088 84.9475 52.152C84.9262 52.216 84.9048 52.2373 84.8835 52.216C84.8622 52.1093 84.8408 51.992 84.8195 51.864C84.8195 51.7573 84.8195 51.6613 84.8195 51.576C84.7342 51.7467 84.6808 51.864 84.6595 51.928C84.5955 52.0773 84.5315 52.2267 84.4675 52.376C84.4035 52.5467 84.3288 52.7173 84.2435 52.888C84.1795 53.0373 84.0728 53.2293 83.9235 53.464C83.9235 53.4853 83.9128 53.496 83.8915 53.496C83.8702 53.5387 83.8168 53.6027 83.7315 53.688C83.6888 53.7307 83.6568 53.752 83.6355 53.752C83.5928 53.9013 83.5608 54.0507 83.5395 54.2C83.5395 54.3707 83.5288 54.5413 83.5075 54.712C83.4862 54.8187 83.4648 54.9147 83.4435 55C83.4222 55.1067 83.4008 55.2133 83.3795 55.32C83.3582 55.3627 83.3262 55.4267 83.2835 55.512C83.2622 55.6187 83.2408 55.6507 83.2195 55.608C83.1768 55.3733 83.1875 55.1067 83.2515 54.808C83.3155 54.5307 83.2622 54.3173 83.0915 54.168C83.0275 54.104 82.9955 54.136 82.9955 54.264C82.9955 54.392 83.0062 54.552 83.0275 54.744C83.0702 54.936 83.0915 55.096 83.0915 55.224C83.0915 55.3733 83.0488 55.416 82.9635 55.352C82.7928 55.2027 82.7502 54.9787 82.8355 54.68C82.9208 54.4027 82.9208 54.1573 82.8355 53.944C82.8142 53.8373 82.8035 53.9013 82.8035 54.136C82.8248 54.3707 82.7928 54.5307 82.7075 54.616C82.6862 54.6587 82.6648 54.616 82.6435 54.488C82.6435 54.3813 82.6222 54.296 82.5795 54.232C82.5582 54.1893 82.5155 54.0933 82.4515 53.944C82.4088 53.7947 82.3342 53.752 82.2275 53.816C82.2275 53.816 82.2168 53.816 82.1955 53.816C82.1955 53.816 82.1955 53.8267 82.1955 53.848C82.1528 53.8907 82.0782 53.976 81.9715 54.104C81.8648 54.2533 81.7368 54.392 81.5875 54.52C81.5875 54.52 81.5448 54.5413 81.4595 54.584C81.4382 54.8187 81.4595 55.1387 81.5235 55.544C81.5875 55.9493 81.6515 56.344 81.7155 56.728C81.7795 57.1333 81.7902 57.464 81.7475 57.72C81.7048 57.976 81.5662 58.0827 81.3315 58.04C81.0968 57.9973 80.9582 57.8373 80.9155 57.56C80.8728 57.2827 80.8728 56.952 80.9155 56.568C80.9795 56.2053 81.0435 55.832 81.1075 55.448C81.1928 55.0853 81.2248 54.776 81.2035 54.52C81.1822 54.52 81.1715 54.5093 81.1715 54.488C81.1715 54.488 81.1608 54.488 81.1395 54.488C81.1182 54.488 81.1075 54.4773 81.1075 54.456C81.0648 54.4133 81.0222 54.3493 80.9795 54.264C80.9368 54.2213 80.8942 54.1573 80.8515 54.072C80.7448 53.816 80.6382 53.5387 80.5315 53.24L80.0515 52.28C80.0302 52.2373 80.0088 52.1947 79.9875 52.152C79.9875 52.1093 79.9662 52.0667 79.9235 52.024C79.8168 51.9813 79.6995 51.9387 79.5715 51.896C79.4648 51.8533 79.3582 51.8107 79.2515 51.768C79.2942 51.7253 79.2942 51.6827 79.2515 51.64C79.2302 51.6613 79.2195 51.6827 79.2195 51.704C79.2195 51.7253 79.2195 51.736 79.2195 51.736C79.1768 51.736 79.1128 51.7147 79.0275 51.672C79.0275 51.672 79.0168 51.672 78.9955 51.672C78.9955 51.672 78.9955 51.6613 78.9955 51.64C78.9742 51.6613 78.9528 51.6827 78.9315 51.704C78.9102 51.7467 78.8888 51.7787 78.8675 51.8C78.7395 51.9707 78.6115 52.12 78.4835 52.248L78.4195 52.312C78.4195 52.312 78.4088 52.312 78.3875 52.312C78.3875 52.312 78.3875 52.3227 78.3875 52.344C78.3662 52.344 78.3448 52.344 78.3235 52.344C78.3235 52.3653 78.3128 52.376 78.2915 52.376C78.2702 52.696 78.2488 53.144 78.2275 53.72C78.2275 54.3173 78.2168 54.904 78.1955 55.48C78.1955 56.0773 78.1742 56.536 78.1315 56.856C78.1315 56.8773 78.1102 56.8987 78.0675 56.92C78.0248 56.9627 78.0035 56.9733 78.0035 56.952C77.8755 56.7173 77.8328 56.376 77.8755 55.928C77.9182 55.5013 77.9715 55.0427 78.0355 54.552C78.1208 54.0827 78.1528 53.624 78.1315 53.176C78.1102 52.7493 77.9822 52.4187 77.7475 52.184L77.2995 51.608C77.2782 51.5653 77.2462 51.5227 77.2035 51.48C77.1822 51.4373 77.1502 51.4053 77.1075 51.384C77.0648 51.2987 76.9902 51.2027 76.8835 51.096C76.8835 51.1173 76.8728 51.128 76.8515 51.128C76.7875 51.2133 76.7022 51.288 76.5955 51.352L76.3715 51.448C76.3502 51.448 76.3395 51.448 76.3395 51.448C76.3395 51.4693 76.3288 51.48 76.3075 51.48C76.3075 51.5227 76.3075 51.5867 76.3075 51.672C76.3075 51.7787 76.2862 51.9173 76.2435 52.088L75.9875 53.72C75.9662 53.8693 75.9448 54.008 75.9235 54.136C75.9022 54.264 75.8702 54.392 75.8275 54.52C75.8062 54.648 75.7848 54.8293 75.7635 55.064C75.7422 55.2987 75.7208 55.3627 75.6995 55.256C75.5502 55.0213 75.4862 54.7227 75.5075 54.36C75.5288 53.9973 75.5715 53.6453 75.6355 53.304C75.7208 52.984 75.7528 52.728 75.7315 52.536C75.7102 52.344 75.5822 52.2907 75.3475 52.376C75.0488 52.44 74.7928 52.3973 74.5795 52.248C74.5368 52.2053 74.4942 52.1627 74.4515 52.12C74.4088 52.0773 74.3662 52.0453 74.3235 52.024C74.3022 51.9813 74.2702 51.928 74.2275 51.864C74.2062 51.8213 74.1955 51.8213 74.1955 51.864C74.1742 52.0773 74.1742 52.3547 74.1955 52.696C74.2382 53.0587 74.2702 53.4 74.2915 53.72C74.3128 54.0613 74.3128 54.3067 74.2915 54.456C74.2702 54.6267 74.1955 54.6267 74.0675 54.456C73.8755 54.2 73.7795 53.9013 73.7795 53.56C73.8008 53.24 73.8435 52.8987 73.9075 52.536C73.9928 52.1947 74.0035 51.864 73.9395 51.544C73.9182 51.3947 73.9075 51.4053 73.9075 51.576C73.9288 51.768 73.9288 51.992 73.9075 52.248C73.9075 52.504 73.8755 52.696 73.8115 52.824C73.7475 52.9733 73.7155 52.8987 73.7155 52.6C73.7368 52.3013 73.7475 52.0773 73.7475 51.928L73.5235 50.968C73.4382 50.9253 73.3635 50.8827 73.2995 50.84C73.0648 50.6693 72.9475 50.4347 72.9475 50.136V29.976C72.9475 29.8053 72.9475 29.6347 72.9475 29.464C72.9475 29.272 73.0008 29.1013 73.1075 28.952C73.1715 28.824 73.2995 28.728 73.4915 28.664C73.5342 28.6427 73.5768 28.632 73.6195 28.632C73.6835 28.6107 73.7582 28.6 73.8435 28.6H89.4595C89.6728 28.6 89.8968 28.6 90.1315 28.6C90.3662 28.5787 90.5688 28.632 90.7395 28.76L90.9315 28.952C91.0382 29.1013 91.0915 29.2613 91.0915 29.432V33.208C91.1128 33.2933 91.1235 33.4 91.1235 33.528C91.1235 33.6347 91.1235 33.7413 91.1235 33.848C91.1235 33.9547 91.1022 34.0933 91.0595 34.264C91.0595 34.2853 91.0488 34.3067 91.0275 34.328C91.0275 34.328 91.0275 34.3387 91.0275 34.36C91.0062 34.36 90.9955 34.3707 90.9955 34.392C90.9528 34.4347 90.9315 34.456 90.9315 34.456C90.9102 34.4987 90.8355 34.5733 90.7075 34.68C90.5795 34.7867 90.5048 34.8507 90.4835 34.872C90.4408 34.9147 90.3982 34.9467 90.3555 34.968C90.2702 35.0107 90.2275 35.032 90.2275 35.032C90.2275 35.0107 90.2275 34.9893 90.2275 34.968C90.2275 34.968 90.2062 34.9573 90.1635 34.936C90.1208 34.8933 90.0248 34.8827 89.8755 34.904C89.7475 34.9467 89.6408 34.968 89.5555 34.968C89.4062 34.9893 89.2568 35 89.1075 35C88.9795 35 88.8408 35.0213 88.6915 35.064C88.5422 35.1067 88.4035 35.1707 88.2755 35.256C88.1688 35.32 88.0515 35.3733 87.9235 35.416C87.8168 35.4373 87.7102 35.4693 87.6035 35.512C87.4968 35.5333 87.3902 35.5653 87.2835 35.608C87.1768 35.6293 87.0702 35.6827 86.9635 35.768C86.8568 35.832 86.7502 35.8747 86.6435 35.896C86.4942 35.9173 86.3235 35.8747 86.1315 35.768C86.0675 35.704 86.0142 35.672 85.9715 35.672C85.9502 35.672 85.9395 35.672 85.9395 35.672C85.9182 35.736 85.8755 35.7787 85.8115 35.8C85.7262 35.8853 85.6195 35.9707 85.4915 36.056C85.3848 36.12 85.2675 36.1733 85.1395 36.216C84.9902 36.28 84.8515 36.3013 84.7235 36.28C84.6168 36.2373 84.4888 36.2053 84.3395 36.184C84.2542 36.1627 84.1582 36.1627 84.0515 36.184C83.9448 36.184 83.8382 36.1733 83.7315 36.152C83.5182 36.1093 83.3155 36.0347 83.1235 35.928C82.9315 35.8213 82.7395 35.7147 82.5475 35.608C82.3768 35.5013 82.1848 35.416 81.9715 35.352C81.7795 35.2667 81.5875 35.192 81.3955 35.128L80.6275 34.84V36.472L80.7555 36.856H88.2435C88.4782 36.856 88.7555 36.8453 89.0755 36.824C89.3955 36.8027 89.6728 36.8453 89.9075 36.952C89.9288 36.952 89.9502 36.9627 89.9715 36.984C90.0995 37.0693 90.1848 37.144 90.2275 37.208C90.2915 37.2933 90.3342 37.3893 90.3555 37.496C90.3768 37.6027 90.3982 37.7093 90.4195 37.816C90.4195 37.944 90.4088 38.0827 90.3875 38.232C90.3875 38.36 90.3875 38.488 90.3875 38.616V41.592C90.3875 41.6773 90.3875 41.7627 90.3875 41.848C90.4088 41.912 90.4088 41.976 90.3875 42.04C90.3875 42.0827 90.3662 42.1467 90.3235 42.232C90.3235 42.2533 90.3128 42.264 90.2915 42.264C90.2915 42.264 90.2915 42.2747 90.2915 42.296C90.2062 42.4667 90.0568 42.6053 89.8435 42.712C89.8222 42.712 89.8115 42.7227 89.8115 42.744C89.8115 42.744 89.8008 42.744 89.7795 42.744C89.6515 42.8293 89.5128 42.8933 89.3635 42.936C89.2355 42.9573 89.1182 42.9893 89.0115 43.032C88.8408 43.1173 88.6702 43.224 88.4995 43.352C88.3288 43.4587 88.1475 43.5333 87.9555 43.576C87.8488 43.5973 87.7315 43.6187 87.6035 43.64C87.4755 43.64 87.3582 43.6613 87.2515 43.704C87.1448 43.7253 87.0382 43.7573 86.9315 43.8C86.8248 43.8427 86.7182 43.8853 86.6115 43.928C86.4195 43.992 86.2275 44.024 86.0355 44.024C85.8435 44.024 85.6622 44.0347 85.4915 44.056H85.3315C85.2888 44.056 85.2462 44.0667 85.2035 44.088C85.1608 44.088 85.1182 44.0773 85.0755 44.056C84.9475 44.0347 84.8302 44.0027 84.7235 43.96C84.6382 43.896 84.5422 43.8533 84.4355 43.832C84.2435 43.7893 84.0515 43.8107 83.8595 43.896C83.6675 43.96 83.4755 43.9707 83.2835 43.928C83.1342 43.8853 82.9848 43.8107 82.8355 43.704C82.7075 43.576 82.5582 43.4587 82.3875 43.352C82.2168 43.2667 82.0355 43.1813 81.8435 43.096C81.6515 43.0107 81.4595 42.936 81.2675 42.872C81.3102 42.872 81.2248 42.8507 81.0115 42.808C80.7982 42.7653 80.6702 42.744 80.6275 42.744V44.376L80.7555 44.76H90.4835C90.6115 44.76 90.7395 44.792 90.8675 44.856C90.9102 44.856 90.9635 44.888 91.0275 44.952C91.0702 44.9733 91.1022 44.9947 91.1235 45.016C91.1448 45.0373 91.1662 45.0693 91.1875 45.112C91.2302 45.1547 91.2728 45.24 91.3155 45.368C91.3368 45.432 91.3475 45.528 91.3475 45.656V46.744ZM112.243 56.216C112.243 56.3013 112.222 56.408 112.179 56.536C112.158 56.6213 112.105 56.7067 112.019 56.792C111.998 56.8133 111.977 56.8347 111.955 56.856C111.934 56.8773 111.902 56.9093 111.859 56.952C111.838 56.9733 111.806 56.9947 111.763 57.016C111.721 57.0373 111.678 57.1013 111.635 57.208C111.614 57.2933 111.571 57.3787 111.507 57.464L111.187 58.04C111.123 58.1467 111.049 58.2533 110.963 58.36C110.899 58.488 110.825 58.6053 110.739 58.712C110.675 58.7973 110.611 58.8827 110.547 58.968C110.483 59.0533 110.409 59.128 110.323 59.192C110.302 59.2133 110.281 59.224 110.259 59.224L110.099 59.384C110.078 59.8533 110.057 60.3867 110.035 60.984C110.035 61.6027 110.014 62.1573 109.971 62.648C109.971 62.904 109.993 63.1813 110.035 63.48C110.099 63.7787 110.035 64.0133 109.843 64.184C109.737 64.2693 109.673 64.2267 109.651 64.056C109.651 63.9067 109.662 63.704 109.683 63.448C109.726 63.2133 109.737 63.032 109.715 62.904C109.694 62.4133 109.683 61.9973 109.683 61.656C109.683 61.336 109.673 60.9947 109.651 60.632C109.651 60.2907 109.619 59.8533 109.555 59.32L109.523 59.288C109.523 59.2667 109.513 59.2453 109.491 59.224C109.491 59.224 109.491 59.2133 109.491 59.192C109.47 59.1493 109.449 59.096 109.427 59.032C109.406 58.9893 109.385 58.9573 109.363 58.936C109.342 58.8507 109.321 58.7653 109.299 58.68C109.278 58.616 109.246 58.5413 109.203 58.456L109.107 58.136C109.086 58.0293 109.065 57.9333 109.043 57.848C109.022 57.7627 109.001 57.6667 108.979 57.56C108.958 57.8373 108.937 58.1253 108.915 58.424C108.915 58.7227 108.894 59.0213 108.851 59.32C108.851 59.3413 108.83 59.3733 108.787 59.416C108.766 59.4587 108.745 59.4693 108.723 59.448C108.702 59.2133 108.691 58.968 108.691 58.712C108.691 58.4773 108.67 58.2533 108.627 58.04C108.606 58.1253 108.585 58.2 108.563 58.264C108.563 58.3493 108.542 58.4347 108.499 58.52C108.478 58.6053 108.446 58.6907 108.403 58.776C108.361 58.8827 108.307 58.968 108.243 59.032C108.158 59.1173 108.094 59.16 108.051 59.16C108.03 59.16 107.998 59.16 107.955 59.16C107.913 59.1813 107.881 59.1813 107.859 59.16C107.774 59.1387 107.731 59.1173 107.731 59.096C107.753 59.0747 107.71 59.0853 107.603 59.128C107.518 59.1707 107.443 59.224 107.379 59.288C107.337 59.3733 107.283 59.448 107.219 59.512C107.198 59.5333 107.155 59.5653 107.091 59.608C107.049 59.6507 107.006 59.672 106.963 59.672C106.899 59.6507 106.846 59.608 106.803 59.544C106.782 59.48 106.75 59.4267 106.707 59.384C106.537 59.1493 106.462 59.0213 106.483 59C106.505 58.9787 106.547 58.9893 106.611 59.032C106.697 59.096 106.739 59.1173 106.739 59.096C106.761 59.0747 106.675 58.936 106.483 58.68C106.462 58.68 106.451 58.6693 106.451 58.648C106.451 58.648 106.441 58.648 106.419 58.648L106.291 58.52C106.27 58.456 106.227 58.4133 106.163 58.392C106.163 58.392 106.121 58.328 106.035 58.2C105.993 58.1147 105.939 58.0293 105.875 57.944C105.833 57.8587 105.79 57.7733 105.747 57.688C105.726 57.6453 105.705 57.6027 105.683 57.56C105.662 57.5173 105.641 57.464 105.619 57.4C105.598 57.336 105.566 57.272 105.523 57.208C105.502 57.1653 105.481 57.1227 105.459 57.08L105.171 57.048C105.086 57.0053 105.001 56.952 104.915 56.888C104.702 56.7173 104.595 56.4933 104.595 56.216V49.4C104.574 49.4213 104.553 49.4533 104.531 49.496C104.51 49.5387 104.478 49.5813 104.435 49.624C104.393 49.688 104.329 49.7627 104.243 49.848C104.201 49.912 104.147 49.976 104.083 50.04C104.019 50.0827 103.955 50.1253 103.891 50.168L103.667 50.36C103.582 50.5093 103.507 50.6693 103.443 50.84C103.401 51.0107 103.326 51.16 103.219 51.288C103.07 51.5227 102.878 51.5013 102.643 51.224C102.601 51.1173 102.558 51.064 102.515 51.064C102.515 51.064 102.505 51.0747 102.483 51.096C102.483 51.1173 102.483 51.1493 102.483 51.192C102.462 51.2133 102.451 51.256 102.451 51.32C102.451 51.384 102.43 51.4373 102.387 51.48C102.366 51.5227 102.334 51.544 102.291 51.544C102.249 51.5653 102.206 51.5973 102.163 51.64L102.003 51.832C101.961 51.9173 101.929 51.9707 101.907 51.992C101.758 52.2693 101.63 52.5573 101.523 52.856C101.417 53.176 101.289 53.4853 101.139 53.784C101.075 53.9547 100.979 54.104 100.851 54.232C100.787 54.296 100.713 54.3493 100.627 54.392C100.542 54.648 100.499 54.8187 100.499 54.904C100.521 54.9893 100.478 55.1387 100.371 55.352C100.35 55.3733 100.329 55.3947 100.307 55.416C100.307 55.4373 100.286 55.4587 100.243 55.48C100.201 55.48 100.158 55.4587 100.115 55.416C100.03 55.352 99.9553 55.2667 99.8913 55.16C99.8273 55.0747 99.7739 54.9893 99.7313 54.904C99.6886 54.8613 99.6673 54.8187 99.6673 54.776C99.6033 54.7547 99.5606 54.68 99.5393 54.552C99.4753 54.5733 99.4006 54.5413 99.3153 54.456C99.2726 54.392 99.2299 54.3173 99.1873 54.232C99.1659 54.2107 99.1446 54.2 99.1233 54.2C99.1233 54.2 99.1126 54.1893 99.0913 54.168C99.0273 54.104 98.9953 54.072 98.9953 54.072C98.9739 54.264 98.9846 54.488 99.0273 54.744C99.0699 55 99.0059 55.1173 98.8353 55.096C98.6859 55.0533 98.6326 54.8933 98.6753 54.616C98.7179 54.3387 98.6859 54.0827 98.5793 53.848V53.944C98.5366 54.0293 98.5046 54.0827 98.4833 54.104C98.4619 54.1253 98.4193 54.136 98.3553 54.136C98.3126 54.392 98.2913 54.648 98.2913 54.904C98.2913 55.1813 98.2699 55.448 98.2273 55.704C98.2273 55.7253 98.2059 55.7253 98.1633 55.704C98.1206 55.704 98.0886 55.6933 98.0673 55.672C98.0459 55.3947 98.0353 55.1173 98.0353 54.84C98.0353 54.5627 98.0139 54.2853 97.9713 54.008C97.9073 53.944 97.8753 53.8587 97.8753 53.752C97.8539 53.7947 97.8006 53.816 97.7153 53.816C97.6726 53.8587 97.6406 53.88 97.6193 53.88C97.5979 53.8587 97.5766 53.816 97.5553 53.752C97.5553 53.7093 97.5339 53.6667 97.4913 53.624C97.4486 53.5813 97.4273 53.5493 97.4273 53.528C97.4273 53.528 97.4059 53.496 97.3633 53.432C97.2993 53.2613 97.2779 53.0907 97.2993 52.92C97.3206 52.7493 97.3526 52.5787 97.3953 52.408C97.4166 52.2373 97.4379 52.0667 97.4593 51.896C97.5019 51.7253 97.5126 51.5653 97.4913 51.416C97.4913 51.3733 97.4806 51.3307 97.4593 51.288C97.4379 51.2453 97.3739 51.192 97.2673 51.128C97.2459 51.128 97.2246 51.1067 97.2033 51.064C97.2033 51.0427 97.1819 51.032 97.1393 51.032V51.416C97.1606 51.5653 97.1819 51.736 97.2033 51.928C97.2246 52.12 97.2352 52.2693 97.2352 52.376C97.2352 52.4613 97.2139 52.5253 97.1713 52.568C97.0646 52.5893 96.9686 52.504 96.8833 52.312C96.8193 52.1627 96.7979 51.9813 96.8193 51.768C96.8619 51.5547 96.8939 51.3413 96.9153 51.128V50.872C96.9153 50.7867 96.8833 50.744 96.8193 50.744C96.7766 50.8933 96.7766 51.0747 96.8193 51.288V51.544C96.8193 51.5227 96.8193 51.5547 96.8193 51.64C96.8406 51.7253 96.8299 51.7893 96.7873 51.832C96.7873 51.8747 96.7553 51.864 96.6913 51.8C96.6059 51.7147 96.5633 51.5867 96.5633 51.416C96.5633 51.3093 96.5739 51.2027 96.5953 51.096C96.6166 50.9893 96.6273 50.8933 96.6273 50.808V50.616C96.6059 50.5947 96.5953 50.5733 96.5953 50.552C96.5739 50.552 96.5633 50.5947 96.5633 50.68V50.968C96.5633 50.9893 96.5633 51.0213 96.5633 51.064C96.5846 51.1067 96.5846 51.1493 96.5633 51.192C96.5633 51.2987 96.5419 51.3307 96.4993 51.288C96.4779 51.2667 96.4566 51.2453 96.4353 51.224C96.4353 51.2027 96.4246 51.1813 96.4033 51.16C96.3819 51.0747 96.3713 50.9893 96.3713 50.904C96.3926 50.7973 96.4033 50.7013 96.4033 50.616V50.36C96.3819 50.36 96.3713 50.36 96.3713 50.36C96.3713 50.3387 96.3713 50.328 96.3713 50.328C96.3713 50.3493 96.3713 50.4027 96.3713 50.488C96.3713 50.5733 96.3499 50.6373 96.3073 50.68C96.3073 50.7013 96.2966 50.712 96.2753 50.712C96.2326 50.7333 96.2113 50.68 96.2113 50.552C96.1899 50.4453 96.1579 50.3387 96.1153 50.232C96.0939 50.104 96.0299 49.976 95.9233 49.848C95.9019 49.8053 95.8486 49.7413 95.7633 49.656C95.6566 49.5493 95.5499 49.4427 95.4433 49.336C95.3366 49.208 95.2299 49.0693 95.1233 48.92C95.0806 48.8773 95.0166 48.792 94.9313 48.664C94.8673 48.5573 94.8033 48.4613 94.7393 48.376C94.6753 48.2693 94.6219 48.1733 94.5793 48.088C94.4939 47.9387 94.4193 47.8 94.3553 47.672C94.2913 47.5227 94.2273 47.3733 94.1633 47.224C94.0779 47.032 93.9926 46.808 93.9073 46.552C93.8433 46.296 93.7899 46.0187 93.7473 45.72C93.7046 45.4853 93.6726 45.2613 93.6513 45.048C93.6299 44.8133 93.6086 44.568 93.5872 44.312C93.5659 44.2693 93.5553 44.216 93.5553 44.152C93.5553 44.088 93.5553 44.0347 93.5553 43.992C93.5339 43.864 93.5233 43.6187 93.5233 43.256V42.744C93.5233 42.5307 93.5233 42.328 93.5233 42.136C93.5233 41.9227 93.5339 41.688 93.5553 41.432C93.6193 39.8533 93.8966 38.552 94.3873 37.528C94.8993 36.4827 95.5499 35.6827 96.3393 35.128C96.3606 35.128 96.3713 35.128 96.3713 35.128C96.3713 35.1067 96.3819 35.096 96.4033 35.096C96.6379 34.9253 96.8619 34.7973 97.0753 34.712C97.1819 34.6693 97.2779 34.6267 97.3633 34.584C97.4699 34.5413 97.5659 34.5093 97.6513 34.488C97.7366 34.4453 97.7899 34.424 97.8113 34.424C98.0246 34.3173 98.2913 34.232 98.6113 34.168C99.1019 34.0613 99.5926 34.008 100.083 34.008C100.595 34.008 101.022 34.0293 101.363 34.072C101.726 34.1147 102.046 34.1787 102.323 34.264C102.622 34.328 102.857 34.424 103.027 34.552C103.07 34.5947 103.113 34.616 103.155 34.616C103.497 34.7867 103.817 34.9893 104.115 35.224L104.499 35.544L104.659 35.704C104.851 35.896 104.937 35.992 104.915 35.992C104.894 35.992 104.947 36.0133 105.075 36.056V35.224C105.075 35.0747 105.118 34.9147 105.203 34.744C105.246 34.7013 105.278 34.6693 105.299 34.648C105.321 34.6053 105.353 34.5733 105.395 34.552C105.523 34.424 105.705 34.36 105.939 34.36H110.227C110.398 34.36 110.579 34.3493 110.771 34.328C110.963 34.3067 111.145 34.3173 111.315 34.36H111.475C111.625 34.3813 111.742 34.424 111.827 34.488C111.913 34.552 111.998 34.6267 112.083 34.712C112.126 34.7547 112.147 34.7973 112.147 34.84C112.211 34.9253 112.243 35.032 112.243 35.16C112.265 35.3093 112.265 35.4693 112.243 35.64C112.243 35.8107 112.243 35.9707 112.243 36.12V52.12C112.243 52.5253 112.243 53.0907 112.243 53.816C112.265 54.5413 112.275 55.1707 112.275 55.704C112.275 55.832 112.265 55.9173 112.243 55.96V56.216ZM104.595 43.992C104.595 43.8853 104.595 43.7893 104.595 43.704C104.617 43.6187 104.627 43.5333 104.627 43.448V42.904C104.627 42.712 104.627 42.52 104.627 42.328C104.627 42.136 104.617 41.944 104.595 41.752C104.595 41.6453 104.585 41.5387 104.563 41.432C104.563 41.304 104.553 41.1973 104.531 41.112C104.531 41.048 104.51 40.952 104.467 40.824C104.361 40.4187 104.169 40.1413 103.891 39.992C103.763 39.9493 103.625 39.928 103.475 39.928C103.347 39.928 103.219 39.9173 103.091 39.896H102.547C102.313 39.896 102.131 39.96 102.003 40.088C101.854 40.1947 101.737 40.344 101.651 40.536C101.566 40.728 101.502 40.92 101.459 41.112C101.459 41.1547 101.449 41.208 101.427 41.272C101.427 41.3147 101.427 41.3573 101.427 41.4C101.406 41.464 101.395 41.528 101.395 41.592C101.395 41.656 101.395 41.72 101.395 41.784C101.395 41.848 101.385 41.912 101.363 41.976C101.363 42.04 101.363 42.104 101.363 42.168C101.342 42.424 101.331 42.6907 101.331 42.968C101.353 43.2453 101.374 43.5013 101.395 43.736L101.491 44.28C101.534 44.472 101.587 44.664 101.651 44.856C101.737 45.0267 101.854 45.176 102.003 45.304C102.11 45.3893 102.227 45.4533 102.355 45.496C102.505 45.5387 102.654 45.5707 102.803 45.592H103.027C103.049 45.592 103.091 45.592 103.155 45.592C103.241 45.5707 103.315 45.56 103.379 45.56C103.55 45.5173 103.689 45.4747 103.795 45.432C103.838 45.4107 103.881 45.3893 103.923 45.368C103.966 45.3467 103.998 45.3253 104.019 45.304C104.211 45.176 104.361 44.9627 104.467 44.664C104.51 44.5147 104.531 44.3867 104.531 44.28C104.553 44.1733 104.574 44.0773 104.595 43.992ZM97.9073 52.952C97.9286 52.8453 97.9499 52.7493 97.9713 52.664C97.9926 52.5787 98.0139 52.4933 98.0353 52.408C98.0993 52.1733 98.1313 52.0027 98.1313 51.896C98.1313 51.7893 98.1099 51.6933 98.0673 51.608H97.9713C97.9073 51.864 97.8753 52.0347 97.8753 52.12C97.8539 52.0773 97.8326 51.992 97.8113 51.864C97.8113 51.7573 97.7899 51.6293 97.7473 51.48V51.768C97.7473 51.832 97.7473 51.896 97.7473 51.96C97.7473 52.024 97.7579 52.088 97.7793 52.152L97.9073 53.048V52.952ZM98.6113 52.728L98.7073 52.28C98.7073 52.2587 98.7073 52.184 98.7073 52.056C98.7286 51.9493 98.7393 51.8427 98.7393 51.736C98.7393 51.736 98.7286 51.7253 98.7073 51.704C98.6859 51.704 98.6539 51.704 98.6113 51.704H98.4833C98.4619 51.704 98.4406 51.6933 98.4193 51.672C98.4193 51.672 98.3979 51.672 98.3553 51.672V52.056C98.3553 52.12 98.3553 52.184 98.3553 52.248C98.3766 52.312 98.3979 52.3867 98.4193 52.472C98.4406 52.5573 98.4619 52.6427 98.4833 52.728C98.5046 52.8133 98.5259 52.9093 98.5473 53.016C98.5473 52.952 98.5686 52.856 98.6113 52.728ZM98.9633 51.768V51.928C98.9633 51.992 98.9633 52.0453 98.9633 52.088C98.9846 52.152 98.9953 52.216 98.9953 52.28C98.9953 52.2587 98.9953 52.2693 98.9953 52.312C99.0166 52.376 99.0273 52.4293 99.0273 52.472C99.0913 52.216 99.1126 51.992 99.0913 51.8C99.0699 51.7787 99.0273 51.768 98.9633 51.768ZM99.8273 52.408C99.7846 52.216 99.7313 52.088 99.6673 52.024C99.6033 51.96 99.5393 51.9173 99.4753 51.896C99.4753 51.896 99.4539 51.9387 99.4113 52.024C99.4113 51.9813 99.3899 51.9387 99.3473 51.896C99.3473 51.896 99.3366 51.8853 99.3153 51.864C99.3153 51.864 99.2939 51.8533 99.2513 51.832C99.2086 51.8747 99.2086 51.96 99.2513 52.088C99.2513 52.1093 99.2513 52.1307 99.2513 52.152C99.2726 52.1947 99.2833 52.2373 99.2833 52.28C99.3046 52.344 99.3153 52.408 99.3153 52.472C99.3153 52.536 99.3259 52.6 99.3473 52.664C99.3686 52.7067 99.3793 52.7493 99.3793 52.792C99.3793 52.8347 99.3899 52.8773 99.4113 52.92C99.4326 52.856 99.4433 52.792 99.4433 52.728C99.4646 52.664 99.4753 52.6 99.4753 52.536C99.5179 52.6427 99.5499 52.76 99.5713 52.888C99.5926 53.016 99.6139 53.1547 99.6353 53.304C99.6566 53.3467 99.6673 53.3893 99.6673 53.432C99.6673 53.4747 99.6779 53.5173 99.6993 53.56C99.7419 53.4107 99.7739 53.2613 99.7953 53.112C99.8166 52.984 99.8273 52.8453 99.8273 52.696V52.408ZM99.4113 52.024C99.4753 52.1307 99.4966 52.3013 99.4753 52.536C99.4539 52.4507 99.4326 52.3653 99.4113 52.28C99.3899 52.1947 99.3899 52.1093 99.4113 52.024ZM133.848 50.136C133.826 50.1787 133.816 50.232 133.816 50.296C133.816 50.3387 133.805 50.3813 133.784 50.424C133.784 50.4453 133.773 50.4667 133.752 50.488C133.752 50.5093 133.741 50.5307 133.72 50.552C133.72 50.552 133.698 50.5733 133.656 50.616C133.634 50.68 133.56 50.7547 133.432 50.84C133.389 50.904 133.336 50.9573 133.272 51C133.208 51.0853 133.144 51.1813 133.08 51.288C133.037 51.3947 132.994 51.4907 132.952 51.576C132.866 51.7467 132.781 51.928 132.696 52.12C132.61 52.312 132.525 52.504 132.44 52.696L132.312 53.016C132.29 53.0587 132.269 53.1333 132.248 53.24C132.226 53.368 132.205 53.4 132.184 53.336C132.141 53.0373 132.12 52.7387 132.12 52.44C132.12 52.1413 132.098 51.8427 132.056 51.544C132.056 51.544 132.013 51.5653 131.928 51.608C131.906 51.608 131.896 51.608 131.896 51.608C131.896 51.6293 131.885 51.64 131.864 51.64C131.778 51.7893 131.693 51.96 131.608 52.152C131.544 52.344 131.48 52.536 131.416 52.728C131.394 52.792 131.373 52.856 131.352 52.92C131.33 53.0053 131.298 53.0907 131.256 53.176C131.213 53.2613 131.17 53.3573 131.128 53.464C131.085 53.592 131.01 53.6987 130.904 53.784C130.754 53.912 130.616 53.8693 130.488 53.656C130.381 53.464 130.306 53.3147 130.264 53.208C130.221 53.1227 130.168 53.0267 130.104 52.92C130.04 52.8347 129.986 52.7493 129.944 52.664C129.88 52.536 129.816 52.408 129.752 52.28C129.688 52.152 129.634 52.024 129.592 51.896L129.496 51.608C129.432 51.5653 129.4 51.5547 129.4 51.576C129.357 51.9173 129.336 52.248 129.336 52.568C129.336 52.9093 129.314 53.2507 129.272 53.592C129.25 53.6347 129.229 53.6027 129.208 53.496C129.186 53.4107 129.165 53.3467 129.144 53.304C129.101 53.24 129.058 53.144 129.016 53.016C128.93 52.8453 128.845 52.664 128.76 52.472C128.696 52.3013 128.61 52.1413 128.504 51.992C128.376 51.7787 128.205 51.5333 127.992 51.256C127.97 51.3627 127.949 51.4693 127.928 51.576C127.928 51.6827 127.906 51.7893 127.864 51.896C127.842 51.9173 127.821 51.9387 127.8 51.96C127.778 51.9813 127.757 52.0133 127.736 52.056C127.65 52.056 127.608 52.0667 127.608 52.088L127.448 51.672C127.448 51.6933 127.437 51.7253 127.416 51.768C127.394 51.8107 127.373 51.8533 127.352 51.896C127.33 51.9173 127.309 51.896 127.288 51.832C127.266 51.768 127.245 51.7253 127.224 51.704C127.181 51.6187 127.138 51.5227 127.096 51.416C127.053 51.3307 127.01 51.2453 126.968 51.16C126.946 51.1173 126.925 51.064 126.904 51C126.904 50.936 126.882 50.8827 126.84 50.84C126.797 50.8187 126.765 50.7973 126.744 50.776C126.722 50.7333 126.69 50.6907 126.648 50.648C126.605 50.5627 126.573 50.5093 126.552 50.488C126.509 50.36 126.488 50.2533 126.488 50.168C126.466 50.0613 126.456 49.9653 126.456 49.88C126.477 49.7733 126.488 49.6453 126.488 49.496V49.08C126.466 49.1227 126.424 49.176 126.36 49.24C126.338 49.304 126.253 49.4107 126.104 49.56L126.008 49.656C126.008 49.6773 125.997 49.688 125.976 49.688C125.976 49.688 125.976 49.6987 125.976 49.72L125.56 50.104C125.474 50.296 125.41 50.4987 125.368 50.712C125.325 50.904 125.218 51.064 125.048 51.192C124.898 51.32 124.802 51.2987 124.76 51.128C124.738 51.2133 124.706 51.2773 124.664 51.32C124.621 51.384 124.546 51.48 124.44 51.608L124.28 51.768C124.152 51.8533 124.045 51.96 123.96 52.088L123.704 52.632C123.682 52.6747 123.64 52.7493 123.576 52.856C123.533 52.9627 123.49 53.0373 123.448 53.08C123.362 53.1013 123.298 53.08 123.256 53.016C123.234 52.952 123.213 52.8987 123.192 52.856C123.17 52.792 123.149 52.7173 123.128 52.632C123.106 52.568 123.085 52.504 123.064 52.44C123.042 52.3333 123.021 52.2267 123 52.12C123 52.0133 122.978 51.9173 122.936 51.832C122.85 51.7467 122.786 51.672 122.744 51.608H122.712C122.69 51.608 122.669 51.5973 122.648 51.576C122.626 51.5547 122.605 51.5547 122.584 51.576C122.562 51.7893 122.541 52.0027 122.52 52.216C122.52 52.4293 122.498 52.6427 122.456 52.856C122.456 52.8773 122.445 52.856 122.424 52.792C122.402 52.728 122.37 52.6853 122.328 52.664C122.306 52.6213 122.285 52.5893 122.264 52.568C122.242 52.5467 122.221 52.5147 122.2 52.472C122.178 52.344 122.168 52.2053 122.168 52.056C122.168 51.928 122.146 51.8 122.104 51.672C122.082 51.6933 122.072 51.6933 122.072 51.672C122.05 51.6933 122.018 51.704 121.976 51.704C121.976 51.7253 121.965 51.736 121.944 51.736C121.922 51.7573 121.901 51.7787 121.88 51.8C121.88 51.8213 121.858 51.8427 121.816 51.864C121.794 51.8853 121.762 51.8853 121.72 51.864C121.677 51.864 121.634 51.864 121.592 51.864C121.421 51.8427 121.293 51.7787 121.208 51.672C121.122 51.5867 121.048 51.4693 120.984 51.32H120.824C120.781 51.32 120.738 51.3093 120.696 51.288C120.653 51.288 120.61 51.288 120.568 51.288C120.44 51.288 120.344 51.2773 120.28 51.256C120.109 51.2347 119.938 51.2027 119.768 51.16C119.597 51.1387 119.426 51.096 119.256 51.032C119.106 51.0107 118.957 50.9573 118.808 50.872C118.594 50.7867 118.381 50.6907 118.168 50.584C117.976 50.4773 117.784 50.36 117.592 50.232C117.208 49.9547 116.888 49.656 116.632 49.336C116.525 49.2293 116.429 49.112 116.344 48.984C116.258 48.8347 116.162 48.6853 116.056 48.536C115.778 48.088 115.544 47.576 115.352 47C115.181 46.4027 115.064 45.752 115 45.048C114.936 44.5573 114.914 44.0133 114.936 43.416C114.957 42.8187 114.968 42.296 114.968 41.848V35.224C114.968 35.032 115.021 34.8613 115.128 34.712L115.32 34.52C115.469 34.4133 115.629 34.36 115.799 34.36C115.992 34.36 116.173 34.36 116.344 34.36H121.944C122.029 34.36 122.136 34.3813 122.264 34.424C122.456 34.488 122.584 34.584 122.648 34.712C122.69 34.7547 122.733 34.84 122.776 34.968C122.797 35.0533 122.808 35.192 122.808 35.384V44.024C122.85 44.3013 122.914 44.568 123 44.824C123.106 45.0587 123.32 45.272 123.64 45.464C123.768 45.5067 123.853 45.528 123.896 45.528C124.002 45.5493 124.088 45.5707 124.152 45.592C124.237 45.592 124.322 45.592 124.408 45.592C124.514 45.592 124.6 45.592 124.664 45.592C124.749 45.5707 124.834 45.5493 124.92 45.528C124.962 45.528 124.994 45.5173 125.016 45.496C125.058 45.4747 125.101 45.4533 125.144 45.432C125.208 45.4107 125.261 45.3893 125.304 45.368L125.56 45.208C125.666 45.0587 125.773 44.888 125.88 44.696C125.922 44.5893 125.944 44.4827 125.944 44.376C125.965 44.2693 125.986 44.1627 126.008 44.056V35.224C126.008 34.9893 126.093 34.7867 126.264 34.616C126.434 34.4453 126.637 34.36 126.872 34.36H132.44C132.717 34.36 132.92 34.36 133.048 34.36C133.197 34.36 133.368 34.4453 133.56 34.616C133.666 34.7227 133.73 34.84 133.752 34.968C133.794 35.0747 133.816 35.1813 133.816 35.288C133.837 35.3947 133.837 35.512 133.816 35.64C133.816 35.768 133.816 35.8853 133.816 35.992V49.24C133.816 49.3253 133.816 49.4107 133.816 49.496C133.816 49.5813 133.826 49.6773 133.848 49.784V50.136ZM126.712 50.744C126.712 50.744 126.722 50.7547 126.744 50.776C126.722 50.7547 126.712 50.744 126.712 50.744ZM153.906 49.848C153.906 49.9333 153.895 49.9973 153.874 50.04C153.874 50.3173 153.821 50.52 153.714 50.648C153.693 50.6907 153.65 50.744 153.586 50.808C153.522 50.8507 153.458 50.8933 153.394 50.936C153.159 51.1707 153.053 51.3627 153.074 51.512C153.095 51.6613 153.159 51.7893 153.266 51.896C153.373 52.0027 153.437 52.1307 153.458 52.28C153.479 52.4293 153.373 52.6213 153.138 52.856C153.117 52.92 153.095 52.984 153.074 53.048C153.074 53.1333 153.053 53.1973 153.01 53.24C152.989 53.2613 152.946 53.208 152.882 53.08C152.861 52.9733 152.839 52.856 152.818 52.728C152.797 52.6 152.775 52.472 152.754 52.344C152.733 51.9813 152.722 51.768 152.722 51.704C152.743 51.6613 152.701 51.5227 152.594 51.288L152.466 51.416C152.402 51.48 152.338 51.5333 152.274 51.576C152.231 51.6187 152.178 51.6827 152.114 51.768C152.029 51.896 151.943 52.024 151.858 52.152C151.773 52.28 151.687 52.408 151.602 52.536C151.581 52.5573 151.549 52.6107 151.506 52.696C151.463 52.7813 151.421 52.8347 151.378 52.856C151.271 52.8987 151.186 52.8453 151.122 52.696C151.058 52.5467 151.005 52.4507 150.962 52.408C150.941 52.344 150.919 52.28 150.898 52.216C150.898 52.152 150.877 52.088 150.834 52.024C150.791 52.0027 150.727 51.9493 150.642 51.864C150.599 51.8213 150.567 51.7787 150.546 51.736L150.226 51.352L150.066 51.192C150.023 51.2133 149.97 51.2027 149.906 51.16C149.842 51.1173 149.789 51.0853 149.746 51.064C149.639 51.1707 149.586 51.2347 149.586 51.256C149.415 51.4053 149.266 51.576 149.138 51.768C149.031 51.9813 148.925 52.1947 148.818 52.408C148.797 52.4507 148.754 52.504 148.69 52.568C148.647 52.632 148.594 52.6853 148.53 52.728C148.487 52.7707 148.455 52.792 148.434 52.792C148.413 52.92 148.391 53.048 148.37 53.176C148.37 53.3253 148.349 53.464 148.306 53.592C148.285 53.6133 148.253 53.6027 148.21 53.56C148.189 53.5387 148.178 53.5173 148.178 53.496C148.135 53.3253 148.114 53.1973 148.114 53.112C148.135 53.048 148.103 52.888 148.018 52.632C147.997 52.632 147.975 52.6213 147.954 52.6C147.954 52.5787 147.933 52.5467 147.89 52.504C147.89 52.4613 147.869 52.4293 147.826 52.408C147.805 52.3867 147.794 52.376 147.794 52.376L147.506 51.896L147.122 51.288C147.101 51.2027 147.069 51.1173 147.026 51.032C146.983 50.968 146.941 50.904 146.898 50.84L146.866 50.808C146.781 50.744 146.695 50.6373 146.61 50.488C146.61 50.4667 146.599 50.456 146.578 50.456C146.578 50.4347 146.578 50.4133 146.578 50.392C146.557 50.2853 146.546 50.168 146.546 50.04C146.546 49.8907 146.546 49.7093 146.546 49.496V49.24C146.503 49.2827 146.471 49.3253 146.45 49.368L146.354 49.464C146.162 49.6987 145.949 49.912 145.714 50.104C145.629 50.3173 145.565 50.5413 145.522 50.776C145.479 50.9893 145.405 51.2027 145.298 51.416C145.277 51.5013 145.234 51.5867 145.17 51.672C145.127 51.7787 145.063 51.864 144.978 51.928C144.957 51.9493 144.893 51.9707 144.786 51.992C144.701 52.0133 144.647 52.0133 144.626 51.992C144.605 51.928 144.594 51.8533 144.594 51.768C144.594 51.704 144.594 51.64 144.594 51.576C144.573 51.64 144.541 51.6933 144.498 51.736C144.477 51.8 144.445 51.8533 144.402 51.896C144.381 51.9387 144.349 51.9707 144.306 51.992C144.263 52.0347 144.221 52.0773 144.178 52.12C144.114 52.4613 144.061 52.7813 144.018 53.08C143.997 53.4 143.965 53.7307 143.922 54.072C143.901 54.1573 143.879 54.2427 143.858 54.328C143.837 54.4347 143.805 54.5413 143.762 54.648C143.762 54.7547 143.73 54.84 143.666 54.904C143.645 54.9253 143.602 54.904 143.538 54.84C143.517 54.7973 143.495 54.744 143.474 54.68C143.453 54.6373 143.431 54.5947 143.41 54.552C143.389 54.4453 143.346 54.264 143.282 54.008C143.218 53.7733 143.165 53.6133 143.122 53.528C143.101 53.4427 143.079 53.3467 143.058 53.24C143.037 53.1547 143.015 53.0693 142.994 52.984C142.973 52.92 142.951 52.8453 142.93 52.76C142.93 52.696 142.909 52.6213 142.866 52.536L142.77 52.44C142.706 52.3547 142.642 52.2587 142.578 52.152C142.514 52.0667 142.45 51.9813 142.386 51.896C142.365 51.832 142.333 51.768 142.29 51.704C142.247 51.6613 142.205 51.5973 142.162 51.512C142.141 51.4693 142.119 51.4267 142.098 51.384C142.077 51.3627 142.045 51.3413 142.002 51.32H141.746C140.359 51.2773 139.165 50.9467 138.162 50.328C137.181 49.7093 136.498 48.92 136.114 47.96C136.093 47.896 136.071 47.832 136.05 47.768C136.029 47.704 136.007 47.64 135.986 47.576C135.986 47.5547 135.975 47.5333 135.954 47.512C135.954 47.4907 135.954 47.4693 135.954 47.448C135.933 47.3413 135.911 47.2453 135.89 47.16C135.869 47.0533 135.847 46.9573 135.826 46.872C135.805 46.744 135.794 46.616 135.794 46.488C135.794 46.3387 135.794 46.2 135.794 46.072C135.794 45.9867 135.794 45.912 135.794 45.848C135.815 45.784 135.826 45.7093 135.826 45.624L135.858 45.4C135.922 45.0587 136.018 44.7493 136.146 44.472C136.445 43.7893 136.903 43.2027 137.522 42.712C137.65 42.6053 137.778 42.5093 137.906 42.424C138.034 42.3387 138.173 42.2533 138.322 42.168L138.738 41.944C138.781 41.9013 138.834 41.8587 138.898 41.816C138.962 41.7733 139.026 41.7413 139.09 41.72C139.133 41.6773 139.186 41.6453 139.25 41.624C139.314 41.6027 139.378 41.5813 139.442 41.56C139.677 41.4533 139.911 41.368 140.146 41.304C140.402 41.24 140.658 41.176 140.914 41.112C141.213 41.0267 141.511 40.952 141.81 40.888C142.13 40.824 142.461 40.76 142.802 40.696L143.57 40.568C143.869 40.5253 144.157 40.4827 144.434 40.44C144.733 40.376 145.031 40.3227 145.33 40.28C145.415 40.28 145.469 40.2693 145.49 40.248L146.194 40.12V39.608C146.194 39.6933 146.183 39.672 146.162 39.544C146.162 39.416 146.162 39.3413 146.162 39.32C146.162 39.3413 146.151 39.32 146.13 39.256C146.13 39.1707 146.13 39.1387 146.13 39.16C146.13 39.1387 146.119 39.1173 146.098 39.096C146.098 39.0747 146.098 39.0533 146.098 39.032C146.055 38.904 145.97 38.776 145.842 38.648C145.821 38.648 145.81 38.648 145.81 38.648C145.81 38.6267 145.789 38.616 145.746 38.616C145.703 38.6373 145.65 38.68 145.586 38.744C145.543 38.808 145.511 38.8613 145.49 38.904C145.426 39.0107 145.351 39.1493 145.266 39.32C145.181 39.4693 145.074 39.576 144.946 39.64C144.797 39.7253 144.658 39.672 144.53 39.48C144.402 39.288 144.295 39.1493 144.21 39.064C144.167 39.0213 144.135 39 144.114 39L143.826 39.288C143.762 39.3307 143.698 39.3733 143.634 39.416C143.57 39.4587 143.506 39.5013 143.442 39.544C143.314 39.608 143.175 39.6613 143.026 39.704C142.898 39.7253 142.77 39.7573 142.642 39.8C142.386 39.8853 142.13 39.9813 141.874 40.088C141.639 40.1733 141.394 40.2373 141.138 40.28C140.818 40.3227 140.519 40.2587 140.242 40.088C139.965 39.896 139.666 39.8107 139.346 39.832C139.047 39.832 138.749 39.8213 138.45 39.8C138.173 39.7787 137.885 39.7253 137.586 39.64C137.501 39.5973 137.447 39.576 137.426 39.576C137.405 39.576 137.383 39.5867 137.362 39.608C137.341 39.6293 137.319 39.6293 137.298 39.608C137.277 39.5867 137.255 39.5653 137.234 39.544C137.234 39.5227 137.213 39.5013 137.17 39.48C137.149 39.4373 137.117 39.3947 137.074 39.352C137.031 39.3093 137.01 39.288 137.01 39.288C136.989 39.2667 136.957 39.2133 136.914 39.128C136.871 39 136.861 38.872 136.882 38.744C136.903 38.5947 136.935 38.456 136.978 38.328C136.999 38.264 137.021 38.2 137.042 38.136C137.063 38.072 137.085 37.9973 137.106 37.912C137.319 37.5067 137.554 37.1547 137.81 36.856C138.045 36.5573 138.322 36.2693 138.642 35.992C138.983 35.7147 139.367 35.4693 139.794 35.256C139.965 35.1067 140.167 34.9787 140.402 34.872C140.615 34.7653 140.839 34.68 141.074 34.616C141.33 34.552 141.586 34.4987 141.842 34.456C142.333 34.328 142.866 34.232 143.442 34.168C144.018 34.0827 144.647 34.04 145.33 34.04H145.97C146.098 34.04 146.215 34.04 146.322 34.04C146.429 34.04 146.514 34.0507 146.578 34.072L146.802 34.104H146.962C147.239 34.104 147.442 34.136 147.57 34.2C147.933 34.2213 148.295 34.2853 148.658 34.392C148.914 34.4347 149.159 34.488 149.394 34.552C149.65 34.616 149.874 34.7013 150.066 34.808C150.343 34.8933 150.61 35.0213 150.866 35.192C151.143 35.3627 151.389 35.5333 151.602 35.704C151.602 35.7253 151.602 35.736 151.602 35.736C151.623 35.736 151.634 35.736 151.634 35.736C151.698 35.7787 151.751 35.832 151.794 35.896C151.858 35.9387 151.911 35.9813 151.954 36.024C152.978 36.9413 153.586 38.168 153.778 39.704C153.799 39.7253 153.81 39.7573 153.81 39.8C153.874 40.248 153.895 40.696 153.874 41.144C153.874 41.592 153.874 42.04 153.874 42.488V49.112C153.874 49.2187 153.874 49.336 153.874 49.464C153.895 49.592 153.906 49.72 153.906 49.848ZM146.29 44.504V44.12C146.29 44.0987 146.269 44.0987 146.226 44.12C146.205 44.12 146.173 44.1307 146.13 44.152C146.109 44.152 146.087 44.152 146.066 44.152C145.981 44.1947 145.885 44.2373 145.778 44.28C145.671 44.3013 145.565 44.3333 145.458 44.376C145.245 44.4613 145.021 44.5253 144.786 44.568C144.573 44.5893 144.349 44.6213 144.114 44.664C144.007 44.6853 143.89 44.7173 143.762 44.76C143.634 44.8027 143.517 44.856 143.41 44.92C143.325 44.984 143.261 45.048 143.218 45.112C143.069 45.304 142.994 45.496 142.994 45.688C142.994 45.8373 143.069 46.0293 143.218 46.264C143.261 46.2853 143.303 46.3173 143.346 46.36C143.41 46.3813 143.474 46.4133 143.538 46.456L143.698 46.52C143.975 46.5413 144.125 46.5627 144.146 46.584C144.167 46.584 144.295 46.5733 144.53 46.552C145.447 46.424 146.002 45.9013 146.194 44.984C146.237 44.856 146.258 44.7387 146.258 44.632C146.258 44.568 146.269 44.5253 146.29 44.504ZM164.084 50.072C164.084 50.1787 164.063 50.296 164.02 50.424C164.02 50.424 163.999 50.4667 163.956 50.552L163.924 50.584C163.903 50.648 163.828 50.7333 163.7 50.84C163.594 50.9253 163.53 50.9787 163.508 51L163.476 51.032C163.476 51.0533 163.466 51.064 163.444 51.064C163.444 51.064 163.444 51.0747 163.444 51.096C163.402 51.2027 163.359 51.256 163.316 51.256C163.231 51.384 163.146 51.512 163.06 51.64C162.996 51.768 162.911 51.8853 162.804 51.992C162.719 52.0987 162.612 52.1947 162.484 52.28C162.378 52.3653 162.271 52.4613 162.164 52.568C162.058 52.6747 161.972 52.792 161.908 52.92C161.887 52.984 161.855 53.0373 161.812 53.08C161.791 53.144 161.77 53.1973 161.748 53.24C161.599 53.5387 161.503 53.7733 161.46 53.944C161.418 54.1147 161.3 54.36 161.108 54.68C161.087 54.7653 161.012 54.8507 160.884 54.936C160.863 54.9787 160.82 55.0853 160.756 55.256C160.714 55.4267 160.628 55.5013 160.5 55.48C160.458 55.48 160.404 55.4373 160.34 55.352C160.298 55.288 160.266 55.2453 160.244 55.224C160.18 55.1173 160.127 55.0107 160.084 54.904C160.042 54.7973 159.978 54.7013 159.892 54.616C159.85 54.5733 159.818 54.5307 159.796 54.488C159.711 54.424 159.615 54.328 159.508 54.2C159.487 54.1573 159.455 54.1147 159.412 54.072C159.391 54.0293 159.359 53.9973 159.316 53.976C159.167 53.784 159.039 53.5707 158.932 53.336C158.826 53.1227 158.719 52.9093 158.612 52.696C158.591 52.632 158.57 52.568 158.548 52.504C158.527 52.44 158.495 52.376 158.452 52.312L158.26 51.928C158.111 51.672 157.951 51.4587 157.78 51.288C157.78 51.352 157.759 51.384 157.716 51.384C157.695 51.384 157.674 51.352 157.652 51.288C157.631 51.2453 157.61 51.2133 157.588 51.192C157.588 51.1707 157.578 51.1493 157.556 51.128C157.492 51.3413 157.45 51.6613 157.428 52.088C157.407 52.536 157.396 52.9733 157.396 53.4C157.418 53.848 157.428 54.2 157.428 54.456C157.428 54.712 157.418 54.7653 157.396 54.616C157.268 54.1253 157.226 53.528 157.268 52.824C157.311 52.1413 157.279 51.5227 157.172 50.968C157.13 50.9467 157.087 50.9253 157.044 50.904C157.023 50.8827 156.991 50.8613 156.948 50.84C156.714 50.648 156.596 50.4347 156.596 50.2C156.575 49.9867 156.564 49.7733 156.564 49.56C156.586 49.3467 156.596 49.144 156.596 48.952V29.912C156.596 29.6987 156.586 29.4747 156.564 29.24C156.564 29.0053 156.628 28.8027 156.756 28.632L156.948 28.44C157.098 28.3333 157.268 28.28 157.46 28.28H162.804C162.911 28.28 163.018 28.28 163.124 28.28C163.252 28.2587 163.37 28.2693 163.476 28.312C163.54 28.3333 163.594 28.3653 163.636 28.408C163.7 28.4293 163.754 28.4613 163.796 28.504C163.839 28.5467 163.882 28.6107 163.924 28.696C164.01 28.8027 164.052 28.952 164.052 29.144V49.112C164.052 49.2613 164.063 49.4213 164.084 49.592C164.106 49.7413 164.106 49.9013 164.084 50.072ZM172.947 33.656C172.691 33.6987 172.424 33.6667 172.147 33.56C171.891 33.4533 171.635 33.3253 171.379 33.176C171.315 33.1547 171.24 33.1333 171.155 33.112C171.091 33.0693 171.016 33.0373 170.931 33.016C170.76 32.9733 170.579 32.9307 170.387 32.888C170.216 32.824 170.045 32.76 169.875 32.696C169.811 32.6747 169.747 32.664 169.683 32.664C169.64 32.6427 169.587 32.6213 169.523 32.6L169.267 32.504C169.245 32.4613 169.213 32.4293 169.171 32.408C169.149 32.3867 169.117 32.3653 169.075 32.344C168.925 32.1947 168.84 32.0347 168.819 31.864V28.6C168.819 28.408 168.808 28.1947 168.787 27.96C168.787 27.7253 168.851 27.5227 168.979 27.352L169.171 27.16C169.235 27.1173 169.331 27.0747 169.459 27.032C169.629 26.9893 169.8 26.968 169.971 26.968C170.163 26.968 170.333 26.9787 170.483 27H174.099C174.291 26.9787 174.483 26.968 174.675 26.968C174.888 26.9467 175.091 26.9573 175.283 27C175.304 27 175.315 27.0107 175.315 27.032C175.315 27.032 175.325 27.032 175.347 27.032C175.368 27.032 175.421 27.0533 175.507 27.096C175.613 27.1387 175.699 27.2133 175.763 27.32C175.869 27.448 175.923 27.5653 175.923 27.672C175.944 27.7787 175.955 27.864 175.955 27.928C175.976 28.0133 175.987 28.0987 175.987 28.184C175.987 28.248 175.987 28.3227 175.987 28.408C175.987 28.856 175.976 29.3147 175.955 29.784C175.955 30.2533 175.955 30.712 175.955 31.16V31.736C175.955 31.8427 175.944 31.928 175.923 31.992C175.901 32.0987 175.837 32.2053 175.731 32.312L175.603 32.44C175.56 32.4827 175.517 32.504 175.475 32.504C175.453 32.5253 175.432 32.5573 175.411 32.6C175.411 32.6427 175.389 32.6747 175.347 32.696C175.347 32.696 175.325 32.696 175.283 32.696C175.24 32.6747 175.197 32.664 175.155 32.664C175.112 32.664 175.059 32.6747 174.995 32.696C174.931 32.7173 174.877 32.7387 174.835 32.76C174.792 32.7813 174.739 32.8027 174.675 32.824C174.611 32.824 174.557 32.8347 174.515 32.856C174.472 32.856 174.44 32.8667 174.419 32.888C174.269 32.952 174.12 33.0373 173.971 33.144C173.821 33.2507 173.661 33.3573 173.491 33.464C173.32 33.5493 173.139 33.6133 172.947 33.656ZM176.083 50.424C176.061 50.4453 176.051 50.4667 176.051 50.488C176.051 50.5093 176.04 50.5307 176.019 50.552V50.584C175.976 50.6267 175.933 50.6693 175.891 50.712C175.848 50.7547 175.805 50.7973 175.763 50.84C175.763 50.84 175.752 50.8507 175.731 50.872C175.731 50.872 175.72 50.872 175.699 50.872C175.699 50.872 175.688 50.8827 175.667 50.904C175.667 50.904 175.656 50.904 175.635 50.904C175.592 50.9467 175.549 51.0107 175.507 51.096C175.485 51.1173 175.464 51.1493 175.443 51.192C175.443 51.2347 175.421 51.2667 175.379 51.288C175.293 51.3947 175.208 51.4907 175.123 51.576C175.037 51.6827 174.952 51.7893 174.867 51.896V51.928H174.835C174.835 51.9493 174.813 51.9813 174.771 52.024L174.355 52.728C174.248 52.92 174.12 53.0587 173.971 53.144C173.885 53.1867 173.843 53.208 173.843 53.208C173.821 53.3787 173.832 53.5813 173.875 53.816C173.917 54.072 173.939 54.2853 173.939 54.456C173.939 54.648 173.864 54.7227 173.715 54.68C173.544 54.6373 173.459 54.52 173.459 54.328C173.459 54.1573 173.48 53.9547 173.523 53.72C173.587 53.5067 173.608 53.3147 173.587 53.144C173.565 53.144 173.523 53.112 173.459 53.048C173.395 52.984 173.341 52.9093 173.299 52.824C173.256 52.76 173.213 52.6853 173.171 52.6C173.107 52.536 173.064 52.4827 173.043 52.44L172.755 52.152C172.733 52.3013 172.733 52.5147 172.755 52.792C172.797 53.0693 172.765 53.1653 172.659 53.08C172.509 52.9733 172.467 52.8133 172.531 52.6C172.595 52.3867 172.605 52.1947 172.563 52.024C172.541 51.9813 172.509 51.9493 172.467 51.928C172.445 51.9067 172.413 51.8747 172.371 51.832L172.147 51.608C172.104 51.544 172.04 51.4693 171.955 51.384C171.912 51.5973 171.891 51.8213 171.891 52.056C171.891 52.2907 171.869 52.5253 171.827 52.76C171.805 52.7813 171.784 52.7707 171.763 52.728C171.741 52.6853 171.72 52.6533 171.699 52.632C171.635 52.5467 171.571 52.472 171.507 52.408C171.464 52.344 171.4 52.2907 171.315 52.248C171.208 52.2053 171.101 52.1947 170.995 52.216C170.888 52.2373 170.781 52.2053 170.675 52.12C170.589 52.056 170.515 51.9813 170.451 51.896C170.408 51.832 170.355 51.7573 170.291 51.672C170.269 51.672 170.248 51.6613 170.227 51.64C170.205 51.6187 170.184 51.6293 170.163 51.672C170.141 52.0347 170.12 52.408 170.099 52.792C170.099 53.176 170.077 53.56 170.035 53.944C170.035 53.9867 170.013 53.9547 169.971 53.848C169.949 53.7627 169.928 53.6987 169.907 53.656C169.864 53.528 169.821 53.3787 169.779 53.208C169.736 53.0587 169.693 52.92 169.651 52.792C169.565 52.4933 169.512 52.2907 169.491 52.184C169.491 52.0773 169.491 51.992 169.491 51.928C169.512 51.864 169.501 51.768 169.459 51.64C169.437 51.5333 169.363 51.3093 169.235 50.968L169.043 50.872C168.893 50.7653 168.787 50.6373 168.723 50.488C168.68 50.3387 168.659 50.1893 168.659 50.04C168.637 49.8907 168.627 49.7413 168.627 49.592C168.648 49.4213 168.659 49.2613 168.659 49.112V35.224C168.659 35.1173 168.669 35.032 168.691 34.968C168.733 34.84 168.776 34.7547 168.819 34.712L169.011 34.52C169.096 34.456 169.235 34.4027 169.427 34.36C169.64 34.3173 169.853 34.3067 170.067 34.328C170.301 34.3493 170.504 34.36 170.675 34.36H173.843C174.099 34.36 174.355 34.3493 174.611 34.328C174.888 34.3067 175.155 34.3173 175.411 34.36C175.453 34.36 175.496 34.3707 175.539 34.392C175.581 34.4133 175.624 34.4347 175.667 34.456C175.731 34.4773 175.773 34.4987 175.795 34.52C175.859 34.584 175.901 34.6373 175.923 34.68C176.008 34.7653 176.072 34.904 176.115 35.096C176.136 35.1813 176.136 35.288 176.115 35.416C176.115 35.5227 176.115 35.6293 176.115 35.736C176.136 36.1413 176.136 36.5467 176.115 36.952C176.115 37.336 176.115 37.7307 176.115 38.136V49.24C176.115 49.3253 176.115 49.4107 176.115 49.496C176.115 49.5813 176.125 49.6773 176.147 49.784C176.147 49.8693 176.147 49.9547 176.147 50.04C176.147 50.1253 176.125 50.2533 176.083 50.424ZM188.838 55.896C188.838 55.9173 188.817 55.896 188.774 55.832C188.753 55.7893 188.732 55.7573 188.71 55.736C188.689 55.6933 188.646 55.6507 188.582 55.608C188.54 55.5653 188.497 55.5333 188.454 55.512C188.369 55.4693 188.284 55.448 188.198 55.448C188.134 55.4693 188.049 55.4907 187.942 55.512H187.686C187.644 55.0213 187.622 54.4133 187.622 53.688C187.622 52.9627 187.601 52.3653 187.558 51.896C187.558 51.896 187.505 51.896 187.398 51.896C187.334 52.0453 187.27 52.2053 187.206 52.376C187.142 52.568 187.057 52.7387 186.95 52.888C186.929 52.9307 186.876 52.9947 186.79 53.08C186.726 53.144 186.662 53.1867 186.598 53.208C186.534 53.2507 186.47 53.304 186.406 53.368C186.364 53.432 186.31 53.5173 186.246 53.624C186.204 53.7307 186.129 53.7947 186.022 53.816C185.894 53.8373 185.809 53.7733 185.766 53.624C185.745 53.496 185.713 53.4 185.67 53.336C185.628 53.2933 185.574 53.24 185.51 53.176C185.468 53.112 185.457 53.0907 185.478 53.112C185.457 53.0907 185.446 53.0693 185.446 53.048C185.446 53.048 185.436 53.0373 185.414 53.016C185.393 52.9733 185.372 52.9307 185.35 52.888C185.329 52.8453 185.297 52.8133 185.254 52.792C185.148 52.6213 185.041 52.44 184.934 52.248C184.828 52.0773 184.71 51.9173 184.582 51.768L184.39 51.576C184.369 51.512 184.326 51.4693 184.262 51.448C184.262 51.4267 184.252 51.416 184.23 51.416C184.188 51.3947 184.134 51.384 184.07 51.384C184.07 51.5547 184.049 51.672 184.006 51.736C183.985 51.7573 183.964 51.7467 183.942 51.704C183.921 51.6613 183.9 51.6293 183.878 51.608C183.772 51.5013 183.686 51.4267 183.622 51.384L183.43 51.288C183.388 51.288 183.366 51.3093 183.366 51.352C183.302 51.672 183.313 51.9707 183.398 52.248C183.484 52.5253 183.377 52.6747 183.078 52.696C182.993 52.7173 182.908 52.7173 182.822 52.696C182.758 52.6747 182.684 52.6533 182.598 52.632C182.492 52.632 182.385 52.6427 182.278 52.664C182.172 52.7067 182.065 52.696 181.958 52.632C181.745 52.5253 181.564 52.3653 181.414 52.152C181.286 51.9387 181.158 51.736 181.03 51.544C180.945 51.416 180.86 51.3093 180.774 51.224C180.71 51.2027 180.614 51.1493 180.486 51.064C180.465 51.0427 180.433 51.032 180.39 51.032C180.348 51.032 180.305 51.0213 180.262 51L180.006 50.904C179.985 50.8613 179.953 50.8293 179.91 50.808C179.889 50.7867 179.857 50.7653 179.814 50.744C179.665 50.5947 179.58 50.4347 179.558 50.264V46.456C179.558 46.136 179.644 45.8693 179.814 45.656C179.921 45.4213 180.081 45.2293 180.294 45.08C180.508 44.9093 180.7 44.7493 180.87 44.6C181.041 44.4507 181.212 44.3013 181.382 44.152C181.574 44.0027 181.756 43.8533 181.926 43.704C182.14 43.5333 182.353 43.352 182.566 43.16C182.801 42.968 183.036 42.776 183.27 42.584L184.902 41.176C184.902 41.176 184.945 41.144 185.03 41.08C185.137 40.9947 185.233 40.9093 185.318 40.824C185.446 40.7173 185.564 40.6107 185.67 40.504C185.798 40.3973 185.958 40.2693 186.15 40.12L186.31 39.864H186.182C186.054 39.8853 185.926 39.9387 185.798 40.024C185.67 40.088 185.553 40.152 185.446 40.216C185.318 40.2587 185.19 40.3013 185.062 40.344C184.934 40.3867 184.806 40.4187 184.678 40.44C184.593 40.44 184.529 40.44 184.486 40.44C184.465 40.4187 184.401 40.4187 184.294 40.44C184.124 40.4613 183.953 40.5253 183.782 40.632C183.633 40.7387 183.462 40.8133 183.27 40.856C183.014 40.8773 182.769 40.856 182.534 40.792C182.321 40.7067 182.097 40.6213 181.862 40.536C181.756 40.4933 181.617 40.472 181.446 40.472C181.34 40.472 181.286 40.472 181.286 40.472C181.265 40.4933 181.244 40.536 181.222 40.6C181.222 40.664 181.201 40.7173 181.158 40.76C181.137 40.76 181.094 40.728 181.03 40.664C180.881 40.5787 180.753 40.44 180.646 40.248C180.625 40.2053 180.604 40.1627 180.582 40.12C180.561 40.0773 180.529 40.0453 180.486 40.024C180.465 40.0667 180.454 40.152 180.454 40.28C180.454 40.3867 180.422 40.44 180.358 40.44C180.294 40.4613 180.262 40.408 180.262 40.28C180.241 40.216 180.23 40.1413 180.23 40.056C180.23 39.9707 180.209 39.896 180.166 39.832C180.145 39.7467 180.113 39.6933 180.07 39.672C180.028 39.6293 179.985 39.576 179.942 39.512C179.9 39.4693 179.868 39.416 179.846 39.352C179.825 39.2667 179.804 39.192 179.782 39.128C179.761 38.9573 179.75 38.7867 179.75 38.616C179.772 38.4453 179.782 38.2747 179.782 38.104V36.12C179.782 35.9493 179.772 35.768 179.75 35.576C179.75 35.3627 179.772 35.1813 179.814 35.032C179.9 34.584 180.177 34.36 180.646 34.36H194.918C195.046 34.4027 195.174 34.456 195.302 34.52C195.473 34.6267 195.569 34.7547 195.59 34.904C195.633 35.032 195.654 35.1707 195.654 35.32C195.676 35.4693 195.676 35.6187 195.654 35.768C195.654 35.896 195.654 36.024 195.654 36.152V38.488C195.654 38.6587 195.654 38.8293 195.654 39C195.676 39.1707 195.665 39.3413 195.622 39.512C195.601 39.576 195.58 39.64 195.558 39.704C195.537 39.768 195.505 39.8213 195.462 39.864C195.334 40.0987 195.142 40.312 194.886 40.504C194.716 40.632 194.63 40.76 194.63 40.888C194.652 41.016 194.684 41.176 194.726 41.368C194.769 41.5387 194.748 41.784 194.662 42.104C194.662 42.1253 194.641 42.168 194.598 42.232C194.577 42.296 194.566 42.3173 194.566 42.296C194.524 42.0613 194.502 41.816 194.502 41.56C194.524 41.304 194.513 41.0587 194.47 40.824L194.438 40.856C194.417 40.8773 194.396 40.8987 194.374 40.92C194.353 40.9413 194.321 40.9627 194.278 40.984C194.278 41.0053 194.268 41.0267 194.246 41.048C194.225 41.0693 194.204 41.0907 194.182 41.112C194.161 41.1333 194.129 41.1547 194.086 41.176L191.59 43.352C191.569 43.3733 191.537 43.3947 191.494 43.416C191.473 43.4373 191.441 43.4693 191.398 43.512L189.958 44.76L189.606 45.08L189.35 45.304L189.254 45.496H195.462C195.697 45.496 195.889 45.5707 196.038 45.72C196.145 45.784 196.23 45.912 196.294 46.104C196.316 46.1467 196.326 46.2107 196.326 46.296C196.369 46.488 196.38 46.7013 196.358 46.936C196.337 47.1493 196.326 47.352 196.326 47.544V50.136C196.326 50.2 196.316 50.264 196.294 50.328C196.294 50.3707 196.284 50.424 196.262 50.488C196.241 50.5093 196.23 50.5307 196.23 50.552C196.23 50.552 196.23 50.5627 196.23 50.584C196.23 50.584 196.22 50.584 196.198 50.584C196.156 50.6693 196.102 50.744 196.038 50.808C195.953 50.8933 195.857 50.9787 195.75 51.064C195.665 51.1493 195.569 51.2133 195.462 51.256C195.249 51.4053 195.025 51.416 194.79 51.288C194.748 51.2667 194.705 51.2347 194.662 51.192C194.62 51.1707 194.577 51.16 194.534 51.16C194.47 51.16 194.396 51.192 194.31 51.256C194.246 51.3413 194.182 51.4053 194.118 51.448C194.033 51.4693 193.958 51.4587 193.894 51.416C193.83 51.3733 193.756 51.3947 193.67 51.48C193.436 51.7573 193.254 52.0347 193.126 52.312C193.041 52.4613 192.966 52.6107 192.902 52.76C192.838 52.9093 192.774 53.048 192.71 53.176C192.689 53.2827 192.636 53.3787 192.55 53.464C192.486 53.6133 192.39 53.7307 192.262 53.816C192.156 53.9653 192.113 54.04 192.134 54.04C192.177 54.0613 192.134 54.1573 192.006 54.328C191.942 54.392 191.9 54.4133 191.878 54.392C191.836 54.3707 191.804 54.3387 191.782 54.296C191.782 54.2533 191.772 54.2213 191.75 54.2C191.729 54.0933 191.708 53.9867 191.686 53.88C191.686 53.7733 191.676 53.6773 191.654 53.592C191.42 53.4 191.228 53.176 191.078 52.92C190.95 52.6853 190.801 52.4613 190.63 52.248C190.545 52.1627 190.47 52.1093 190.406 52.088C190.385 52.088 190.364 52.088 190.342 52.088C190.321 52.1093 190.289 52.12 190.246 52.12C190.225 52.12 190.204 52.12 190.182 52.12C190.182 52.1413 190.172 52.152 190.15 52.152C190.086 52.1947 190.022 52.2373 189.958 52.28C189.894 52.344 189.82 52.3547 189.734 52.312C189.692 52.2907 189.628 52.2373 189.542 52.152C189.521 52.152 189.489 52.1413 189.446 52.12C189.425 52.12 189.393 52.12 189.35 52.12C189.265 52.12 189.18 52.0987 189.094 52.056C189.073 52.056 189.041 52.0347 188.998 51.992C188.977 51.9707 188.966 51.9813 188.966 52.024C188.945 52.344 188.924 52.7387 188.902 53.208C188.902 53.6987 188.902 54.1893 188.902 54.68C188.902 55.1707 188.881 55.576 188.838 55.896ZM210.02 55.384C209.999 55.4907 209.988 55.6613 209.988 55.896C209.988 56.1307 209.956 56.1947 209.892 56.088C209.807 55.9173 209.786 55.7147 209.828 55.48C209.892 55.2667 209.871 55.0747 209.764 54.904C209.722 54.8187 209.7 54.8613 209.7 55.032C209.7 55.224 209.7 55.4053 209.7 55.576C209.7 55.7467 209.679 55.8 209.636 55.736C209.551 55.5227 209.519 55.2987 209.54 55.064C209.583 54.8507 209.583 54.6373 209.54 54.424C209.434 54.3387 209.327 54.2427 209.22 54.136C209.135 54.0293 209.06 53.9333 208.996 53.848C208.911 53.7413 208.836 53.6347 208.772 53.528C208.708 53.4427 208.644 53.3573 208.58 53.272C208.41 53.1013 208.25 52.888 208.1 52.632L207.716 51.96C207.716 51.9387 207.684 51.864 207.62 51.736C207.556 51.6293 207.503 51.5547 207.46 51.512C207.418 51.4693 207.375 51.4373 207.332 51.416C207.247 51.416 207.204 51.448 207.204 51.512C207.183 51.7253 207.172 51.928 207.172 52.12C207.172 52.3333 207.151 52.5467 207.108 52.76C207.108 52.8027 207.098 52.7707 207.076 52.664C207.055 52.5573 207.044 52.472 207.044 52.408C207.023 52.2373 207.002 52.056 206.98 51.864C206.98 51.672 206.97 51.4907 206.948 51.32H206.756C205.476 51.2773 204.314 51.096 203.268 50.776C202.223 50.456 201.327 49.9653 200.58 49.304L200.388 49.144L200.164 48.92C199.61 48.3227 199.151 47.6187 198.788 46.808C198.447 45.9973 198.223 45.0373 198.116 43.928C198.095 43.928 198.084 43.9067 198.084 43.864C198.063 43.8213 198.052 43.7147 198.052 43.544C198.052 43.5227 198.052 43.5013 198.052 43.48C198.074 43.4587 198.084 43.4373 198.084 43.416C198.063 43.3093 198.052 43.2027 198.052 43.096C198.052 42.968 198.052 42.84 198.052 42.712V42.488C198.074 41.208 198.276 40.0667 198.66 39.064C199.044 38.0613 199.578 37.208 200.26 36.504C200.303 36.4827 200.324 36.4613 200.324 36.44C200.346 36.4187 200.367 36.3973 200.388 36.376C200.41 36.3547 200.452 36.3227 200.516 36.28C200.58 36.216 200.612 36.184 200.612 36.184C200.676 36.12 200.73 36.0773 200.772 36.056C202.351 34.712 204.484 34.04 207.172 34.04H207.844C207.93 34.04 207.983 34.0507 208.004 34.072C208.196 34.072 208.335 34.0827 208.42 34.104C208.719 34.0827 208.943 34.104 209.092 34.168C209.199 34.1893 209.306 34.2107 209.412 34.232C209.519 34.232 209.626 34.2533 209.732 34.296C210.842 34.5093 211.802 34.8827 212.612 35.416C213.423 35.928 214.095 36.5467 214.628 37.272C214.735 37.3573 214.82 37.464 214.884 37.592C214.948 37.72 215.012 37.8373 215.076 37.944L215.332 38.392C215.354 38.456 215.375 38.52 215.396 38.584C215.439 38.6267 215.471 38.68 215.492 38.744C215.535 38.808 215.567 38.872 215.588 38.936C215.61 39 215.631 39.064 215.652 39.128C215.759 39.4267 215.855 39.736 215.94 40.056C216.047 40.376 216.122 40.696 216.164 41.016C216.164 41.1013 216.175 41.1653 216.196 41.208C216.239 41.3787 216.26 41.5493 216.26 41.72C216.26 41.8907 216.271 42.0613 216.292 42.232V43.704C216.292 44.0027 216.164 44.248 215.908 44.44C215.844 44.4827 215.77 44.5467 215.684 44.632C215.642 44.7387 215.599 44.792 215.556 44.792C215.556 44.792 215.514 44.7493 215.428 44.664C215.386 44.664 215.322 44.6747 215.236 44.696C215.151 44.7173 215.087 44.7387 215.044 44.76C214.959 44.7813 214.884 44.8027 214.82 44.824C214.756 44.824 214.682 44.824 214.596 44.824C214.426 44.8453 214.266 44.888 214.116 44.952C213.967 45.016 213.807 45.0693 213.636 45.112C213.508 45.1333 213.37 45.144 213.22 45.144C213.071 45.144 212.922 45.144 212.772 45.144C212.58 45.1653 212.399 45.208 212.228 45.272C212.079 45.336 211.919 45.3573 211.748 45.336C211.62 45.3147 211.492 45.2933 211.364 45.272C211.236 45.2293 211.098 45.1973 210.948 45.176C210.863 45.1973 210.778 45.2187 210.692 45.24C210.628 45.2613 210.554 45.2827 210.468 45.304C210.404 45.3253 210.34 45.336 210.276 45.336C210.212 45.336 210.148 45.3573 210.084 45.4C210.02 45.4427 209.924 45.528 209.796 45.656H214.18C214.266 45.656 214.351 45.656 214.436 45.656C214.543 45.6347 214.65 45.624 214.756 45.624H214.916C215.044 45.624 215.194 45.6453 215.364 45.688C215.407 45.688 215.439 45.6987 215.46 45.72C215.482 45.72 215.503 45.72 215.524 45.72C215.674 45.784 215.78 45.9013 215.844 46.072C215.887 46.2 215.898 46.3067 215.876 46.392C215.876 46.5413 215.844 46.712 215.78 46.904L215.684 47.16C215.556 47.5013 215.386 47.7893 215.172 48.024C215.087 48.1307 215.002 48.2373 214.916 48.344C214.831 48.4507 214.735 48.5573 214.628 48.664C214.543 48.7493 214.458 48.8347 214.372 48.92C214.287 49.0053 214.191 49.0907 214.084 49.176L213.892 49.368C213.786 49.4747 213.69 49.6027 213.604 49.752C213.54 49.88 213.466 50.008 213.38 50.136C213.316 50.2 213.274 50.2533 213.252 50.296C213.295 50.2533 213.295 50.2747 213.252 50.36C213.21 50.4453 213.167 50.4667 213.124 50.424C213.082 50.5307 213.028 50.6267 212.964 50.712C212.922 50.7973 212.858 50.9253 212.772 51.096C212.73 51.2027 212.676 51.2987 212.612 51.384C212.57 51.4907 212.527 51.5973 212.484 51.704C212.356 51.9387 212.239 52.1307 212.132 52.28C212.111 52.344 212.079 52.3973 212.036 52.44C212.015 52.504 211.983 52.5573 211.94 52.6L211.812 52.792C211.791 52.8133 211.77 52.8453 211.748 52.888C211.727 52.9307 211.695 52.9733 211.652 53.016C211.524 53.1653 211.396 53.304 211.268 53.432C211.14 53.5813 211.012 53.7307 210.884 53.88L210.66 54.104C210.618 54.168 210.564 54.232 210.5 54.296C210.458 54.36 210.404 54.4133 210.34 54.456C210.255 54.5413 210.191 54.584 210.148 54.584C210.127 54.712 210.106 54.84 210.084 54.968C210.084 55.1173 210.063 55.256 210.02 55.384ZM206.02 40.568H206.18C206.458 40.568 206.735 40.568 207.012 40.568C207.29 40.5467 207.567 40.5467 207.844 40.568L208.452 40.536V40.152C208.431 40.1307 208.42 40.1093 208.42 40.088C208.42 40.0027 208.41 39.9067 208.388 39.8C208.388 39.6933 208.378 39.5973 208.356 39.512L208.164 39.064C208.143 39.0427 208.132 39.032 208.132 39.032C208.132 39.0107 208.122 38.9893 208.1 38.968C207.994 38.8187 207.876 38.7227 207.748 38.68C207.748 38.6587 207.716 38.648 207.652 38.648H207.62C207.471 38.648 207.322 38.6587 207.172 38.68C207.023 38.68 206.874 38.6907 206.724 38.712C206.682 38.7333 206.618 38.7547 206.532 38.776C206.468 38.776 206.404 38.7973 206.34 38.84C206.319 38.8613 206.308 38.8827 206.308 38.904C206.308 38.904 206.298 38.9147 206.276 38.936C206.234 38.9787 206.202 39.032 206.18 39.096C206.159 39.16 206.127 39.2133 206.084 39.256C205.956 39.5973 205.892 39.8427 205.892 39.992C205.914 40.1413 205.956 40.3333 206.02 40.568ZM206.884 46.648C206.927 46.6693 207.055 46.68 207.268 46.68C207.396 46.6373 207.514 46.5733 207.62 46.488C207.748 46.4027 207.855 46.3173 207.94 46.232L208.228 45.944C208.399 45.816 208.527 45.7413 208.612 45.72C208.698 45.6987 208.794 45.6773 208.9 45.656C208.751 45.6133 208.602 45.5707 208.452 45.528C208.324 45.4853 208.186 45.4427 208.036 45.4C207.802 45.3147 207.567 45.2187 207.332 45.112C207.119 45.0053 206.895 44.9093 206.66 44.824L206.02 44.632C205.978 44.5893 205.935 44.568 205.892 44.568V44.728C205.892 44.7493 205.892 44.8453 205.892 45.016C205.914 45.1653 205.924 45.2613 205.924 45.304C205.946 45.5387 205.999 45.7733 206.084 46.008C206.191 46.2213 206.33 46.392 206.5 46.52L206.756 46.616C206.778 46.6373 206.82 46.648 206.884 46.648ZM233.254 39.192C233.254 39.32 233.254 39.448 233.254 39.576C233.275 39.704 233.286 39.8427 233.286 39.992C233.286 40.0773 233.286 40.1627 233.286 40.248C233.286 40.3333 233.264 40.4187 233.222 40.504C233.158 40.6747 233.051 40.8133 232.902 40.92C232.902 40.92 232.891 40.92 232.87 40.92C232.87 40.92 232.87 40.9307 232.87 40.952C232.848 40.952 232.827 40.9627 232.806 40.984C232.806 40.984 232.795 40.984 232.774 40.984C232.667 41.1333 232.571 41.2827 232.486 41.432C232.4 41.5813 232.304 41.72 232.198 41.848C232.176 41.8693 232.155 41.9013 232.134 41.944C232.112 41.9653 232.08 41.9867 232.038 42.008C232.016 42.008 231.995 42.0187 231.974 42.04C231.974 42.04 231.963 42.0507 231.942 42.072C231.942 42.072 231.931 42.072 231.91 42.072C231.888 42.0933 231.856 42.2427 231.814 42.52C231.771 42.7973 231.718 42.9787 231.654 43.064C231.632 43.0853 231.59 43.0747 231.526 43.032C231.462 42.904 231.43 42.7653 231.43 42.616C231.408 42.5093 231.387 42.392 231.366 42.264C231.366 42.136 231.344 42.008 231.302 41.88L231.11 41.688C231.067 41.6453 230.992 41.5707 230.886 41.464C230.8 41.3573 230.704 41.2613 230.598 41.176L230.566 41.144C230.544 41.144 230.534 41.1547 230.534 41.176C230.534 41.176 230.523 41.176 230.502 41.176C230.459 41.2187 230.406 41.2827 230.342 41.368C230.299 41.432 230.235 41.4747 230.15 41.496C230.043 41.5173 229.958 41.4747 229.894 41.368C229.872 41.3893 229.819 41.4 229.734 41.4C229.648 41.4 229.584 41.3893 229.542 41.368L229.382 41.752C229.318 41.9013 229.243 42.0293 229.158 42.136C229.094 42.2427 229.008 42.3493 228.902 42.456C228.838 42.52 228.774 42.5947 228.71 42.68C228.646 42.744 228.582 42.7973 228.518 42.84C228.432 42.9253 228.39 42.9467 228.39 42.904C228.347 42.648 228.326 42.4453 228.326 42.296C228.347 42.1253 228.326 41.9013 228.262 41.624C228.219 41.6453 228.176 41.6773 228.134 41.72C228.048 41.7627 228.006 41.7947 228.006 41.816C227.963 41.9653 227.931 42.1253 227.91 42.296C227.91 42.4667 227.888 42.6267 227.846 42.776C227.824 42.7973 227.792 42.7973 227.75 42.776C227.728 42.7547 227.707 42.7333 227.686 42.712C227.664 42.5413 227.643 42.3813 227.622 42.232C227.622 42.0827 227.6 41.9333 227.558 41.784C227.558 41.7413 227.536 41.72 227.494 41.72C227.472 41.6987 227.451 41.6773 227.43 41.656C227.43 41.656 227.419 41.6453 227.398 41.624C227.376 41.6027 227.344 41.5813 227.302 41.56C227.302 41.6667 227.28 41.7413 227.238 41.784C227.238 41.784 227.184 41.7307 227.078 41.624H227.014C226.992 41.624 226.971 41.6133 226.95 41.592C226.95 41.5493 226.939 41.5173 226.918 41.496C226.896 41.5173 226.875 41.5387 226.854 41.56C226.832 41.56 226.811 41.5707 226.79 41.592C226.747 41.656 226.704 41.72 226.662 41.784C226.619 41.848 226.576 41.912 226.534 41.976C226.512 41.9973 226.502 42.0293 226.502 42.072C226.502 42.0933 226.491 42.1253 226.47 42.168C226.406 42.36 226.363 42.5627 226.342 42.776C226.342 42.9893 226.342 43.2027 226.342 43.416V49.752C226.342 49.8587 226.342 49.976 226.342 50.104C226.363 50.2107 226.352 50.3173 226.31 50.424C226.31 50.4453 226.299 50.4667 226.278 50.488C226.278 50.488 226.278 50.4987 226.278 50.52C226.278 50.52 226.256 50.5413 226.214 50.584C226.128 50.712 226.054 50.7973 225.99 50.84C226.032 50.7973 226.011 50.8187 225.926 50.904C225.84 50.968 225.787 51.0213 225.766 51.064C225.766 51.0853 225.755 51.1067 225.734 51.128C225.712 51.1707 225.691 51.224 225.67 51.288C225.67 51.352 225.638 51.3733 225.574 51.352C225.574 51.3733 225.563 51.384 225.542 51.384C225.499 51.4693 225.478 51.5227 225.478 51.544C225.435 51.5867 225.392 51.64 225.35 51.704C225.328 51.768 225.296 51.832 225.254 51.896C225.083 52.1947 224.966 52.3867 224.902 52.472C224.859 52.5787 224.742 52.7493 224.55 52.984C224.528 53.0053 224.496 53.0267 224.454 53.048C224.432 53.0907 224.4 53.1333 224.358 53.176C224.336 53.1973 224.294 53.2827 224.23 53.432C224.166 53.5813 224.112 53.6667 224.07 53.688C224.048 53.7093 224.006 53.6667 223.942 53.56C223.92 53.496 223.91 53.4213 223.91 53.336C223.91 53.272 223.888 53.208 223.846 53.144L223.654 52.92C223.568 52.8347 223.494 52.728 223.43 52.6C223.302 52.4293 223.195 52.248 223.11 52.056C223.024 51.864 222.928 51.672 222.822 51.48C222.822 51.4587 222.811 51.448 222.79 51.448C222.79 51.448 222.79 51.4373 222.79 51.416C222.726 51.352 222.694 51.3413 222.694 51.384C222.651 51.5547 222.63 51.736 222.63 51.928C222.651 52.12 222.63 52.3013 222.566 52.472C222.544 52.536 222.523 52.504 222.502 52.376C222.48 52.248 222.459 52.152 222.438 52.088L222.182 51.352V51.32C222.118 51.384 222.075 51.416 222.054 51.416C222.011 51.416 221.968 51.3947 221.926 51.352C221.862 51.5013 221.798 51.6507 221.734 51.8C221.691 51.9493 221.627 52.1093 221.542 52.28C221.52 52.3013 221.499 52.3333 221.478 52.376C221.478 52.44 221.456 52.4933 221.414 52.536C221.392 52.5573 221.371 52.6 221.35 52.664C221.328 52.7493 221.307 52.7707 221.286 52.728C221.222 52.3867 221.211 52.1627 221.254 52.056C221.296 51.9707 221.232 51.7893 221.062 51.512C220.998 51.5547 220.944 51.6187 220.902 51.704C220.88 51.8533 220.859 52.0133 220.838 52.184C220.838 52.3547 220.816 52.5253 220.774 52.696C220.774 52.7173 220.742 52.7813 220.678 52.888C220.635 53.016 220.582 53.0907 220.518 53.112C220.411 53.1333 220.326 53.0587 220.262 52.888C220.198 52.7173 220.155 52.6107 220.134 52.568C220.048 52.376 219.984 52.1733 219.942 51.96C219.92 51.768 219.867 51.5867 219.782 51.416C219.739 51.3733 219.696 51.3307 219.654 51.288C219.611 51.2453 219.568 51.2027 219.526 51.16C219.462 51.1173 219.43 51.0747 219.43 51.032C219.387 51.0107 219.323 51 219.238 51C219.216 51 219.195 51 219.174 51C219.174 50.9787 219.152 50.968 219.11 50.968C218.939 50.904 218.8 50.7973 218.694 50.648C218.651 50.6053 218.608 50.52 218.566 50.392C218.523 50.2427 218.502 50.072 218.502 49.88C218.523 49.688 218.534 49.5173 218.534 49.368V37.848C218.534 37.528 218.534 37.176 218.534 36.792C218.534 36.3867 218.523 35.9813 218.502 35.576C218.502 35.4693 218.502 35.3627 218.502 35.256C218.523 35.128 218.544 35.0213 218.566 34.936C218.63 34.744 218.747 34.5947 218.918 34.488C219.024 34.4453 219.11 34.4133 219.174 34.392C219.238 34.3707 219.334 34.36 219.462 34.36C219.611 34.3387 219.76 34.3387 219.91 34.36C220.059 34.36 220.198 34.36 220.326 34.36H224.038C224.208 34.36 224.39 34.3493 224.582 34.328C224.774 34.3067 224.955 34.3173 225.126 34.36C225.19 34.36 225.243 34.3707 225.286 34.392C225.499 34.456 225.638 34.5733 225.702 34.744C225.808 34.8933 225.862 35.0533 225.862 35.224V36.344L226.054 36.152C226.096 36.1307 226.128 36.1093 226.15 36.088C226.171 36.0667 226.182 36.056 226.182 36.056C226.224 36.0133 226.331 35.928 226.502 35.8C226.694 35.672 226.832 35.5867 226.918 35.544C227.046 35.4373 227.174 35.352 227.302 35.288C227.451 35.2027 227.59 35.128 227.718 35.064C227.888 34.9573 228.07 34.872 228.262 34.808C228.475 34.744 228.688 34.6907 228.902 34.648C229.52 34.456 230.171 34.36 230.854 34.36H231.398C231.504 34.36 231.622 34.36 231.75 34.36C231.878 34.3387 232.006 34.328 232.134 34.328C232.283 34.328 232.422 34.3387 232.55 34.36C232.699 34.3813 232.816 34.4347 232.902 34.52C233.03 34.6053 233.126 34.7227 233.19 34.872C233.232 35 233.254 35.1067 233.254 35.192V35.352C233.275 35.5013 233.275 35.6507 233.254 35.8C233.254 35.928 233.254 36.056 233.254 36.184V39.192Z" fill="black"/>
</svg>
