<svg width="240" height="80" viewBox="0 0 240 80" fill="none" xmlns="http://www.w3.org/2000/svg">
<path d="M28.818 47.384C28.7753 47.448 28.722 47.512 28.658 47.576C28.6153 47.64 28.5727 47.6933 28.53 47.736C28.4447 47.8213 28.37 47.9067 28.306 47.992C28.242 48.0773 28.1673 48.1627 28.082 48.248C27.9967 48.3333 27.9007 48.4187 27.794 48.504C27.7087 48.5893 27.6127 48.6853 27.506 48.792C27.4633 48.8347 27.4207 48.8667 27.378 48.888C27.378 48.9093 27.3567 48.9307 27.314 48.952C27.2927 48.9733 27.2927 48.9733 27.314 48.952C27.2287 49.08 27.1753 49.1867 27.154 49.272C27.1327 49.2933 27.122 49.3147 27.122 49.336C27.058 49.4853 26.994 49.6347 26.93 49.784C26.8873 49.9333 26.834 50.0827 26.77 50.232C26.77 50.2747 26.7593 50.3067 26.738 50.328C26.7167 50.4347 26.674 50.552 26.61 50.68C26.5673 50.7867 26.5247 50.8933 26.482 51L26.386 51.192C26.322 51.32 26.2473 51.4373 26.162 51.544C26.098 51.672 26.0127 51.768 25.906 51.832C25.8847 52.0667 25.906 52.3653 25.97 52.728C26.0553 53.0907 26.1193 53.4427 26.162 53.784C26.226 54.1253 26.2367 54.4027 26.194 54.616C26.1513 54.8293 26.0127 54.9147 25.778 54.872C25.458 54.808 25.3087 54.584 25.33 54.2C25.3513 53.8373 25.4153 53.4107 25.522 52.92C25.65 52.4507 25.6927 52.056 25.65 51.736C25.65 51.736 25.6287 51.7147 25.586 51.672C25.5433 51.6293 25.522 51.608 25.522 51.608C25.522 51.5867 25.5113 51.576 25.49 51.576C25.49 51.576 25.49 51.5653 25.49 51.544L25.394 51.384C25.3513 51.2773 25.3087 51.1813 25.266 51.096C25.2233 51.0107 25.17 50.9253 25.106 50.84C25.0847 50.84 25.074 50.8293 25.074 50.808L24.882 50.904H24.85C24.8287 51.2027 24.8073 51.4907 24.786 51.768C24.786 52.0667 24.7753 52.3653 24.754 52.664C24.7327 52.856 24.722 53.1227 24.722 53.464C24.722 53.8267 24.722 54.1147 24.722 54.328C24.722 54.5627 24.69 54.584 24.626 54.392C24.562 54.1573 24.5193 53.9227 24.498 53.688C24.498 53.4747 24.498 53.2507 24.498 53.016C24.434 53.016 24.402 53.0053 24.402 52.984C24.3807 52.8347 24.3807 52.664 24.402 52.472C24.4447 52.3013 24.4767 52.12 24.498 51.928V51.768C24.498 51.7467 24.4873 51.7573 24.466 51.8C24.4447 51.8427 24.4233 51.864 24.402 51.864C24.3593 51.8213 24.3273 51.7787 24.306 51.736C24.306 51.6933 24.2953 51.6613 24.274 51.64C24.2527 51.6187 24.2313 51.5547 24.21 51.448C24.1887 51.3413 24.1567 51.2347 24.114 51.128C23.986 51.2133 23.9327 51.3627 23.954 51.576C23.9753 51.8107 24.018 52.056 24.082 52.312C24.146 52.5893 24.1673 52.824 24.146 53.016C24.146 53.0373 24.1247 53.048 24.082 53.048C24.0607 53.0693 24.0393 53.1013 24.018 53.144C23.9967 53.1653 23.9753 53.208 23.954 53.272C23.9327 53.336 23.9113 53.3467 23.89 53.304C23.8687 53.0053 23.858 52.7067 23.858 52.408C23.858 52.1093 23.8473 51.8213 23.826 51.544C23.762 51.7787 23.698 52.0347 23.634 52.312C23.5913 52.5893 23.5167 52.8453 23.41 53.08C23.3887 53.144 23.3567 53.208 23.314 53.272C23.2713 53.3573 23.218 53.4107 23.154 53.432C23.0473 53.496 22.9513 53.464 22.866 53.336C22.8233 53.2933 22.7807 53.24 22.738 53.176C22.7167 53.112 22.6953 53.0693 22.674 53.048C22.5247 52.856 22.354 52.664 22.162 52.472C21.9913 52.28 21.842 52.0773 21.714 51.864C21.714 51.8427 21.7033 51.8213 21.682 51.8C21.682 51.8 21.682 51.7893 21.682 51.768C21.6607 51.768 21.65 51.7573 21.65 51.736C21.6287 51.6933 21.6073 51.64 21.586 51.576C21.5647 51.5333 21.5433 51.4907 21.522 51.448C21.4793 51.5547 21.458 51.672 21.458 51.8C21.4793 51.9493 21.458 52.088 21.394 52.216C21.3727 52.2373 21.3513 52.2053 21.33 52.12C21.3087 52.056 21.2873 52.0027 21.266 51.96C21.2233 51.832 21.202 51.7253 21.202 51.64C21.1593 51.7253 21.106 51.8107 21.042 51.896C20.9993 52.0027 20.9353 52.0987 20.85 52.184C20.7007 52.3333 20.6047 52.536 20.562 52.792C20.5193 53.0693 20.5087 53.3573 20.53 53.656C20.4873 53.656 20.434 53.688 20.37 53.752C20.3273 53.816 20.2847 53.88 20.242 53.944C20.1993 54.008 20.1673 54.0933 20.146 54.2C20.146 53.7733 20.146 53.3787 20.146 53.016C20.1673 52.6533 20.1673 52.376 20.146 52.184C20.0393 52.0987 19.9327 51.992 19.826 51.864C19.7407 51.7573 19.666 51.672 19.602 51.608C19.5807 51.5653 19.538 51.512 19.474 51.448C19.4527 51.448 19.4207 51.4267 19.378 51.384C19.2927 51.3413 19.2393 51.3733 19.218 51.48C19.1967 51.672 19.186 51.864 19.186 52.056C19.186 52.2693 19.1647 52.472 19.122 52.664C19.1007 52.7067 19.0793 52.6747 19.058 52.568C19.058 52.4613 19.0473 52.3867 19.026 52.344L18.93 51.32H18.898C16.7647 51.2773 14.9193 50.9253 13.362 50.264C11.8047 49.5813 10.61 48.5787 9.778 47.256C9.65 47.0853 9.53267 46.904 9.426 46.712C9.34067 46.4987 9.25533 46.2853 9.17 46.072C9.106 45.944 9.05267 45.816 9.01 45.688C8.96733 45.56 8.92467 45.432 8.882 45.304C8.79667 45.176 8.722 44.952 8.658 44.632C8.55133 44.2907 8.47667 43.864 8.434 43.352C8.39133 42.84 8.37 42.328 8.37 41.816C8.37 41.2827 8.37 40.856 8.37 40.536C8.37 40.344 8.37 40.152 8.37 39.96C8.37 39.768 8.38067 39.576 8.402 39.384V38.104C8.402 37.6773 8.402 37.24 8.402 36.792C8.42333 36.3227 8.47667 35.8853 8.562 35.48C8.754 34.3067 9.138 33.272 9.714 32.376L9.906 32.056C9.92733 32.0347 9.938 32.0133 9.938 31.992C9.95933 31.9707 9.98067 31.9493 10.002 31.928C10.0447 31.864 10.0873 31.8 10.13 31.736C10.194 31.672 10.2473 31.6187 10.29 31.576C11.2073 30.5093 12.402 29.6987 13.874 29.144C15.3673 28.5893 17.0633 28.3013 18.962 28.28H19.378C19.57 28.28 19.7727 28.28 19.986 28.28C20.1993 28.28 20.3807 28.2907 20.53 28.312C20.594 28.312 20.658 28.3227 20.722 28.344C20.786 28.344 20.85 28.344 20.914 28.344L21.554 28.408C21.6607 28.4293 21.7673 28.4507 21.874 28.472C21.9807 28.472 22.0767 28.4827 22.162 28.504C22.6527 28.568 23.1327 28.664 23.602 28.792C23.6233 28.792 23.634 28.8027 23.634 28.824C24.8073 29.1227 25.8207 29.5387 26.674 30.072C27.5487 30.584 28.274 31.1813 28.85 31.864C28.9567 31.992 29.0633 32.1307 29.17 32.28C29.2767 32.408 29.3727 32.5573 29.458 32.728C29.458 32.7493 29.4793 32.7813 29.522 32.824C29.5647 32.9093 29.6073 33.0053 29.65 33.112C29.714 33.2187 29.7673 33.3253 29.81 33.432C30.002 33.88 30.13 34.3493 30.194 34.84V35C30.2153 35.064 30.226 35.128 30.226 35.192C30.226 35.256 30.226 35.32 30.226 35.384V35.576C30.226 35.6187 30.2047 35.6613 30.162 35.704C30.162 35.704 30.1513 35.7147 30.13 35.736C30.13 35.736 30.13 35.7467 30.13 35.768C30.13 35.768 30.1087 35.7893 30.066 35.832C30.1087 35.832 30.1193 35.8427 30.098 35.864C30.0767 35.864 30.034 35.896 29.97 35.96C29.9487 35.9813 29.9273 36.0133 29.906 36.056C29.8847 36.0773 29.8633 36.1093 29.842 36.152C29.8207 36.1733 29.81 36.1947 29.81 36.216C29.81 36.2373 29.7993 36.2587 29.778 36.28C29.7567 36.3013 29.7353 36.344 29.714 36.408C29.714 36.472 29.6927 36.4933 29.65 36.472C29.6073 36.472 29.586 36.4507 29.586 36.408C29.586 36.344 29.5753 36.2907 29.554 36.248C29.5327 36.248 29.522 36.248 29.522 36.248C29.522 36.2267 29.522 36.216 29.522 36.216C29.5007 36.1947 29.4687 36.1947 29.426 36.216C29.4047 36.2373 29.3727 36.2587 29.33 36.28C29.2873 36.3227 29.266 36.344 29.266 36.344C29.2447 36.3653 29.202 36.376 29.138 36.376C29.0953 36.376 29.0527 36.3867 29.01 36.408C28.8607 36.4507 28.7007 36.504 28.53 36.568C28.3807 36.632 28.2207 36.6533 28.05 36.632C27.9007 36.632 27.762 36.6107 27.634 36.568C27.5273 36.504 27.3993 36.4613 27.25 36.44C27.1433 36.3973 27.026 36.3867 26.898 36.408C26.7913 36.4293 26.674 36.44 26.546 36.44C26.5033 36.44 26.4607 36.44 26.418 36.44C26.3753 36.4187 26.3327 36.408 26.29 36.408C26.1833 36.4293 26.0767 36.4933 25.97 36.6C25.8847 36.6853 25.7993 36.76 25.714 36.824C25.6287 36.888 25.5327 36.9307 25.426 36.952C25.3193 36.9733 25.2127 37.0053 25.106 37.048C24.9993 37.112 24.9033 37.1973 24.818 37.304C24.7327 37.3893 24.6367 37.4533 24.53 37.496H29.362C29.5327 37.496 29.7033 37.5493 29.874 37.656L30.066 37.848C30.1727 37.9973 30.226 38.168 30.226 38.36C30.226 38.5307 30.226 38.7013 30.226 38.872V40.76C30.226 41.144 30.226 41.528 30.226 41.912C30.2473 42.296 30.2473 42.68 30.226 43.064C30.2047 43.5973 30.1407 44.0987 30.034 44.568C29.9273 45.016 29.7887 45.4533 29.618 45.88L29.33 46.52C29.2447 46.6693 29.1593 46.8187 29.074 46.968C29.01 47.1173 28.9247 47.256 28.818 47.384ZM19.25 45.08H19.346C19.7727 45.08 20.1993 45.016 20.626 44.888C21.074 44.7387 21.426 44.4933 21.682 44.152C21.7887 43.9813 21.8633 43.8213 21.906 43.672C21.97 43.5013 22.0127 43.3413 22.034 43.192C22.034 43.1707 22.034 43.1387 22.034 43.096C22.0553 43.0533 22.066 43.0107 22.066 42.968L21.97 42.776C21.906 42.7973 21.8527 42.8507 21.81 42.936C21.7673 43.0213 21.7247 43.0853 21.682 43.128C21.618 43.2133 21.5433 43.288 21.458 43.352C21.394 43.416 21.3193 43.48 21.234 43.544C21.1913 43.5653 21.1487 43.5867 21.106 43.608C21.0633 43.608 21.0207 43.608 20.978 43.608C20.8287 43.6507 20.69 43.608 20.562 43.48L20.402 43.32C20.3167 43.2133 20.2527 43.096 20.21 42.968C20.1673 42.84 20.114 42.7227 20.05 42.616V42.584C19.9433 42.52 19.8473 42.4133 19.762 42.264C19.762 42.2427 19.7513 42.232 19.73 42.232C19.73 42.2107 19.73 42.1893 19.73 42.168C19.73 42.1467 19.7193 42.1253 19.698 42.104C19.698 42.0827 19.698 42.0613 19.698 42.04V42.008C19.6767 41.8587 19.666 41.7093 19.666 41.56C19.6873 41.4107 19.698 41.272 19.698 41.144V39.512C19.698 39.32 19.6873 39.1173 19.666 38.904C19.6447 38.6693 19.6553 38.456 19.698 38.264C19.7407 38.072 19.794 37.9333 19.858 37.848C19.9007 37.8053 19.922 37.784 19.922 37.784C20.0927 37.592 20.306 37.496 20.562 37.496H23.986C23.8793 37.4533 23.7727 37.4 23.666 37.336C23.5593 37.272 23.4633 37.2187 23.378 37.176C23.1007 37.0053 22.8233 36.856 22.546 36.728C22.2687 36.5787 22.0233 36.376 21.81 36.12L21.618 35.896C21.5967 35.8747 21.5753 35.8533 21.554 35.832C21.554 35.8107 21.5433 35.7893 21.522 35.768L21.426 35.672C21.362 35.5867 21.298 35.5013 21.234 35.416C21.17 35.3307 21.0953 35.2453 21.01 35.16L20.818 35L20.594 35.224C20.5727 35.2027 20.562 35.1707 20.562 35.128C20.498 35.1493 20.434 35.1707 20.37 35.192C20.3273 35.192 20.2847 35.1707 20.242 35.128C20.2633 35.2773 20.274 35.4373 20.274 35.608C20.2953 35.7787 20.242 35.864 20.114 35.864C19.9647 35.864 19.9113 35.736 19.954 35.48C20.018 35.224 20.0287 35.0213 19.986 34.872C19.986 34.8507 19.9647 34.84 19.922 34.84C19.9007 34.8187 19.8793 34.8293 19.858 34.872C19.8367 35.0213 19.826 35.192 19.826 35.384C19.826 35.5547 19.794 35.7253 19.73 35.896C19.7087 35.9173 19.6873 35.896 19.666 35.832C19.6447 35.768 19.6233 35.7147 19.602 35.672L19.474 35.352C19.4527 35.288 19.4313 35.224 19.41 35.16C19.3887 35.0747 19.3673 34.9893 19.346 34.904C19.282 34.968 19.218 35.0213 19.154 35.064C19.1113 35.1067 19.0367 35.1387 18.93 35.16C18.9087 35.1813 18.8553 35.2027 18.77 35.224C18.6847 35.224 18.6207 35.2133 18.578 35.192C18.578 35.192 18.5673 35.192 18.546 35.192C18.546 35.192 18.546 35.1813 18.546 35.16C18.5033 35.1173 18.482 35.0747 18.482 35.032C18.482 34.9893 18.4713 34.9573 18.45 34.936C18.45 34.8933 18.45 34.8613 18.45 34.84C18.3647 34.84 18.29 34.8507 18.226 34.872C18.1407 35.0213 18.1087 35.1173 18.13 35.16C18.1727 35.1813 18.13 35.2667 18.002 35.416C17.874 35.5653 17.7673 35.5547 17.682 35.384C17.618 35.2133 17.5433 35.1173 17.458 35.096C17.458 35.096 17.426 35.128 17.362 35.192L17.33 35.224L17.17 35.416C17.1487 35.4373 17.138 35.4587 17.138 35.48C17.138 35.5013 17.1273 35.5227 17.106 35.544C16.9567 35.8213 16.8607 36.12 16.818 36.44C16.7753 36.7387 16.754 37.0373 16.754 37.336C16.754 37.4427 16.7433 37.5813 16.722 37.752C16.722 37.9013 16.722 38.0613 16.722 38.232V40.92C16.722 41.1333 16.722 41.336 16.722 41.528C16.722 41.6987 16.7327 41.848 16.754 41.976C16.754 42.1253 16.754 42.2747 16.754 42.424C16.754 42.552 16.7647 42.6907 16.786 42.84C16.8287 43.0533 16.882 43.2773 16.946 43.512C17.01 43.7253 17.106 43.928 17.234 44.12C17.4047 44.3973 17.6287 44.6107 17.906 44.76C18.1833 44.9093 18.4713 45.0053 18.77 45.048C18.8553 45.048 18.93 45.0587 18.994 45.08C19.0793 45.08 19.1647 45.08 19.25 45.08ZM20.53 53.656C20.6153 53.6773 20.6687 53.8053 20.69 54.04C20.7113 54.2747 20.7113 54.5413 20.69 54.84C20.6687 54.6267 20.6367 54.424 20.594 54.232C20.5727 54.04 20.5513 53.848 20.53 53.656ZM20.242 57.464C20.2847 57.6773 20.2847 57.688 20.242 57.496C20.1993 57.3253 20.146 57.0373 20.082 56.632C20.0393 56.248 20.0073 55.8213 19.986 55.352C19.986 54.904 20.0393 54.52 20.146 54.2C20.1247 54.84 20.114 55.4693 20.114 56.088C20.114 56.7067 20.1567 57.1653 20.242 57.464ZM20.498 57.208C20.4553 57.4 20.4447 57.3787 20.466 57.144C20.5087 56.9093 20.5513 56.568 20.594 56.12C20.658 55.672 20.69 55.2453 20.69 54.84C20.7753 55.3093 20.818 55.7573 20.818 56.184C20.8393 56.632 20.7327 56.9733 20.498 57.208ZM50.9278 42.168C50.9491 42.5093 50.9491 42.8507 50.9278 43.192C50.9278 43.5333 50.9171 43.864 50.8958 44.184C50.8531 44.8453 50.7571 45.464 50.6078 46.04C50.4584 46.5947 50.2451 47.1067 49.9678 47.576C49.8824 47.7253 49.7971 47.8747 49.7118 48.024C49.6264 48.1733 49.5304 48.3227 49.4237 48.472C49.3171 48.6 49.1998 48.7173 49.0718 48.824C49.0718 48.8453 49.0611 48.8667 49.0398 48.888C48.9544 49.016 48.8478 49.1227 48.7198 49.208C48.6984 49.2293 48.6771 49.2507 48.6558 49.272C48.6344 49.2933 48.6024 49.3253 48.5598 49.368C48.5384 49.3893 48.5171 49.4107 48.4958 49.432C48.4744 49.4533 48.4531 49.4747 48.4318 49.496L48.2397 49.912C48.2397 49.9973 48.2397 50.0827 48.2397 50.168C48.2397 50.232 48.2291 50.3067 48.2078 50.392C48.1864 50.5413 48.1864 50.744 48.2078 51C48.2291 51.2347 48.1864 51.3093 48.0798 51.224C48.0158 51.16 47.9731 51.0853 47.9518 51C47.9518 50.8933 47.9518 50.7973 47.9518 50.712C47.9518 50.7547 47.9304 50.7973 47.8878 50.84C47.8664 50.904 47.8238 50.968 47.7598 51.032C47.7171 51.1173 47.6531 51.1707 47.5678 51.192C47.4184 51.256 47.2904 51.2027 47.1838 51.032C47.0984 50.8827 47.0344 50.7653 46.9918 50.68C46.9918 50.6587 46.9811 50.6373 46.9598 50.616C46.8104 50.8933 46.7464 51.2027 46.7678 51.544C46.7891 51.9067 46.7784 52.2587 46.7358 52.6C46.7358 52.6853 46.7251 52.7813 46.7038 52.888C46.6824 53.016 46.6611 53.1333 46.6398 53.24C46.6184 53.368 46.5651 53.4853 46.4798 53.592C46.4798 53.656 46.4371 53.688 46.3518 53.688C46.2664 53.6453 46.2238 53.592 46.2238 53.528C46.1811 53.1653 46.1598 52.792 46.1598 52.408C46.1598 52.024 46.1384 51.6507 46.0958 51.288C46.0958 51.288 46.0851 51.2773 46.0638 51.256C46.0638 51.256 46.0531 51.256 46.0318 51.256C45.9678 51.2773 45.9038 51.3093 45.8398 51.352C45.7758 51.3947 45.7224 51.4373 45.6798 51.48C45.5304 51.6293 45.4024 51.8107 45.2958 52.024C45.2318 52.152 45.1678 52.28 45.1038 52.408C45.0611 52.536 45.0078 52.6533 44.9438 52.76C44.9224 52.7813 44.8904 52.824 44.8478 52.888C44.8264 52.9733 44.8158 53.0053 44.8158 52.984C44.7731 52.7493 44.7518 52.5147 44.7518 52.28C44.7518 52.0453 44.7304 51.8213 44.6878 51.608C44.7304 51.608 44.6664 51.5973 44.4958 51.576C44.3464 51.576 44.2824 51.5867 44.3038 51.608C44.2611 51.9493 44.2398 52.2907 44.2398 52.632C44.2398 52.9733 44.2184 53.3147 44.1758 53.656C44.1758 53.6773 44.1331 53.72 44.0478 53.784C43.9838 53.848 43.9411 53.8907 43.9198 53.912C43.8984 53.9333 43.8664 53.944 43.8238 53.944C43.8024 53.9653 43.7918 53.9653 43.7918 53.944C43.7491 53.5813 43.7278 53.208 43.7278 52.824C43.7278 52.4613 43.6958 52.0987 43.6318 51.736C43.5678 51.7573 43.5144 51.7893 43.4718 51.832C43.4291 51.8747 43.4078 51.896 43.4078 51.896C43.3864 51.9173 43.3651 51.9493 43.3438 51.992C43.3438 52.056 43.3224 52.1093 43.2798 52.152C43.2584 52.152 43.2051 52.1093 43.1198 52.024C43.0984 51.9813 43.0771 51.9387 43.0558 51.896C43.0558 51.8533 43.0344 51.8213 42.9918 51.8C42.9918 51.7787 42.9811 51.768 42.9598 51.768C42.9384 51.7467 42.9278 51.736 42.9278 51.736C42.9278 51.7573 42.9171 51.7573 42.8958 51.736H42.7038C42.7038 51.8213 42.7038 51.9067 42.7038 51.992C42.7038 52.0773 42.6824 52.1733 42.6398 52.28C42.6398 52.28 42.5544 52.184 42.3838 51.992C42.2771 51.8853 42.2238 51.832 42.2238 51.832C42.2238 51.8533 42.1918 51.8533 42.1278 51.832C42.0424 51.832 41.9998 51.8213 41.9998 51.8C41.9784 52.0987 41.9571 52.3867 41.9358 52.664C41.9358 52.9627 41.9144 53.2613 41.8718 53.56C41.8718 53.6027 41.8504 53.5813 41.8078 53.496C41.7864 53.4107 41.7651 53.3467 41.7438 53.304C41.7224 53.24 41.7011 53.176 41.6798 53.112C41.6584 53.0693 41.6371 53.016 41.6158 52.952C41.5518 52.6747 41.4984 52.3973 41.4558 52.12C41.4344 51.864 41.4024 51.5973 41.3598 51.32H41.1678C38.2664 51.256 36.0798 50.584 34.6078 49.304L34.4158 49.112C33.1571 47.9173 32.4638 46.2747 32.3358 44.184C32.2718 43.1813 32.2718 42.1787 32.3358 41.176C32.5064 38.808 33.4024 37.0267 35.0238 35.832C36.6664 34.6373 38.9064 34.04 41.7438 34.04H42.0318C42.3304 34.04 42.6291 34.0507 42.9278 34.072C43.2264 34.0933 43.5144 34.1253 43.7918 34.168C43.8344 34.168 43.8664 34.1787 43.8878 34.2C46.0851 34.52 47.8451 35.352 49.1678 36.696C49.2104 36.7387 49.2638 36.8133 49.3278 36.92C49.4131 37.0053 49.4664 37.0693 49.4878 37.112C50.0851 37.9013 50.4904 38.7867 50.7038 39.768C50.7038 39.7893 50.7038 39.8107 50.7038 39.832C50.7251 39.8533 50.7358 39.8747 50.7358 39.896C50.8211 40.2587 50.8744 40.6427 50.8958 41.048C50.9171 41.432 50.9278 41.8053 50.9278 42.168ZM40.7517 45.976C40.8158 46.0187 40.8904 46.0613 40.9758 46.104C41.2104 46.168 41.3918 46.2 41.5198 46.2C41.6478 46.2 41.7758 46.1893 41.9038 46.168H42.0958C42.1811 46.1253 42.2558 46.0933 42.3198 46.072C42.4051 46.0293 42.4798 45.9867 42.5438 45.944C42.7144 45.7733 42.8211 45.5707 42.8638 45.336C42.9278 45.1013 42.9704 44.8773 42.9918 44.664C43.0131 44.536 43.0238 44.3973 43.0238 44.248C43.0451 44.0987 43.0558 43.9493 43.0558 43.8C43.0771 43.5013 43.0878 43.1493 43.0878 42.744C43.0878 42.3387 43.0771 41.976 43.0558 41.656C43.0558 41.5493 43.0558 41.4427 43.0558 41.336C43.0558 41.2293 43.0451 41.1333 43.0238 41.048C43.0238 40.9627 43.0131 40.888 42.9918 40.824C42.9918 40.7387 42.9918 40.6533 42.9918 40.568C42.9278 40.0133 42.7784 39.64 42.5438 39.448C42.4584 39.3627 42.3944 39.32 42.3518 39.32C42.3304 39.2987 42.2984 39.288 42.2558 39.288C42.2344 39.288 42.2131 39.288 42.1918 39.288C42.1704 39.2667 42.1491 39.2667 42.1278 39.288C42.1064 39.3093 42.0851 39.3627 42.0638 39.448C42.0638 39.512 42.0424 39.5653 41.9998 39.608C41.9784 39.6507 41.9144 39.6827 41.8078 39.704C41.7224 39.704 41.6584 39.6933 41.6158 39.672C41.4878 39.6507 41.3704 39.5867 41.2638 39.48H41.0718C41.0504 39.4587 41.0291 39.4373 41.0078 39.416C40.9864 39.3733 40.9544 39.3413 40.9118 39.32C40.8478 39.32 40.7838 39.352 40.7198 39.416C40.5704 39.544 40.4638 39.7253 40.3998 39.96C40.3358 40.1733 40.2824 40.4293 40.2398 40.728C40.2184 40.792 40.2078 40.8773 40.2078 40.984C40.2078 41.048 40.1971 41.1227 40.1758 41.208C40.1758 41.272 40.1758 41.3467 40.1758 41.432C40.1544 41.6027 40.1438 41.8053 40.1438 42.04C40.1438 42.2747 40.1438 42.5093 40.1438 42.744C40.1438 42.8933 40.1438 43.0427 40.1438 43.192C40.1651 43.32 40.1758 43.4587 40.1758 43.608C40.1758 43.7573 40.1758 43.9067 40.1758 44.056C40.1758 44.2053 40.1864 44.3333 40.2078 44.44C40.2504 44.824 40.2931 45.1227 40.3358 45.336C40.3998 45.5493 40.5384 45.7627 40.7517 45.976ZM79.7645 36.728C79.7645 37.112 79.7325 37.496 79.6685 37.88C79.6258 38.2853 79.5618 38.6587 79.4765 39C79.3912 39.3413 79.2738 39.608 79.1245 39.8C79.1032 39.864 79.0712 39.928 79.0285 39.992C79.0072 40.056 78.9752 40.1093 78.9325 40.152C78.8258 40.344 78.7085 40.536 78.5805 40.728C78.4738 40.92 78.3458 41.1013 78.1965 41.272C78.1752 41.2933 78.1432 41.3253 78.1005 41.368C78.0792 41.3893 78.0472 41.4213 78.0045 41.464L77.7805 41.688C77.6952 41.752 77.5778 41.8587 77.4285 42.008C77.3858 42.0507 77.3538 42.0933 77.3325 42.136C77.2898 42.2213 77.2685 42.2747 77.2685 42.296L77.0765 42.776C76.9912 42.9893 76.9058 43.2027 76.8205 43.416C76.7565 43.6293 76.6712 43.8427 76.5645 44.056L76.4685 44.28C76.4045 44.408 76.3405 44.504 76.2765 44.568C76.2552 44.632 76.2018 44.7067 76.1165 44.792C76.0312 44.8347 75.9778 44.856 75.9565 44.856C75.9352 45.0053 75.9138 45.1653 75.8925 45.336C75.8925 45.4853 75.8712 45.6453 75.8285 45.816C75.8072 45.8587 75.7858 45.912 75.7645 45.976C75.7432 46.04 75.7112 46.072 75.6685 46.072C75.6258 46.0933 75.5938 46.072 75.5725 46.008C75.5725 45.9227 75.5618 45.8693 75.5405 45.848C75.4978 45.72 75.4658 45.5813 75.4445 45.432C75.4445 45.2827 75.4018 45.1653 75.3165 45.08L75.2205 45.176C75.1778 45.2187 75.1138 45.304 75.0285 45.432C74.9432 45.56 74.8365 45.6773 74.7085 45.784C74.6658 46.1893 74.6765 46.6053 74.7405 47.032C74.8045 47.4373 74.7512 47.8213 74.5805 48.184C74.4952 48.3547 74.4418 48.3227 74.4205 48.088C74.4205 47.832 74.4312 47.5227 74.4525 47.16C74.4738 46.776 74.4738 46.488 74.4525 46.296C74.4312 45.9973 74.3992 45.8267 74.3565 45.784C74.3352 45.7413 74.2818 45.6453 74.1965 45.496C74.1112 45.3893 74.0258 45.272 73.9405 45.144C73.8765 45.016 73.7912 44.9093 73.6845 44.824C73.6632 44.9093 73.6312 44.9947 73.5885 45.08C73.5672 45.1653 73.5565 45.2613 73.5565 45.368C73.5352 45.6027 73.5138 45.9547 73.4925 46.424C73.4925 46.8933 73.4925 47.3947 73.4925 47.928C73.4925 48.44 73.4818 48.9307 73.4605 49.4C73.4605 49.8693 73.4498 50.2213 73.4285 50.456C73.4285 50.456 73.4178 50.5947 73.3965 50.872C73.3965 51.128 73.3752 51.4373 73.3325 51.8C73.3112 52.1627 73.2898 52.504 73.2685 52.824C73.2472 53.144 73.2152 53.368 73.1725 53.496C73.1725 53.5173 73.1512 53.5173 73.1085 53.496C73.0872 53.4747 73.0765 53.4533 73.0765 53.432C73.0338 53.2613 73.0018 53.08 72.9805 52.888C72.9805 52.696 72.9698 52.504 72.9485 52.312C72.9272 51.9707 72.9058 51.6293 72.8845 51.288C72.8632 50.9467 72.8418 50.6053 72.8205 50.264C72.7992 49.8373 72.7778 49.4107 72.7565 48.984C72.7352 48.536 72.7138 48.0987 72.6925 47.672C72.6712 47.2027 72.6498 46.744 72.6285 46.296C72.6285 45.8267 72.6072 45.3573 72.5645 44.888C72.5858 44.9093 72.5645 44.888 72.5005 44.824C72.4578 44.7387 72.4152 44.6853 72.3725 44.664C72.3298 44.5787 72.2765 44.504 72.2125 44.44C72.1698 44.3547 72.1165 44.2693 72.0525 44.184L71.9885 44.12C71.9885 44.1413 71.9672 44.1947 71.9245 44.28C71.8818 44.3867 71.7112 44.536 71.4125 44.728C71.3912 44.728 71.3698 44.7493 71.3485 44.792C71.3272 44.8133 71.3058 44.8133 71.2845 44.792C71.2632 44.7493 71.2418 44.696 71.2205 44.632C71.2205 44.568 71.2205 44.5147 71.2205 44.472C71.1778 44.472 71.1565 44.4933 71.1565 44.536C71.1352 44.6853 71.1138 44.8453 71.0925 45.016C71.0925 45.1867 71.0712 45.3573 71.0285 45.528C71.0072 45.656 70.9645 45.784 70.9005 45.912C70.8578 46.04 70.8152 46.1787 70.7725 46.328L70.3885 47.736C70.3672 47.864 70.3245 48.0027 70.2605 48.152C70.2178 48.3013 70.1752 48.4293 70.1325 48.536C70.1112 48.5787 70.0792 48.6427 70.0365 48.728C69.9938 48.8133 69.9405 48.8773 69.8765 48.92C69.7698 48.984 69.6738 48.9307 69.5885 48.76C69.5032 48.5893 69.4392 48.472 69.3965 48.408C69.3752 48.3653 69.3432 48.3227 69.3005 48.28C69.2792 48.2373 69.2578 48.1947 69.2365 48.152C69.2152 47.704 69.1938 47.256 69.1725 46.808C69.1725 46.36 69.1512 45.9013 69.1085 45.432C69.1085 45.4107 69.0978 45.4 69.0765 45.4C69.0552 45.4 69.0338 45.3893 69.0125 45.368L68.7885 45.176C68.6605 45.0693 68.5432 44.952 68.4365 44.824C68.3512 44.6747 68.2552 44.5253 68.1485 44.376C68.0845 44.2907 68.0205 44.2053 67.9565 44.12L67.8925 44.152V49.144C67.9138 49.336 67.9245 49.528 67.9245 49.72C67.9458 49.912 67.9352 50.104 67.8925 50.296V50.36C67.8712 50.3813 67.8605 50.4027 67.8605 50.424C67.8392 50.5093 67.7965 50.584 67.7325 50.648C67.6472 50.7547 67.5192 50.8613 67.3485 50.968L67.0925 51.352C67.0712 51.3733 67.0178 51.416 66.9325 51.48C66.8685 51.5653 66.8258 51.608 66.8045 51.608C66.7832 51.8853 66.7618 52.1627 66.7405 52.44C66.7405 52.7387 66.7192 53.0267 66.6765 53.304C66.6552 53.496 66.6445 53.688 66.6445 53.88C66.6445 54.0933 66.6232 54.296 66.5805 54.488C66.5592 54.552 66.5485 54.6373 66.5485 54.744C66.5698 54.8507 66.5378 54.8933 66.4525 54.872C66.3885 54.872 66.3565 54.8187 66.3565 54.712C66.3778 54.6267 66.3778 54.5413 66.3565 54.456C66.2925 54.072 66.2605 53.7733 66.2605 53.56C66.2605 53.368 66.2498 53.1653 66.2285 52.952C66.2285 52.76 66.1752 52.4827 66.0685 52.12L65.7485 52.44H65.7165C65.6738 52.4827 65.6418 52.504 65.6205 52.504C65.5992 52.5467 65.5885 52.5893 65.5885 52.632C65.5885 52.6747 65.5672 52.7067 65.5245 52.728C65.5032 52.728 65.4818 52.7067 65.4605 52.664C65.4605 52.6213 65.4392 52.5893 65.3965 52.568C65.3538 52.6107 65.3218 52.664 65.3005 52.728C65.3005 52.792 65.2792 52.8453 65.2365 52.888C65.2152 52.9093 65.2045 52.9413 65.2045 52.984C65.2045 53.0267 65.1832 53.0587 65.1405 53.08C65.0552 53.08 65.0125 53.0267 65.0125 52.92C64.9912 52.8133 64.9698 52.7067 64.9485 52.6C64.9485 52.5147 64.9272 52.4293 64.8845 52.344C64.8845 52.3227 64.8738 52.312 64.8525 52.312C64.8525 52.312 64.8525 52.3013 64.8525 52.28C64.7672 52.216 64.6925 52.1413 64.6285 52.056C64.5645 51.9707 64.5005 51.8853 64.4365 51.8L64.1805 51.448L64.1165 51.384C64.0952 51.3413 64.0738 51.3093 64.0525 51.288C64.0312 51.2667 63.9992 51.2453 63.9565 51.224L63.8605 51.416C63.7538 51.5867 63.6152 51.7787 63.4445 51.992C63.2738 52.2267 63.0712 52.3653 62.8365 52.408C62.5805 52.472 62.4632 52.3867 62.4845 52.152C62.5058 51.9173 62.5058 51.6827 62.4845 51.448L62.2925 51.64C62.2925 51.6613 62.2605 51.6933 62.1965 51.736C62.1752 51.7573 62.1538 51.768 62.1325 51.768C62.1325 51.768 62.1218 51.7787 62.1005 51.8C62.0792 51.8427 62.0578 51.896 62.0365 51.96C62.0365 52.024 62.0152 52.0773 61.9725 52.12C61.8872 52.2053 61.8338 52.216 61.8125 52.152C61.7698 52.088 61.7485 52.0133 61.7485 51.928C61.7485 51.864 61.7272 51.7893 61.6845 51.704C61.6632 51.6827 61.6312 51.6507 61.5885 51.608C61.5672 51.5867 61.5352 51.5547 61.4925 51.512L61.3005 51.224C61.2792 51.288 61.2685 51.352 61.2685 51.416C61.2685 51.5013 61.2472 51.5653 61.2045 51.608C61.1832 51.6293 61.1405 51.608 61.0765 51.544C61.0338 51.5227 60.9912 51.4907 60.9485 51.448L60.5965 51.16C60.4685 51.2027 60.3938 51.2027 60.3725 51.16C60.3085 51.032 60.2658 50.9787 60.2445 51C60.2232 51 60.1912 50.9893 60.1485 50.968C60.0632 50.9253 59.9885 50.8827 59.9245 50.84C59.6898 50.6693 59.5725 50.4347 59.5725 50.136V29.592C59.5725 29.4853 59.5725 29.3787 59.5725 29.272C59.5938 29.144 59.6472 29.0373 59.7325 28.952C59.7965 28.824 59.9245 28.728 60.1165 28.664C60.2445 28.6213 60.3405 28.6 60.4045 28.6C60.4472 28.5787 60.5432 28.5787 60.6925 28.6C60.8418 28.6 60.9805 28.6 61.1085 28.6H64.3085C64.5645 28.6 65.0125 28.6 65.6525 28.6C66.2925 28.6 66.9965 28.6 67.7645 28.6C68.5325 28.5787 69.2258 28.5787 69.8445 28.6H70.1325C70.5378 28.6 70.9325 28.6213 71.3165 28.664C71.7005 28.6853 72.0738 28.7173 72.4365 28.76C72.8632 28.7813 73.2898 28.8347 73.7165 28.92C74.1645 28.984 74.5378 29.08 74.8365 29.208C75.1138 29.3147 75.3058 29.4213 75.4125 29.528C75.4125 29.528 75.4552 29.5493 75.5405 29.592C75.5618 29.592 75.5725 29.6027 75.5725 29.624C76.1485 29.88 76.6712 30.1787 77.1405 30.52C77.2045 30.5413 77.2472 30.5733 77.2685 30.616C77.3112 30.6587 77.3645 30.712 77.4285 30.776C77.7058 31.032 77.9725 31.2987 78.2285 31.576C78.2925 31.6613 78.3565 31.7467 78.4205 31.832C78.4845 31.896 78.5485 31.9813 78.6125 32.088C78.6765 32.1733 78.7298 32.2693 78.7725 32.376C78.8365 32.4613 78.8898 32.5573 78.9325 32.664C79.2312 33.24 79.4445 33.848 79.5725 34.488C79.7005 35.1067 79.7645 35.7787 79.7645 36.504V36.728ZM67.7325 34.552V37.496C68.2232 37.112 68.7885 36.824 69.4285 36.632C70.0685 36.44 70.7085 36.3333 71.3485 36.312C71.4125 35.864 71.3272 35.4587 71.0925 35.096C71.0712 35.0533 71.0285 35 70.9645 34.936C70.9005 34.872 70.8472 34.8293 70.8045 34.808L70.6445 34.712C70.5165 34.6693 70.3778 34.6587 70.2285 34.68C70.1005 34.7013 69.9725 34.7227 69.8445 34.744C69.6952 34.7653 69.5458 34.7867 69.3965 34.808C69.2685 34.808 69.1298 34.7973 68.9805 34.776C68.8312 34.7547 68.6818 34.7333 68.5325 34.712C68.4045 34.6693 68.2658 34.6373 68.1165 34.616C68.1165 34.616 68.0738 34.616 67.9885 34.616C67.9245 34.5947 67.8392 34.5733 67.7325 34.552ZM89.303 50.072C89.303 50.1787 89.2817 50.296 89.239 50.424C89.239 50.424 89.2177 50.4667 89.175 50.552L89.143 50.584C89.1217 50.648 89.047 50.7333 88.919 50.84C88.8123 50.9253 88.7483 50.9787 88.727 51L88.695 51.032C88.695 51.0533 88.6843 51.064 88.663 51.064C88.663 51.064 88.663 51.0747 88.663 51.096C88.6203 51.2027 88.5777 51.256 88.535 51.256C88.4497 51.384 88.3643 51.512 88.279 51.64C88.215 51.768 88.1297 51.8853 88.023 51.992C87.9377 52.0987 87.831 52.1947 87.703 52.28C87.5963 52.3653 87.4897 52.4613 87.383 52.568C87.2763 52.6747 87.191 52.792 87.127 52.92C87.1057 52.984 87.0737 53.0373 87.031 53.08C87.0097 53.144 86.9883 53.1973 86.967 53.24C86.8177 53.5387 86.7217 53.7733 86.679 53.944C86.6363 54.1147 86.519 54.36 86.327 54.68C86.3057 54.7653 86.231 54.8507 86.103 54.936C86.0817 54.9787 86.039 55.0853 85.975 55.256C85.9323 55.4267 85.847 55.5013 85.719 55.48C85.6763 55.48 85.623 55.4373 85.559 55.352C85.5163 55.288 85.4843 55.2453 85.463 55.224C85.399 55.1173 85.3457 55.0107 85.303 54.904C85.2603 54.7973 85.1963 54.7013 85.111 54.616C85.0683 54.5733 85.0363 54.5307 85.015 54.488C84.9297 54.424 84.8337 54.328 84.727 54.2C84.7057 54.1573 84.6737 54.1147 84.631 54.072C84.6097 54.0293 84.5777 53.9973 84.535 53.976C84.3857 53.784 84.2577 53.5707 84.151 53.336C84.0443 53.1227 83.9377 52.9093 83.831 52.696C83.8097 52.632 83.7883 52.568 83.767 52.504C83.7457 52.44 83.7137 52.376 83.671 52.312L83.479 51.928C83.3297 51.672 83.1697 51.4587 82.999 51.288C82.999 51.352 82.9777 51.384 82.935 51.384C82.9137 51.384 82.8923 51.352 82.871 51.288C82.8497 51.2453 82.8283 51.2133 82.807 51.192C82.807 51.1707 82.7963 51.1493 82.775 51.128C82.711 51.3413 82.6683 51.6613 82.647 52.088C82.6257 52.536 82.615 52.9733 82.615 53.4C82.6363 53.848 82.647 54.2 82.647 54.456C82.647 54.712 82.6363 54.7653 82.615 54.616C82.487 54.1253 82.4443 53.528 82.487 52.824C82.5297 52.1413 82.4977 51.5227 82.391 50.968C82.3483 50.9467 82.3057 50.9253 82.263 50.904C82.2417 50.8827 82.2097 50.8613 82.167 50.84C81.9323 50.648 81.815 50.4347 81.815 50.2C81.7937 49.9867 81.783 49.7733 81.783 49.56C81.8043 49.3467 81.815 49.144 81.815 48.952V29.912C81.815 29.6987 81.8043 29.4747 81.783 29.24C81.783 29.0053 81.847 28.8027 81.975 28.632L82.167 28.44C82.3163 28.3333 82.487 28.28 82.679 28.28H88.023C88.1297 28.28 88.2363 28.28 88.343 28.28C88.471 28.2587 88.5883 28.2693 88.695 28.312C88.759 28.3333 88.8123 28.3653 88.855 28.408C88.919 28.4293 88.9723 28.4613 89.015 28.504C89.0577 28.5467 89.1003 28.6107 89.143 28.696C89.2283 28.8027 89.271 28.952 89.271 29.144V49.112C89.271 49.2613 89.2817 49.4213 89.303 49.592C89.3243 49.7413 89.3243 49.9013 89.303 50.072ZM109.375 49.848C109.375 49.9333 109.364 49.9973 109.343 50.04C109.343 50.3173 109.289 50.52 109.183 50.648C109.161 50.6907 109.119 50.744 109.055 50.808C108.991 50.8507 108.927 50.8933 108.863 50.936C108.628 51.1707 108.521 51.3627 108.543 51.512C108.564 51.6613 108.628 51.7893 108.735 51.896C108.841 52.0027 108.905 52.1307 108.927 52.28C108.948 52.4293 108.841 52.6213 108.607 52.856C108.585 52.92 108.564 52.984 108.543 53.048C108.543 53.1333 108.521 53.1973 108.479 53.24C108.457 53.2613 108.415 53.208 108.351 53.08C108.329 52.9733 108.308 52.856 108.287 52.728C108.265 52.6 108.244 52.472 108.223 52.344C108.201 51.9813 108.191 51.768 108.191 51.704C108.212 51.6613 108.169 51.5227 108.063 51.288L107.935 51.416C107.871 51.48 107.807 51.5333 107.743 51.576C107.7 51.6187 107.647 51.6827 107.583 51.768C107.497 51.896 107.412 52.024 107.327 52.152C107.241 52.28 107.156 52.408 107.071 52.536C107.049 52.5573 107.017 52.6107 106.975 52.696C106.932 52.7813 106.889 52.8347 106.847 52.856C106.74 52.8987 106.655 52.8453 106.591 52.696C106.527 52.5467 106.473 52.4507 106.431 52.408C106.409 52.344 106.388 52.28 106.367 52.216C106.367 52.152 106.345 52.088 106.303 52.024C106.26 52.0027 106.196 51.9493 106.111 51.864C106.068 51.8213 106.036 51.7787 106.015 51.736L105.695 51.352L105.535 51.192C105.492 51.2133 105.439 51.2027 105.375 51.16C105.311 51.1173 105.257 51.0853 105.215 51.064C105.108 51.1707 105.055 51.2347 105.055 51.256C104.884 51.4053 104.735 51.576 104.607 51.768C104.5 51.9813 104.393 52.1947 104.287 52.408C104.265 52.4507 104.223 52.504 104.159 52.568C104.116 52.632 104.063 52.6853 103.999 52.728C103.956 52.7707 103.924 52.792 103.903 52.792C103.881 52.92 103.86 53.048 103.839 53.176C103.839 53.3253 103.817 53.464 103.775 53.592C103.753 53.6133 103.721 53.6027 103.679 53.56C103.657 53.5387 103.647 53.5173 103.647 53.496C103.604 53.3253 103.583 53.1973 103.583 53.112C103.604 53.048 103.572 52.888 103.487 52.632C103.465 52.632 103.444 52.6213 103.423 52.6C103.423 52.5787 103.401 52.5467 103.359 52.504C103.359 52.4613 103.337 52.4293 103.295 52.408C103.273 52.3867 103.263 52.376 103.263 52.376L102.975 51.896L102.591 51.288C102.569 51.2027 102.537 51.1173 102.495 51.032C102.452 50.968 102.409 50.904 102.367 50.84L102.335 50.808C102.249 50.744 102.164 50.6373 102.079 50.488C102.079 50.4667 102.068 50.456 102.047 50.456C102.047 50.4347 102.047 50.4133 102.047 50.392C102.025 50.2853 102.015 50.168 102.015 50.04C102.015 49.8907 102.015 49.7093 102.015 49.496V49.24C101.972 49.2827 101.94 49.3253 101.919 49.368L101.823 49.464C101.631 49.6987 101.417 49.912 101.183 50.104C101.097 50.3173 101.033 50.5413 100.991 50.776C100.948 50.9893 100.873 51.2027 100.767 51.416C100.745 51.5013 100.703 51.5867 100.639 51.672C100.596 51.7787 100.532 51.864 100.447 51.928C100.425 51.9493 100.361 51.9707 100.255 51.992C100.169 52.0133 100.116 52.0133 100.095 51.992C100.073 51.928 100.063 51.8533 100.063 51.768C100.063 51.704 100.063 51.64 100.063 51.576C100.041 51.64 100.009 51.6933 99.9668 51.736C99.9454 51.8 99.9134 51.8533 99.8708 51.896C99.8494 51.9387 99.8174 51.9707 99.7748 51.992C99.7321 52.0347 99.6894 52.0773 99.6468 52.12C99.5828 52.4613 99.5294 52.7813 99.4868 53.08C99.4654 53.4 99.4334 53.7307 99.3908 54.072C99.3694 54.1573 99.3481 54.2427 99.3268 54.328C99.3054 54.4347 99.2734 54.5413 99.2308 54.648C99.2308 54.7547 99.1988 54.84 99.1348 54.904C99.1134 54.9253 99.0708 54.904 99.0068 54.84C98.9854 54.7973 98.9641 54.744 98.9427 54.68C98.9214 54.6373 98.9001 54.5947 98.8788 54.552C98.8574 54.4453 98.8148 54.264 98.7508 54.008C98.6868 53.7733 98.6334 53.6133 98.5908 53.528C98.5694 53.4427 98.5481 53.3467 98.5268 53.24C98.5054 53.1547 98.4841 53.0693 98.4628 52.984C98.4414 52.92 98.4201 52.8453 98.3988 52.76C98.3988 52.696 98.3774 52.6213 98.3348 52.536L98.2388 52.44C98.1748 52.3547 98.1108 52.2587 98.0468 52.152C97.9828 52.0667 97.9188 51.9813 97.8548 51.896C97.8334 51.832 97.8014 51.768 97.7588 51.704C97.7161 51.6613 97.6734 51.5973 97.6308 51.512C97.6094 51.4693 97.5881 51.4267 97.5668 51.384C97.5454 51.3627 97.5134 51.3413 97.4708 51.32H97.2148C95.8281 51.2773 94.6334 50.9467 93.6308 50.328C92.6494 49.7093 91.9668 48.92 91.5828 47.96C91.5614 47.896 91.5401 47.832 91.5188 47.768C91.4974 47.704 91.4761 47.64 91.4548 47.576C91.4548 47.5547 91.4441 47.5333 91.4228 47.512C91.4228 47.4907 91.4228 47.4693 91.4228 47.448C91.4014 47.3413 91.3801 47.2453 91.3588 47.16C91.3374 47.0533 91.3161 46.9573 91.2948 46.872C91.2734 46.744 91.2628 46.616 91.2628 46.488C91.2628 46.3387 91.2628 46.2 91.2628 46.072C91.2628 45.9867 91.2628 45.912 91.2628 45.848C91.2841 45.784 91.2948 45.7093 91.2948 45.624L91.3268 45.4C91.3908 45.0587 91.4868 44.7493 91.6148 44.472C91.9134 43.7893 92.3721 43.2027 92.9908 42.712C93.1188 42.6053 93.2468 42.5093 93.3748 42.424C93.5028 42.3387 93.6414 42.2533 93.7908 42.168L94.2068 41.944C94.2494 41.9013 94.3028 41.8587 94.3668 41.816C94.4308 41.7733 94.4948 41.7413 94.5588 41.72C94.6014 41.6773 94.6548 41.6453 94.7188 41.624C94.7828 41.6027 94.8468 41.5813 94.9108 41.56C95.1454 41.4533 95.3801 41.368 95.6148 41.304C95.8708 41.24 96.1268 41.176 96.3828 41.112C96.6814 41.0267 96.9801 40.952 97.2788 40.888C97.5988 40.824 97.9294 40.76 98.2708 40.696L99.0388 40.568C99.3374 40.5253 99.6254 40.4827 99.9028 40.44C100.201 40.376 100.5 40.3227 100.799 40.28C100.884 40.28 100.937 40.2693 100.959 40.248L101.663 40.12V39.608C101.663 39.6933 101.652 39.672 101.631 39.544C101.631 39.416 101.631 39.3413 101.631 39.32C101.631 39.3413 101.62 39.32 101.599 39.256C101.599 39.1707 101.599 39.1387 101.599 39.16C101.599 39.1387 101.588 39.1173 101.567 39.096C101.567 39.0747 101.567 39.0533 101.567 39.032C101.524 38.904 101.439 38.776 101.311 38.648C101.289 38.648 101.279 38.648 101.279 38.648C101.279 38.6267 101.257 38.616 101.215 38.616C101.172 38.6373 101.119 38.68 101.055 38.744C101.012 38.808 100.98 38.8613 100.959 38.904C100.895 39.0107 100.82 39.1493 100.735 39.32C100.649 39.4693 100.543 39.576 100.415 39.64C100.265 39.7253 100.127 39.672 99.9988 39.48C99.8708 39.288 99.7641 39.1493 99.6788 39.064C99.6361 39.0213 99.6041 39 99.5828 39L99.2948 39.288C99.2308 39.3307 99.1668 39.3733 99.1028 39.416C99.0388 39.4587 98.9748 39.5013 98.9108 39.544C98.7828 39.608 98.6441 39.6613 98.4948 39.704C98.3668 39.7253 98.2388 39.7573 98.1108 39.8C97.8548 39.8853 97.5988 39.9813 97.3428 40.088C97.1081 40.1733 96.8628 40.2373 96.6068 40.28C96.2868 40.3227 95.9881 40.2587 95.7108 40.088C95.4334 39.896 95.1348 39.8107 94.8148 39.832C94.5161 39.832 94.2174 39.8213 93.9188 39.8C93.6414 39.7787 93.3534 39.7253 93.0548 39.64C92.9694 39.5973 92.9161 39.576 92.8948 39.576C92.8734 39.576 92.8521 39.5867 92.8307 39.608C92.8094 39.6293 92.7881 39.6293 92.7668 39.608C92.7454 39.5867 92.7241 39.5653 92.7028 39.544C92.7028 39.5227 92.6814 39.5013 92.6388 39.48C92.6174 39.4373 92.5854 39.3947 92.5428 39.352C92.5001 39.3093 92.4788 39.288 92.4788 39.288C92.4574 39.2667 92.4254 39.2133 92.3828 39.128C92.3401 39 92.3294 38.872 92.3508 38.744C92.3721 38.5947 92.4041 38.456 92.4468 38.328C92.4681 38.264 92.4894 38.2 92.5108 38.136C92.5321 38.072 92.5534 37.9973 92.5748 37.912C92.7881 37.5067 93.0228 37.1547 93.2788 36.856C93.5134 36.5573 93.7908 36.2693 94.1108 35.992C94.4521 35.7147 94.8361 35.4693 95.2628 35.256C95.4334 35.1067 95.6361 34.9787 95.8708 34.872C96.0841 34.7653 96.3081 34.68 96.5428 34.616C96.7988 34.552 97.0548 34.4987 97.3108 34.456C97.8014 34.328 98.3348 34.232 98.9108 34.168C99.4868 34.0827 100.116 34.04 100.799 34.04H101.439C101.567 34.04 101.684 34.04 101.791 34.04C101.897 34.04 101.983 34.0507 102.047 34.072L102.271 34.104H102.431C102.708 34.104 102.911 34.136 103.039 34.2C103.401 34.2213 103.764 34.2853 104.127 34.392C104.383 34.4347 104.628 34.488 104.863 34.552C105.119 34.616 105.343 34.7013 105.535 34.808C105.812 34.8933 106.079 35.0213 106.335 35.192C106.612 35.3627 106.857 35.5333 107.071 35.704C107.071 35.7253 107.071 35.736 107.071 35.736C107.092 35.736 107.103 35.736 107.103 35.736C107.167 35.7787 107.22 35.832 107.263 35.896C107.327 35.9387 107.38 35.9813 107.423 36.024C108.447 36.9413 109.055 38.168 109.247 39.704C109.268 39.7253 109.279 39.7573 109.279 39.8C109.343 40.248 109.364 40.696 109.343 41.144C109.343 41.592 109.343 42.04 109.343 42.488V49.112C109.343 49.2187 109.343 49.336 109.343 49.464C109.364 49.592 109.375 49.72 109.375 49.848ZM101.759 44.504V44.12C101.759 44.0987 101.737 44.0987 101.695 44.12C101.673 44.12 101.641 44.1307 101.599 44.152C101.577 44.152 101.556 44.152 101.535 44.152C101.449 44.1947 101.353 44.2373 101.247 44.28C101.14 44.3013 101.033 44.3333 100.927 44.376C100.713 44.4613 100.489 44.5253 100.255 44.568C100.041 44.5893 99.8174 44.6213 99.5828 44.664C99.4761 44.6853 99.3588 44.7173 99.2308 44.76C99.1028 44.8027 98.9854 44.856 98.8788 44.92C98.7934 44.984 98.7294 45.048 98.6868 45.112C98.5374 45.304 98.4628 45.496 98.4628 45.688C98.4628 45.8373 98.5374 46.0293 98.6868 46.264C98.7294 46.2853 98.7721 46.3173 98.8148 46.36C98.8788 46.3813 98.9428 46.4133 99.0068 46.456L99.1667 46.52C99.4441 46.5413 99.5934 46.5627 99.6148 46.584C99.6361 46.584 99.7641 46.5733 99.9988 46.552C100.916 46.424 101.471 45.9013 101.663 44.984C101.705 44.856 101.727 44.7387 101.727 44.632C101.727 44.568 101.737 44.5253 101.759 44.504ZM130.002 35.48C129.981 35.5653 129.949 35.64 129.906 35.704C129.885 35.768 129.853 35.8427 129.81 35.928C129.789 35.9493 129.778 35.9707 129.778 35.992C129.778 36.0133 129.768 36.0347 129.746 36.056L129.362 36.888L128.594 38.68C128.509 38.9573 128.413 39.2347 128.306 39.512C128.2 39.768 128.093 40.024 127.986 40.28C127.816 40.6853 127.666 40.984 127.538 41.176L127.314 41.656C126.973 42.616 126.632 43.5227 126.29 44.376C125.97 45.2293 125.682 45.784 125.426 46.04L125.33 46.296C125.181 46.808 125.021 47.288 124.85 47.736C124.701 48.1627 124.541 48.4827 124.37 48.696C124.328 48.7813 124.306 48.8347 124.306 48.856C124.221 49.0907 124.136 49.3253 124.05 49.56C123.965 49.7733 123.869 49.9867 123.762 50.2C123.634 50.5413 123.506 50.8827 123.378 51.224C123.25 51.5653 123.112 51.8747 122.962 52.152C122.92 52.2373 122.898 52.2907 122.898 52.312L122.706 52.696C122.493 53.2293 122.29 53.6773 122.098 54.04C121.906 54.424 121.757 54.6907 121.65 54.84C121.565 55.0107 121.49 55.192 121.426 55.384C121.405 55.4053 121.394 55.4267 121.394 55.448C121.394 55.4693 121.384 55.4907 121.362 55.512C121.32 55.64 121.277 55.736 121.234 55.8C121.213 55.8853 121.192 55.96 121.17 56.024C121.149 56.088 121.117 56.152 121.074 56.216C121.01 56.3653 120.925 56.5147 120.818 56.664C120.69 56.792 120.594 56.8773 120.53 56.92C120.466 57.048 120.413 57.176 120.37 57.304C120.349 57.4533 120.317 57.592 120.274 57.72L119.89 58.84C119.869 58.8827 119.848 58.9573 119.826 59.064C119.805 59.1707 119.784 59.2027 119.762 59.16C119.72 58.904 119.698 58.6373 119.698 58.36C119.698 58.0827 119.677 57.816 119.634 57.56C119.421 57.688 119.208 57.816 118.994 57.944C118.802 58.072 118.589 58.1573 118.354 58.2C118.205 58.2213 118.077 58.1893 117.97 58.104C117.885 58.0187 117.8 57.9333 117.714 57.848C117.608 57.7413 117.522 57.624 117.458 57.496C117.458 57.496 117.437 57.464 117.394 57.4C117.352 57.4 117.33 57.4 117.33 57.4C117.288 57.5493 117.266 57.7093 117.266 57.88C117.288 58.0507 117.266 58.2213 117.202 58.392C117.181 58.4347 117.16 58.4027 117.138 58.296C117.117 58.2107 117.096 58.1467 117.074 58.104L116.978 57.464C116.914 57.656 116.818 57.7947 116.69 57.88C116.648 57.9227 116.605 57.944 116.562 57.944C116.541 58.0507 116.52 58.1573 116.498 58.264C116.498 58.392 116.477 58.5093 116.434 58.616C116.413 58.6373 116.381 58.616 116.338 58.552C116.317 58.5093 116.306 58.4667 116.306 58.424C116.285 58.3173 116.264 58.2107 116.242 58.104C116.242 57.9973 116.221 57.9013 116.178 57.816C116.136 57.7733 116.082 57.72 116.018 57.656C115.976 57.6133 115.933 57.56 115.89 57.496L115.73 57.336C115.73 57.4213 115.709 57.4747 115.666 57.496C115.666 57.5173 115.581 57.4427 115.41 57.272C115.41 57.2933 115.4 57.304 115.378 57.304C115.378 57.304 115.378 57.3147 115.378 57.336C115.357 57.656 115.346 57.9653 115.346 58.264C115.346 58.584 115.325 58.904 115.282 59.224C115.261 59.3093 115.25 59.3947 115.25 59.48C115.25 59.5867 115.218 59.672 115.154 59.736C115.133 59.7573 115.101 59.736 115.058 59.672C115.037 59.608 115.016 59.5547 114.994 59.512C114.973 59.3413 114.952 59.1707 114.93 59C114.909 58.8507 114.888 58.7013 114.866 58.552C114.845 58.4027 114.856 58.1893 114.898 57.912C114.941 57.6347 114.909 57.4107 114.802 57.24C114.781 57.2187 114.76 57.1973 114.738 57.176C114.717 57.1547 114.696 57.1333 114.674 57.112C114.653 57.112 114.632 57.1013 114.61 57.08C114.589 57.08 114.557 57.08 114.514 57.08C114.386 57.0587 114.301 57.0267 114.258 56.984C114.194 56.9413 114.141 56.888 114.098 56.824C114.056 56.7813 114.013 56.7173 113.97 56.632C113.97 56.6107 113.96 56.5893 113.938 56.568C113.938 56.5467 113.938 56.5253 113.938 56.504V56.312C113.938 56.2267 113.949 56.1627 113.97 56.12C113.97 56.056 113.981 56.0133 114.002 55.992C114.045 55.864 114.088 55.736 114.13 55.608C114.194 55.5013 114.248 55.3947 114.29 55.288L114.354 55.128C114.376 55.0853 114.386 55.0533 114.386 55.032C114.408 55.0107 114.429 54.9893 114.45 54.968L115.026 53.528C115.133 53.2293 115.24 52.9413 115.346 52.664C115.474 52.3867 115.592 52.1307 115.698 51.896C115.741 51.7893 115.784 51.6827 115.826 51.576C115.89 51.4693 115.944 51.3733 115.986 51.288L116.05 51.096L116.37 50.296C116.37 50.2747 116.37 50.264 116.37 50.264C116.392 50.264 116.402 50.2533 116.402 50.232L116.53 49.944L116.434 49.72C116.392 49.6347 116.37 49.592 116.37 49.592C116.221 49.4213 116.008 49.0267 115.73 48.408C115.453 47.7893 115.154 47.0747 114.834 46.264C114.749 46.0933 114.664 45.912 114.578 45.72C114.493 45.528 114.397 45.3147 114.29 45.08C114.141 44.8453 113.992 44.504 113.842 44.056C113.714 43.608 113.576 43.1387 113.426 42.648L111.634 38.424C111.57 38.2533 111.506 38.0933 111.442 37.944C111.378 37.7947 111.314 37.6453 111.25 37.496C110.952 36.8133 110.674 36.1627 110.418 35.544C110.397 35.5227 110.376 35.4587 110.354 35.352C110.333 35.288 110.322 35.2133 110.322 35.128C110.322 35.0853 110.333 35.0533 110.354 35.032C110.354 34.9253 110.386 34.8293 110.45 34.744C110.493 34.68 110.546 34.6267 110.61 34.584C110.738 34.456 110.888 34.3813 111.058 34.36C111.229 34.3173 111.41 34.3067 111.602 34.328C111.816 34.3493 111.997 34.36 112.146 34.36H116.37C116.456 34.36 116.552 34.3707 116.658 34.392C116.765 34.392 116.829 34.392 116.85 34.392L117.042 34.488C117.149 34.5093 117.234 34.5627 117.298 34.648C117.469 34.8187 117.586 35.0213 117.65 35.256C117.714 35.4907 117.768 35.6933 117.81 35.864C117.896 36.056 117.97 36.2587 118.034 36.472C118.12 36.6853 118.205 36.9093 118.29 37.144C118.333 37.2507 118.376 37.3787 118.418 37.528C118.482 37.656 118.536 37.7947 118.578 37.944L118.834 38.68V38.712L118.962 39.032C118.962 39.0533 118.984 39.1067 119.026 39.192C119.133 39.512 119.24 39.832 119.346 40.152C119.474 40.472 119.602 40.792 119.73 41.112L120.018 41.944V42.008C120.061 42.0507 120.082 42.104 120.082 42.168C120.125 42.1893 120.136 42.2107 120.114 42.232C120.093 42.2533 120.125 42.2747 120.21 42.296C120.232 42.2747 120.242 42.2533 120.242 42.232L120.338 42.04L120.434 41.72C120.456 41.6773 120.466 41.6453 120.466 41.624C120.466 41.6027 120.477 41.5813 120.498 41.56L120.594 41.304V41.272L121.074 39.992C121.117 39.9067 121.138 39.8533 121.138 39.832C121.245 39.4907 121.362 39.16 121.49 38.84C121.618 38.52 121.736 38.2213 121.842 37.944C121.864 37.9227 121.874 37.9013 121.874 37.88C121.874 37.8587 121.885 37.8373 121.906 37.816L122.066 37.4C122.13 37.1867 122.194 36.984 122.258 36.792C122.344 36.6 122.418 36.3973 122.482 36.184L122.578 35.96C122.6 35.896 122.621 35.832 122.642 35.768C122.664 35.704 122.685 35.64 122.706 35.576C122.77 35.4053 122.845 35.2347 122.93 35.064C123.016 34.872 123.133 34.712 123.282 34.584C123.517 34.4133 123.826 34.328 124.21 34.328C124.317 34.328 124.434 34.3387 124.562 34.36C124.69 34.36 124.808 34.36 124.914 34.36H129.33C129.501 34.36 129.629 34.392 129.714 34.456C129.757 34.4773 129.789 34.4987 129.81 34.52C129.832 34.5413 129.853 34.5627 129.874 34.584C130.002 34.712 130.066 34.8613 130.066 35.032V35.256C130.066 35.256 130.056 35.2667 130.034 35.288C130.034 35.288 130.034 35.2987 130.034 35.32V35.352L130.002 35.48ZM161.038 50.296C161.017 50.3173 161.006 50.3493 161.006 50.392C161.006 50.4133 160.996 50.4347 160.974 50.456C160.932 50.5413 160.91 50.584 160.91 50.584C160.889 50.6693 160.857 50.7227 160.814 50.744C160.772 50.7653 160.729 50.7973 160.686 50.84L160.558 50.936C160.494 51.2133 160.441 51.48 160.398 51.736C160.377 52.0133 160.345 52.2907 160.302 52.568C160.281 52.6747 160.26 52.8347 160.238 53.048C160.238 53.2613 160.217 53.3147 160.174 53.208C160.11 52.9307 160.078 52.6533 160.078 52.376C160.1 52.0987 160.089 51.8213 160.046 51.544C160.046 51.5227 160.025 51.5227 159.982 51.544C159.961 51.5867 159.94 51.608 159.918 51.608C159.876 51.6293 159.822 51.6613 159.758 51.704C159.694 51.7467 159.62 51.7573 159.534 51.736C159.513 51.736 159.481 51.7147 159.438 51.672C159.268 51.672 159.086 51.5973 158.894 51.448C158.873 51.512 158.862 51.5867 158.862 51.672C158.884 51.7787 158.862 51.8533 158.798 51.896C158.734 51.9387 158.702 51.9067 158.702 51.8C158.702 51.6933 158.692 51.608 158.67 51.544C158.67 51.544 158.66 51.448 158.638 51.256C158.638 51.0853 158.542 51.0427 158.35 51.128C158.329 51.1493 158.297 51.1813 158.254 51.224C158.233 51.2667 158.19 51.32 158.126 51.384C158.062 51.4693 157.988 51.544 157.902 51.608C157.881 51.6293 157.849 51.6613 157.806 51.704C157.785 51.768 157.753 51.8213 157.71 51.864C157.646 51.9067 157.582 51.896 157.518 51.832C157.476 51.7893 157.433 51.7573 157.39 51.736C157.369 51.736 157.316 51.7467 157.23 51.768C157.166 51.8107 157.134 51.8427 157.134 51.864C157.134 51.864 157.124 51.864 157.102 51.864C157.102 51.864 157.102 51.8747 157.102 51.896C157.102 51.896 157.081 51.9173 157.038 51.96C156.91 52.1093 156.814 52.28 156.75 52.472C156.686 52.6853 156.612 52.8773 156.526 53.048C156.484 53.1333 156.43 53.2293 156.366 53.336C156.324 53.464 156.249 53.56 156.142 53.624C156.121 53.9013 156.1 54.1787 156.078 54.456C156.078 54.7333 156.057 55.0107 156.014 55.288C155.993 55.352 155.972 55.448 155.95 55.576C155.95 55.704 155.929 55.736 155.886 55.672C155.822 55.544 155.79 55.4053 155.79 55.256C155.79 55.128 155.78 54.9893 155.758 54.84C155.737 54.6053 155.726 54.3813 155.726 54.168C155.726 53.9547 155.705 53.7413 155.662 53.528C155.534 53.4213 155.438 53.3253 155.374 53.24C155.289 53.112 155.193 52.9733 155.086 52.824C155.001 52.6747 154.905 52.5253 154.798 52.376C154.713 52.2267 154.628 52.088 154.542 51.96C154.478 51.832 154.404 51.704 154.318 51.576C154.297 51.5333 154.265 51.4907 154.222 51.448L154.126 51.288H154.094C154.073 51.288 154.041 51.2347 153.998 51.128C153.977 51.0427 153.945 50.968 153.902 50.904C154.009 51.0107 154.041 51.0427 153.998 51C153.977 50.9573 153.924 50.8933 153.838 50.808C153.774 50.7227 153.732 50.68 153.71 50.68L153.678 50.648L153.582 50.488C153.582 50.4667 153.572 50.456 153.55 50.456C153.55 50.4347 153.55 50.4133 153.55 50.392C153.486 50.2213 153.465 50.0293 153.486 49.816C153.508 49.5813 153.518 49.3787 153.518 49.208V41.624C153.518 41.9867 153.529 42.1573 153.55 42.136C153.572 42.1147 153.593 42.0187 153.614 41.848C153.636 41.6773 153.636 41.5387 153.614 41.432C153.593 41.304 153.54 41.3253 153.454 41.496L153.326 41.688C153.284 41.7307 153.262 41.7627 153.262 41.784C153.284 41.784 153.273 41.8053 153.23 41.848C153.23 41.848 153.22 41.8587 153.198 41.88C153.198 41.88 153.198 41.8907 153.198 41.912C153.092 42.0613 152.985 42.2213 152.878 42.392C152.793 42.5627 152.697 42.7333 152.59 42.904C152.42 43.1813 152.249 43.4693 152.078 43.768C151.908 44.0667 151.726 44.3547 151.534 44.632C151.513 44.696 151.481 44.76 151.438 44.824C151.396 44.888 151.353 44.9413 151.31 44.984C151.246 45.0693 151.172 45.1547 151.086 45.24C151.022 45.3253 150.937 45.3893 150.83 45.432C150.809 45.4533 150.777 45.4853 150.734 45.528C150.713 45.5707 150.67 45.6453 150.606 45.752C150.585 45.7733 150.553 45.784 150.51 45.784C150.489 46.0187 150.468 46.3813 150.446 46.872C150.446 47.3413 150.436 47.8533 150.414 48.408C150.414 48.9627 150.404 49.4853 150.382 49.976C150.382 50.4453 150.372 50.7973 150.35 51.032C150.35 51.0533 150.329 51.064 150.286 51.064C150.244 51.064 150.222 51.0533 150.222 51.032C150.201 50.7333 150.18 50.264 150.158 49.624C150.158 48.984 150.158 48.3333 150.158 47.672C150.158 47.0107 150.137 46.488 150.094 46.104C150.094 46.104 150.062 46.072 149.998 46.008L149.966 46.04C149.966 46.04 149.966 46.0507 149.966 46.072C149.966 46.072 149.956 46.072 149.934 46.072C149.934 46.1147 149.913 46.1573 149.87 46.2C149.828 46.2853 149.774 46.3707 149.71 46.456C149.646 46.52 149.572 46.5733 149.486 46.616C149.444 46.7227 149.433 46.8613 149.454 47.032C149.476 47.2027 149.433 47.2773 149.326 47.256C149.22 47.2133 149.188 47.1173 149.23 46.968C149.273 46.7973 149.273 46.648 149.23 46.52C149.188 46.4773 149.145 46.424 149.102 46.36C149.06 46.296 149.017 46.2533 148.974 46.232C148.91 46.168 148.878 46.136 148.878 46.136C148.857 46.2213 148.825 46.3067 148.782 46.392C148.761 46.4773 148.74 46.5413 148.718 46.584C148.718 46.4773 148.686 46.3493 148.622 46.2C148.58 46.2427 148.558 46.2747 148.558 46.296C148.558 46.296 148.537 46.3173 148.494 46.36C148.452 46.424 148.409 46.4987 148.366 46.584C148.324 46.6693 148.281 46.744 148.238 46.808C148.217 46.8293 148.174 46.872 148.11 46.936C148.068 46.9787 148.025 46.9893 147.982 46.968C147.94 46.9467 147.908 46.9253 147.886 46.904C147.865 46.8613 147.833 46.8293 147.79 46.808C147.684 46.7013 147.609 46.5413 147.566 46.328C147.524 46.1787 147.481 46.04 147.438 45.912C147.417 45.7627 147.385 45.6133 147.342 45.464C147.257 45.4213 147.182 45.368 147.118 45.304C147.076 45.2187 147.022 45.144 146.958 45.08L146.798 44.824C146.628 44.5467 146.457 44.2693 146.286 43.992C146.116 43.6933 145.945 43.4053 145.774 43.128L145.486 42.648C145.422 42.5627 145.358 42.4773 145.294 42.392C145.252 42.3067 145.198 42.2213 145.134 42.136L145.038 41.944C145.017 41.9013 144.996 41.8587 144.974 41.816C144.953 41.7733 144.921 41.7307 144.878 41.688C144.878 41.6667 144.868 41.656 144.846 41.656C144.846 41.656 144.846 41.6453 144.846 41.624C144.846 41.624 144.825 41.6027 144.782 41.56C144.782 41.4533 144.761 41.3787 144.718 41.336C144.697 41.272 144.686 41.3253 144.686 41.496V49.624C144.686 49.7307 144.686 49.848 144.686 49.976C144.708 50.0827 144.708 50.1893 144.686 50.296C144.686 50.2533 144.676 50.2747 144.654 50.36C144.633 50.424 144.633 50.4453 144.654 50.424C144.633 50.5093 144.58 50.5947 144.494 50.68L144.302 50.872C144.281 50.9573 144.26 51.0427 144.238 51.128C144.238 51.2347 144.217 51.3413 144.174 51.448C144.132 51.7253 144.078 51.992 144.014 52.248C143.972 52.5253 143.908 52.8027 143.822 53.08C143.801 53.144 143.769 53.2507 143.726 53.4C143.684 53.5493 143.641 53.656 143.598 53.72C143.47 53.848 143.374 53.8053 143.31 53.592C143.246 53.4 143.204 53.2933 143.182 53.272C143.14 53.1013 143.097 52.92 143.054 52.728C143.012 52.5573 142.969 52.376 142.926 52.184C142.905 52.0773 142.894 51.9707 142.894 51.864C142.894 51.7573 142.873 51.6613 142.83 51.576C142.788 51.6187 142.734 51.6613 142.67 51.704C142.606 51.768 142.542 51.8213 142.478 51.864C142.436 52.2693 142.404 52.6853 142.382 53.112C142.382 53.56 142.361 53.9973 142.318 54.424C142.318 54.4453 142.297 54.4347 142.254 54.392C142.212 54.3493 142.19 54.3173 142.19 54.296C141.998 53.976 141.934 53.6773 141.998 53.4C142.062 53.144 142.126 52.8773 142.19 52.6C142.276 52.3227 142.222 52.0347 142.03 51.736C142.009 51.6933 141.988 51.6507 141.966 51.608C141.945 51.5653 141.913 51.5227 141.87 51.48C141.828 51.48 141.806 51.48 141.806 51.48C141.764 51.8213 141.742 52.152 141.742 52.472C141.742 52.8133 141.721 53.144 141.678 53.464C141.678 53.464 141.636 53.464 141.55 53.464C141.465 53.464 141.422 53.4533 141.422 53.432C141.401 53.112 141.38 52.7813 141.358 52.44C141.358 52.12 141.337 51.7893 141.294 51.448H141.134L141.102 51.416C141.06 51.416 141.038 51.416 141.038 51.416C141.017 51.6933 141.006 51.96 141.006 52.216C141.006 52.4933 140.985 52.7707 140.942 53.048C140.942 53.0693 140.9 53.0373 140.814 52.952C140.729 52.9093 140.686 52.8773 140.686 52.856C140.644 52.6213 140.622 52.3973 140.622 52.184C140.622 51.9707 140.612 51.7573 140.59 51.544C140.569 51.5653 140.548 51.5973 140.526 51.64C140.505 51.6827 140.505 51.6827 140.526 51.64C140.505 51.704 140.462 51.768 140.398 51.832C140.377 51.8533 140.345 51.8747 140.302 51.896C140.26 51.9387 140.217 51.9813 140.174 52.024C140.11 52.152 140.068 52.28 140.046 52.408C140.025 52.5573 139.982 52.7067 139.918 52.856C139.897 52.8773 139.876 52.9093 139.854 52.952C139.854 52.9947 139.833 53.0373 139.79 53.08C139.748 53.1227 139.705 53.1227 139.662 53.08C139.577 52.9947 139.524 52.8453 139.502 52.632C139.481 52.4187 139.449 52.28 139.406 52.216C139.3 52.1093 139.204 51.9707 139.118 51.8C139.054 51.6507 138.969 51.4693 138.862 51.256C138.841 51.2987 138.83 51.3307 138.83 51.352C138.83 51.3947 138.82 51.4373 138.798 51.48C138.777 51.5013 138.724 51.4907 138.638 51.448C138.574 51.4267 138.542 51.416 138.542 51.416C138.457 51.3733 138.393 51.3307 138.35 51.288C138.372 51.3307 138.382 51.4053 138.382 51.512C138.382 51.6187 138.34 51.7893 138.254 52.024C138.233 52.1093 138.212 52.184 138.19 52.248C138.169 52.312 138.148 52.3867 138.126 52.472C138.105 52.7067 138.094 53.0693 138.094 53.56C138.094 54.072 138.094 54.6053 138.094 55.16C138.094 55.736 138.094 56.2693 138.094 56.76C138.094 57.272 138.073 57.6453 138.03 57.88C138.009 58.0933 137.988 58.1253 137.966 57.976C137.966 57.8267 137.966 57.5707 137.966 57.208C137.966 56.8453 137.966 56.472 137.966 56.088C137.966 55.704 137.966 55.4053 137.966 55.192C137.945 54.552 137.934 54.0187 137.934 53.592C137.934 53.1867 137.924 52.7813 137.902 52.376C137.881 51.992 137.828 51.5227 137.742 50.968C137.657 50.9253 137.582 50.8827 137.518 50.84C137.284 50.6693 137.166 50.4347 137.166 50.136V29.464C137.166 29.2293 137.252 29.0267 137.422 28.856C137.593 28.6853 137.828 28.6 138.126 28.6H142.446C142.681 28.6 142.905 28.6 143.118 28.6C143.332 28.5787 143.534 28.6213 143.726 28.728C143.961 28.8347 144.142 28.984 144.27 29.176C144.42 29.368 144.548 29.5707 144.654 29.784C144.697 29.8267 144.729 29.88 144.75 29.944C144.793 29.9867 144.825 30.04 144.846 30.104L145.006 30.36C145.198 30.5947 145.38 30.872 145.55 31.192C145.742 31.4907 145.924 31.8107 146.094 32.152L147.214 34.008C147.47 34.392 147.716 34.7867 147.95 35.192C148.185 35.5973 148.42 35.992 148.654 36.376C148.697 36.4613 148.75 36.5573 148.814 36.664C148.878 36.7493 148.932 36.8453 148.974 36.952L149.102 37.144L149.23 36.92C149.273 36.8133 149.326 36.7173 149.39 36.632C149.454 36.5467 149.508 36.4613 149.55 36.376C149.742 36.0773 149.934 35.768 150.126 35.448C150.318 35.128 150.51 34.808 150.702 34.488L150.926 34.104C150.926 34.0827 150.926 34.072 150.926 34.072C150.948 34.072 150.958 34.0613 150.958 34.04C150.958 34.04 150.98 34.0187 151.022 33.976L152.11 32.152C152.132 32.152 152.142 32.152 152.142 32.152C152.142 32.1307 152.142 32.12 152.142 32.12C152.313 31.8 152.484 31.4907 152.654 31.192C152.846 30.8933 153.017 30.6267 153.166 30.392L153.358 30.072C153.465 29.9013 153.561 29.7413 153.646 29.592C153.753 29.4213 153.87 29.2613 153.998 29.112C153.998 29.0907 154.009 29.08 154.03 29.08C154.137 28.9307 154.286 28.8133 154.478 28.728C154.67 28.6213 154.873 28.5787 155.086 28.6C155.321 28.6 155.545 28.6 155.758 28.6H160.174C160.302 28.6 160.398 28.6213 160.462 28.664C160.526 28.6853 160.601 28.7173 160.686 28.76C160.878 28.888 160.996 29.1013 161.038 29.4C161.06 29.5493 161.06 29.7093 161.038 29.88C161.038 30.0507 161.038 30.2107 161.038 30.36V48.728C161.038 48.984 161.049 49.2507 161.07 49.528C161.092 49.784 161.081 50.04 161.038 50.296ZM182.973 50.136C182.951 50.1787 182.941 50.232 182.941 50.296C182.941 50.3387 182.93 50.3813 182.909 50.424C182.909 50.4453 182.898 50.4667 182.877 50.488C182.877 50.5093 182.866 50.5307 182.845 50.552C182.845 50.552 182.823 50.5733 182.781 50.616C182.759 50.68 182.685 50.7547 182.557 50.84C182.514 50.904 182.461 50.9573 182.397 51C182.333 51.0853 182.269 51.1813 182.205 51.288C182.162 51.3947 182.119 51.4907 182.077 51.576C181.991 51.7467 181.906 51.928 181.821 52.12C181.735 52.312 181.65 52.504 181.565 52.696L181.437 53.016C181.415 53.0587 181.394 53.1333 181.373 53.24C181.351 53.368 181.33 53.4 181.309 53.336C181.266 53.0373 181.245 52.7387 181.245 52.44C181.245 52.1413 181.223 51.8427 181.181 51.544C181.181 51.544 181.138 51.5653 181.053 51.608C181.031 51.608 181.021 51.608 181.021 51.608C181.021 51.6293 181.01 51.64 180.989 51.64C180.903 51.7893 180.818 51.96 180.733 52.152C180.669 52.344 180.605 52.536 180.541 52.728C180.519 52.792 180.498 52.856 180.477 52.92C180.455 53.0053 180.423 53.0907 180.381 53.176C180.338 53.2613 180.295 53.3573 180.253 53.464C180.21 53.592 180.135 53.6987 180.029 53.784C179.879 53.912 179.741 53.8693 179.613 53.656C179.506 53.464 179.431 53.3147 179.389 53.208C179.346 53.1227 179.293 53.0267 179.229 52.92C179.165 52.8347 179.111 52.7493 179.069 52.664C179.005 52.536 178.941 52.408 178.877 52.28C178.813 52.152 178.759 52.024 178.717 51.896L178.621 51.608C178.557 51.5653 178.525 51.5547 178.525 51.576C178.482 51.9173 178.461 52.248 178.461 52.568C178.461 52.9093 178.439 53.2507 178.397 53.592C178.375 53.6347 178.354 53.6027 178.333 53.496C178.311 53.4107 178.29 53.3467 178.269 53.304C178.226 53.24 178.183 53.144 178.141 53.016C178.055 52.8453 177.97 52.664 177.885 52.472C177.821 52.3013 177.735 52.1413 177.629 51.992C177.501 51.7787 177.33 51.5333 177.117 51.256C177.095 51.3627 177.074 51.4693 177.053 51.576C177.053 51.6827 177.031 51.7893 176.989 51.896C176.967 51.9173 176.946 51.9387 176.925 51.96C176.903 51.9813 176.882 52.0133 176.861 52.056C176.775 52.056 176.733 52.0667 176.733 52.088L176.573 51.672C176.573 51.6933 176.562 51.7253 176.541 51.768C176.519 51.8107 176.498 51.8533 176.477 51.896C176.455 51.9173 176.434 51.896 176.413 51.832C176.391 51.768 176.37 51.7253 176.349 51.704C176.306 51.6187 176.263 51.5227 176.221 51.416C176.178 51.3307 176.135 51.2453 176.093 51.16C176.071 51.1173 176.05 51.064 176.029 51C176.029 50.936 176.007 50.8827 175.965 50.84C175.922 50.8187 175.89 50.7973 175.869 50.776C175.847 50.7333 175.815 50.6907 175.773 50.648C175.73 50.5627 175.698 50.5093 175.677 50.488C175.634 50.36 175.613 50.2533 175.613 50.168C175.591 50.0613 175.581 49.9653 175.581 49.88C175.602 49.7733 175.613 49.6453 175.613 49.496V49.08C175.591 49.1227 175.549 49.176 175.485 49.24C175.463 49.304 175.378 49.4107 175.229 49.56L175.133 49.656C175.133 49.6773 175.122 49.688 175.101 49.688C175.101 49.688 175.101 49.6987 175.101 49.72L174.685 50.104C174.599 50.296 174.535 50.4987 174.493 50.712C174.45 50.904 174.343 51.064 174.173 51.192C174.023 51.32 173.927 51.2987 173.885 51.128C173.863 51.2133 173.831 51.2773 173.789 51.32C173.746 51.384 173.671 51.48 173.565 51.608L173.405 51.768C173.277 51.8533 173.17 51.96 173.085 52.088L172.829 52.632C172.807 52.6747 172.765 52.7493 172.701 52.856C172.658 52.9627 172.615 53.0373 172.573 53.08C172.487 53.1013 172.423 53.08 172.381 53.016C172.359 52.952 172.338 52.8987 172.317 52.856C172.295 52.792 172.274 52.7173 172.253 52.632C172.231 52.568 172.21 52.504 172.189 52.44C172.167 52.3333 172.146 52.2267 172.125 52.12C172.125 52.0133 172.103 51.9173 172.061 51.832C171.975 51.7467 171.911 51.672 171.869 51.608H171.837C171.815 51.608 171.794 51.5973 171.773 51.576C171.751 51.5547 171.73 51.5547 171.709 51.576C171.687 51.7893 171.666 52.0027 171.645 52.216C171.645 52.4293 171.623 52.6427 171.581 52.856C171.581 52.8773 171.57 52.856 171.549 52.792C171.527 52.728 171.495 52.6853 171.453 52.664C171.431 52.6213 171.41 52.5893 171.389 52.568C171.367 52.5467 171.346 52.5147 171.325 52.472C171.303 52.344 171.293 52.2053 171.293 52.056C171.293 51.928 171.271 51.8 171.229 51.672C171.207 51.6933 171.197 51.6933 171.197 51.672C171.175 51.6933 171.143 51.704 171.101 51.704C171.101 51.7253 171.09 51.736 171.069 51.736C171.047 51.7573 171.026 51.7787 171.005 51.8C171.005 51.8213 170.983 51.8427 170.941 51.864C170.919 51.8853 170.887 51.8853 170.845 51.864C170.802 51.864 170.759 51.864 170.717 51.864C170.546 51.8427 170.418 51.7787 170.333 51.672C170.247 51.5867 170.173 51.4693 170.109 51.32H169.949C169.906 51.32 169.863 51.3093 169.821 51.288C169.778 51.288 169.735 51.288 169.693 51.288C169.565 51.288 169.469 51.2773 169.405 51.256C169.234 51.2347 169.063 51.2027 168.893 51.16C168.722 51.1387 168.551 51.096 168.381 51.032C168.231 51.0107 168.082 50.9573 167.933 50.872C167.719 50.7867 167.506 50.6907 167.293 50.584C167.101 50.4773 166.909 50.36 166.717 50.232C166.333 49.9547 166.013 49.656 165.757 49.336C165.65 49.2293 165.554 49.112 165.469 48.984C165.383 48.8347 165.287 48.6853 165.181 48.536C164.903 48.088 164.669 47.576 164.477 47C164.306 46.4027 164.189 45.752 164.125 45.048C164.061 44.5573 164.039 44.0133 164.061 43.416C164.082 42.8187 164.093 42.296 164.093 41.848V35.224C164.093 35.032 164.146 34.8613 164.253 34.712L164.445 34.52C164.594 34.4133 164.754 34.36 164.924 34.36C165.117 34.36 165.298 34.36 165.469 34.36H171.069C171.154 34.36 171.261 34.3813 171.389 34.424C171.581 34.488 171.709 34.584 171.773 34.712C171.815 34.7547 171.858 34.84 171.901 34.968C171.922 35.0533 171.933 35.192 171.933 35.384V44.024C171.975 44.3013 172.039 44.568 172.125 44.824C172.231 45.0587 172.445 45.272 172.765 45.464C172.893 45.5067 172.978 45.528 173.021 45.528C173.127 45.5493 173.213 45.5707 173.277 45.592C173.362 45.592 173.447 45.592 173.533 45.592C173.639 45.592 173.725 45.592 173.789 45.592C173.874 45.5707 173.959 45.5493 174.045 45.528C174.087 45.528 174.119 45.5173 174.141 45.496C174.183 45.4747 174.226 45.4533 174.269 45.432C174.333 45.4107 174.386 45.3893 174.429 45.368L174.685 45.208C174.791 45.0587 174.898 44.888 175.005 44.696C175.047 44.5893 175.069 44.4827 175.069 44.376C175.09 44.2693 175.111 44.1627 175.133 44.056V35.224C175.133 34.9893 175.218 34.7867 175.389 34.616C175.559 34.4453 175.762 34.36 175.997 34.36H181.565C181.842 34.36 182.045 34.36 182.173 34.36C182.322 34.36 182.493 34.4453 182.685 34.616C182.791 34.7227 182.855 34.84 182.877 34.968C182.919 35.0747 182.941 35.1813 182.941 35.288C182.962 35.3947 182.962 35.512 182.941 35.64C182.941 35.768 182.941 35.8853 182.941 35.992V49.24C182.941 49.3253 182.941 49.4107 182.941 49.496C182.941 49.5813 182.951 49.6773 182.973 49.784V50.136ZM175.837 50.744C175.837 50.744 175.847 50.7547 175.869 50.776C175.847 50.7547 175.837 50.744 175.837 50.744ZM202.583 46.168C202.519 47.064 202.231 47.864 201.719 48.568C201.698 48.6107 201.666 48.6533 201.623 48.696C201.58 48.7387 201.538 48.7813 201.495 48.824C201.41 48.9093 201.314 49.0053 201.207 49.112C201.1 49.2187 200.983 49.3253 200.855 49.432C200.748 49.5813 200.642 49.7413 200.535 49.912C200.45 50.0827 200.343 50.2427 200.215 50.392C200.13 50.4773 200.066 50.4987 200.023 50.456C199.852 50.84 199.682 51.1707 199.511 51.448C199.468 51.5333 199.415 51.608 199.351 51.672C199.287 51.7573 199.223 51.8427 199.159 51.928C199.074 52.0133 199.031 52.0453 199.031 52.024C199.01 51.8533 198.999 51.672 198.999 51.48C198.999 51.3093 198.988 51.1387 198.967 50.968C198.903 51.0107 198.85 51.064 198.807 51.128C198.786 51.1493 198.764 51.16 198.743 51.16C198.722 51.1813 198.7 51.2133 198.679 51.256C198.658 51.4693 198.636 51.6933 198.615 51.928C198.594 52.1627 198.562 52.3973 198.519 52.632C198.498 52.7387 198.476 52.8987 198.455 53.112C198.434 53.3253 198.402 53.3787 198.359 53.272C198.252 52.9307 198.231 52.6747 198.295 52.504C198.359 52.3547 198.306 52.088 198.135 51.704C198.114 51.8533 198.103 52.0027 198.103 52.152C198.103 52.3013 198.092 52.4507 198.071 52.6C198.071 52.6213 198.05 52.632 198.007 52.632C197.986 52.632 197.964 52.6427 197.943 52.664C197.922 52.664 197.9 52.664 197.879 52.664C197.879 52.6853 197.858 52.696 197.815 52.696C197.687 52.8027 197.57 52.92 197.463 53.048C197.314 53.2187 197.186 53.432 197.079 53.688C197.058 53.7093 197.036 53.7413 197.015 53.784C196.994 53.8267 196.972 53.8693 196.951 53.912C196.93 53.9547 196.898 54.008 196.855 54.072C196.834 54.1573 196.823 54.1893 196.823 54.168C196.78 53.784 196.759 53.4 196.759 53.016C196.759 52.632 196.738 52.248 196.695 51.864C196.652 51.8213 196.61 51.8 196.567 51.8C196.524 51.8213 196.482 51.832 196.439 51.832C196.396 51.8533 196.354 51.8747 196.311 51.896C196.183 51.9387 196.066 51.96 195.959 51.96C195.959 51.9813 195.948 51.992 195.927 51.992C195.927 51.992 195.927 52.0027 195.927 52.024C195.714 52.2587 195.607 52.376 195.607 52.376C195.607 52.376 195.65 52.3333 195.735 52.248C195.82 52.1627 195.874 52.1093 195.895 52.088C195.938 52.088 195.863 52.2053 195.671 52.44C195.628 52.4827 195.586 52.5467 195.543 52.632C195.522 52.6533 195.5 52.696 195.479 52.76C195.458 52.824 195.436 52.8453 195.415 52.824C195.351 52.7173 195.319 52.5467 195.319 52.312C195.34 52.0987 195.33 52.0453 195.287 52.152C195.223 52.2587 195.212 52.3973 195.255 52.568C195.298 52.76 195.319 52.92 195.319 53.048C195.34 53.1973 195.287 53.272 195.159 53.272C194.967 53.272 194.903 53.1333 194.967 52.856C195.052 52.5787 195.074 52.344 195.031 52.152C195.031 52.1307 194.988 52.12 194.903 52.12C194.839 52.12 194.796 52.1093 194.775 52.088C194.711 52.088 194.658 52.0667 194.615 52.024C194.594 52.216 194.583 52.408 194.583 52.6C194.583 52.792 194.562 52.984 194.519 53.176C194.498 53.24 194.476 53.2187 194.455 53.112C194.434 53.0053 194.412 52.9307 194.391 52.888C194.37 52.824 194.348 52.76 194.327 52.696C194.306 52.6533 194.284 52.6107 194.263 52.568L193.975 51.832C193.975 51.9173 193.964 52.0133 193.943 52.12C193.943 52.248 193.922 52.3547 193.879 52.44C193.858 52.4827 193.836 52.4507 193.815 52.344C193.815 52.2587 193.794 52.1947 193.751 52.152L193.367 51.32H193.175C191.276 51.2773 189.74 51 188.567 50.488C187.394 49.9547 186.53 49.3573 185.975 48.696C185.89 48.5893 185.794 48.472 185.687 48.344C185.602 48.216 185.527 48.088 185.463 47.96C185.378 47.8107 185.314 47.672 185.271 47.544C185.228 47.3947 185.186 47.256 185.143 47.128C185.079 46.872 185.068 46.648 185.111 46.456C185.111 46.4133 185.122 46.3707 185.143 46.328C185.164 46.2853 185.186 46.2533 185.207 46.232C185.228 46.1893 185.271 46.136 185.335 46.072C185.463 45.944 185.623 45.88 185.815 45.88C185.986 45.8373 186.21 45.8267 186.487 45.848C186.764 45.8693 187.01 45.88 187.223 45.88H190.135C190.37 45.88 190.615 45.8693 190.871 45.848C191.127 45.8267 191.372 45.8373 191.607 45.88C191.65 45.9013 191.682 45.912 191.703 45.912C191.746 45.912 191.788 45.9227 191.831 45.944C191.98 45.9867 192.119 46.0507 192.247 46.136C192.375 46.2 192.503 46.2853 192.631 46.392L192.855 46.52C192.94 46.5627 193.026 46.6053 193.111 46.648C193.196 46.6907 193.282 46.7333 193.367 46.776C193.474 46.7973 193.559 46.8187 193.623 46.84C193.687 46.84 193.762 46.84 193.847 46.84C194.018 46.84 194.167 46.808 194.295 46.744C194.466 46.68 194.562 46.552 194.583 46.36V46.136C194.562 46.1147 194.551 46.0933 194.551 46.072C194.466 45.9013 194.295 45.7627 194.039 45.656L193.783 45.56C193.74 45.5387 193.698 45.528 193.655 45.528C193.612 45.5067 193.57 45.496 193.527 45.496C193.42 45.4747 193.292 45.4747 193.143 45.496C193.015 45.496 192.898 45.4853 192.791 45.464C192.642 45.4427 192.492 45.4107 192.343 45.368C192.215 45.3253 192.066 45.3147 191.895 45.336C191.788 45.3573 191.671 45.3893 191.543 45.432C191.436 45.4533 191.33 45.4747 191.223 45.496C191.116 45.5173 191.01 45.5173 190.903 45.496C190.796 45.4747 190.69 45.464 190.583 45.464C190.498 45.4427 190.402 45.432 190.295 45.432C190.21 45.432 190.114 45.4213 190.007 45.4C189.772 45.3573 189.527 45.272 189.271 45.144C189.015 44.9947 188.78 44.8453 188.567 44.696C188.418 44.568 188.247 44.3973 188.055 44.184C187.884 43.9707 187.692 43.7573 187.479 43.544C187.415 43.48 187.383 43.448 187.383 43.448C187.362 43.448 187.34 43.4693 187.319 43.512C187.319 43.5547 187.298 43.5653 187.255 43.544C187.234 43.5227 187.212 43.4907 187.191 43.448C187.191 43.4053 187.18 43.3627 187.159 43.32C187.095 43.192 186.999 43.0747 186.871 42.968C186.828 42.9253 186.786 42.8827 186.743 42.84C186.722 42.7973 186.69 42.7653 186.647 42.744C186.69 42.7653 186.658 42.7333 186.551 42.648C186.444 42.5413 186.391 42.4773 186.391 42.456C186.263 42.2853 186.156 42.136 186.071 42.008C185.922 41.752 185.815 41.56 185.751 41.432C185.708 41.2827 185.655 41.1013 185.591 40.888C185.442 40.376 185.378 39.8427 185.399 39.288C185.399 39.224 185.41 39.1707 185.431 39.128C185.538 37.9973 186.103 36.9627 187.127 36.024C188.172 35.064 189.644 34.4453 191.543 34.168C191.65 34.1467 191.756 34.136 191.863 34.136C191.97 34.1147 192.076 34.104 192.183 34.104C192.29 34.0827 192.396 34.072 192.503 34.072C192.631 34.0507 192.748 34.04 192.855 34.04H193.079C193.356 34.0187 193.623 34.008 193.879 34.008C194.156 34.008 194.412 34.0293 194.647 34.072C194.69 34.072 194.722 34.0827 194.743 34.104C196.172 34.2107 197.388 34.4987 198.391 34.968C199.394 35.4373 200.204 35.9813 200.823 36.6C200.908 36.6853 200.983 36.7707 201.047 36.856C201.111 36.92 201.186 37.0053 201.271 37.112C201.527 37.432 201.698 37.7627 201.783 38.104C201.826 38.2533 201.858 38.4133 201.879 38.584C201.9 38.7333 201.879 38.8827 201.815 39.032C201.794 39.0533 201.783 39.0853 201.783 39.128C201.762 39.128 201.751 39.1387 201.751 39.16L201.527 39.384C201.506 39.384 201.484 39.3947 201.463 39.416C201.463 39.416 201.452 39.416 201.431 39.416C201.431 39.4373 201.42 39.4907 201.399 39.576C201.378 39.64 201.346 39.672 201.303 39.672C201.303 39.672 201.292 39.672 201.271 39.672C201.271 39.672 201.26 39.6613 201.239 39.64C201.239 39.64 201.218 39.6187 201.175 39.576H201.079C201.079 39.5973 201.068 39.6187 201.047 39.64C201.047 39.64 201.047 39.6507 201.047 39.672C201.026 39.8 201.026 39.9387 201.047 40.088C201.068 40.2373 201.026 40.3653 200.919 40.472C200.855 40.5573 200.823 40.5147 200.823 40.344C200.844 40.152 200.834 40.0133 200.791 39.928C200.77 39.9067 200.748 39.9173 200.727 39.96C200.706 40.0027 200.684 40.0347 200.663 40.056L200.279 40.44C199.98 40.696 199.628 40.8773 199.223 40.984C199.052 41.0267 198.903 41.048 198.775 41.048C199.628 41.3893 200.322 41.7947 200.855 42.264C201.388 42.712 201.794 43.2133 202.071 43.768C202.156 43.896 202.21 43.992 202.231 44.056C202.316 44.2693 202.391 44.4827 202.455 44.696C202.519 44.888 202.562 45.1013 202.583 45.336V46.168ZM196.343 40.44C196.556 40.4613 196.759 40.4933 196.951 40.536C197.143 40.5787 197.335 40.6213 197.527 40.664C197.442 40.5787 197.346 40.504 197.239 40.44C197.132 40.3547 197.026 40.28 196.919 40.216C196.706 40.2587 196.471 40.3013 196.215 40.344C195.98 40.3653 195.746 40.3333 195.511 40.248C195.234 40.1413 194.999 39.9813 194.807 39.768C194.615 39.5547 194.412 39.352 194.199 39.16C194.092 39.2027 193.975 39.2027 193.847 39.16C193.762 39.1173 193.676 39.0747 193.591 39.032C193.506 38.968 193.41 38.904 193.303 38.84C193.26 38.7973 193.218 38.7547 193.175 38.712C193.132 38.6693 193.09 38.6587 193.047 38.68C192.94 38.744 192.876 38.8187 192.855 38.904V38.936C192.834 38.9573 192.823 38.9893 192.823 39.032V39.224C192.844 39.2453 192.855 39.2667 192.855 39.288C192.898 39.3733 192.962 39.4587 193.047 39.544C193.132 39.6293 193.218 39.6933 193.303 39.736C193.388 39.7787 193.442 39.8 193.463 39.8C193.655 39.8853 193.911 39.9707 194.231 40.056C194.551 40.12 194.956 40.2053 195.447 40.312L196.215 40.408C196.194 40.408 196.215 40.4187 196.279 40.44C196.364 40.4613 196.386 40.4613 196.343 40.44ZM208.978 33.656C208.722 33.6987 208.455 33.6667 208.178 33.56C207.922 33.4533 207.666 33.3253 207.41 33.176C207.346 33.1547 207.271 33.1333 207.186 33.112C207.122 33.0693 207.047 33.0373 206.962 33.016C206.791 32.9733 206.61 32.9307 206.418 32.888C206.247 32.824 206.077 32.76 205.906 32.696C205.842 32.6747 205.778 32.664 205.714 32.664C205.671 32.6427 205.618 32.6213 205.554 32.6L205.298 32.504C205.277 32.4613 205.245 32.4293 205.202 32.408C205.181 32.3867 205.149 32.3653 205.106 32.344C204.957 32.1947 204.871 32.0347 204.85 31.864V28.6C204.85 28.408 204.839 28.1947 204.818 27.96C204.818 27.7253 204.882 27.5227 205.01 27.352L205.202 27.16C205.266 27.1173 205.362 27.0747 205.49 27.032C205.661 26.9893 205.831 26.968 206.002 26.968C206.194 26.968 206.365 26.9787 206.514 27H210.13C210.322 26.9787 210.514 26.968 210.706 26.968C210.919 26.9467 211.122 26.9573 211.314 27C211.335 27 211.346 27.0107 211.346 27.032C211.346 27.032 211.357 27.032 211.378 27.032C211.399 27.032 211.453 27.0533 211.538 27.096C211.645 27.1387 211.73 27.2133 211.794 27.32C211.901 27.448 211.954 27.5653 211.954 27.672C211.975 27.7787 211.986 27.864 211.986 27.928C212.007 28.0133 212.018 28.0987 212.018 28.184C212.018 28.248 212.018 28.3227 212.018 28.408C212.018 28.856 212.007 29.3147 211.986 29.784C211.986 30.2533 211.986 30.712 211.986 31.16V31.736C211.986 31.8427 211.975 31.928 211.954 31.992C211.933 32.0987 211.869 32.2053 211.762 32.312L211.634 32.44C211.591 32.4827 211.549 32.504 211.506 32.504C211.485 32.5253 211.463 32.5573 211.442 32.6C211.442 32.6427 211.421 32.6747 211.378 32.696C211.378 32.696 211.357 32.696 211.314 32.696C211.271 32.6747 211.229 32.664 211.186 32.664C211.143 32.664 211.09 32.6747 211.026 32.696C210.962 32.7173 210.909 32.7387 210.866 32.76C210.823 32.7813 210.77 32.8027 210.706 32.824C210.642 32.824 210.589 32.8347 210.546 32.856C210.503 32.856 210.471 32.8667 210.45 32.888C210.301 32.952 210.151 33.0373 210.002 33.144C209.853 33.2507 209.693 33.3573 209.522 33.464C209.351 33.5493 209.17 33.6133 208.978 33.656ZM212.114 50.424C212.093 50.4453 212.082 50.4667 212.082 50.488C212.082 50.5093 212.071 50.5307 212.05 50.552V50.584C212.007 50.6267 211.965 50.6693 211.922 50.712C211.879 50.7547 211.837 50.7973 211.794 50.84C211.794 50.84 211.783 50.8507 211.762 50.872C211.762 50.872 211.751 50.872 211.73 50.872C211.73 50.872 211.719 50.8827 211.698 50.904C211.698 50.904 211.687 50.904 211.666 50.904C211.623 50.9467 211.581 51.0107 211.538 51.096C211.517 51.1173 211.495 51.1493 211.474 51.192C211.474 51.2347 211.453 51.2667 211.41 51.288C211.325 51.3947 211.239 51.4907 211.154 51.576C211.069 51.6827 210.983 51.7893 210.898 51.896V51.928H210.866C210.866 51.9493 210.845 51.9813 210.802 52.024L210.386 52.728C210.279 52.92 210.151 53.0587 210.002 53.144C209.917 53.1867 209.874 53.208 209.874 53.208C209.853 53.3787 209.863 53.5813 209.906 53.816C209.949 54.072 209.97 54.2853 209.97 54.456C209.97 54.648 209.895 54.7227 209.746 54.68C209.575 54.6373 209.49 54.52 209.49 54.328C209.49 54.1573 209.511 53.9547 209.554 53.72C209.618 53.5067 209.639 53.3147 209.618 53.144C209.597 53.144 209.554 53.112 209.49 53.048C209.426 52.984 209.373 52.9093 209.33 52.824C209.287 52.76 209.245 52.6853 209.202 52.6C209.138 52.536 209.095 52.4827 209.074 52.44L208.786 52.152C208.765 52.3013 208.765 52.5147 208.786 52.792C208.829 53.0693 208.797 53.1653 208.69 53.08C208.541 52.9733 208.498 52.8133 208.562 52.6C208.626 52.3867 208.637 52.1947 208.594 52.024C208.573 51.9813 208.541 51.9493 208.498 51.928C208.477 51.9067 208.445 51.8747 208.402 51.832L208.178 51.608C208.135 51.544 208.071 51.4693 207.986 51.384C207.943 51.5973 207.922 51.8213 207.922 52.056C207.922 52.2907 207.901 52.5253 207.858 52.76C207.837 52.7813 207.815 52.7707 207.794 52.728C207.773 52.6853 207.751 52.6533 207.73 52.632C207.666 52.5467 207.602 52.472 207.538 52.408C207.495 52.344 207.431 52.2907 207.346 52.248C207.239 52.2053 207.133 52.1947 207.026 52.216C206.919 52.2373 206.813 52.2053 206.706 52.12C206.621 52.056 206.546 51.9813 206.482 51.896C206.439 51.832 206.386 51.7573 206.322 51.672C206.301 51.672 206.279 51.6613 206.258 51.64C206.237 51.6187 206.215 51.6293 206.194 51.672C206.173 52.0347 206.151 52.408 206.13 52.792C206.13 53.176 206.109 53.56 206.066 53.944C206.066 53.9867 206.045 53.9547 206.002 53.848C205.981 53.7627 205.959 53.6987 205.938 53.656C205.895 53.528 205.853 53.3787 205.81 53.208C205.767 53.0587 205.725 52.92 205.682 52.792C205.597 52.4933 205.543 52.2907 205.522 52.184C205.522 52.0773 205.522 51.992 205.522 51.928C205.543 51.864 205.533 51.768 205.49 51.64C205.469 51.5333 205.394 51.3093 205.266 50.968L205.074 50.872C204.925 50.7653 204.818 50.6373 204.754 50.488C204.711 50.3387 204.69 50.1893 204.69 50.04C204.669 49.8907 204.658 49.7413 204.658 49.592C204.679 49.4213 204.69 49.2613 204.69 49.112V35.224C204.69 35.1173 204.701 35.032 204.722 34.968C204.765 34.84 204.807 34.7547 204.85 34.712L205.042 34.52C205.127 34.456 205.266 34.4027 205.458 34.36C205.671 34.3173 205.885 34.3067 206.098 34.328C206.333 34.3493 206.535 34.36 206.706 34.36H209.874C210.13 34.36 210.386 34.3493 210.642 34.328C210.919 34.3067 211.186 34.3173 211.442 34.36C211.485 34.36 211.527 34.3707 211.57 34.392C211.613 34.4133 211.655 34.4347 211.698 34.456C211.762 34.4773 211.805 34.4987 211.826 34.52C211.89 34.584 211.933 34.6373 211.954 34.68C212.039 34.7653 212.103 34.904 212.146 35.096C212.167 35.1813 212.167 35.288 212.146 35.416C212.146 35.5227 212.146 35.6293 212.146 35.736C212.167 36.1413 212.167 36.5467 212.146 36.952C212.146 37.336 212.146 37.7307 212.146 38.136V49.24C212.146 49.3253 212.146 49.4107 212.146 49.496C212.146 49.5813 212.157 49.6773 212.178 49.784C212.178 49.8693 212.178 49.9547 212.178 50.04C212.178 50.1253 212.157 50.2533 212.114 50.424ZM232.948 44.568C233.076 44.696 233.14 44.8453 233.14 45.016C233.182 45.2933 233.14 45.5813 233.012 45.88C232.884 46.1573 232.766 46.4027 232.66 46.616C232.468 47.0213 232.244 47.384 231.988 47.704C231.753 48.0027 231.497 48.3013 231.22 48.6C231.156 48.664 231.07 48.7387 230.964 48.824C230.878 48.9093 230.814 48.9733 230.772 49.016C230.729 49.0373 230.676 49.08 230.612 49.144C230.612 49.144 230.59 49.1653 230.548 49.208C230.462 49.3573 230.388 49.528 230.324 49.72C230.26 49.912 230.196 50.0933 230.132 50.264C230.046 50.4347 229.961 50.6267 229.876 50.84C229.79 51.0533 229.694 51.2453 229.588 51.416L229.396 51.672L229.364 51.704C229.3 51.768 229.236 51.8213 229.172 51.864C229.129 51.928 229.076 51.9813 229.012 52.024C228.948 52.088 228.884 52.152 228.82 52.216C228.777 52.28 228.713 52.344 228.628 52.408C228.478 52.5147 228.318 52.536 228.148 52.472C227.977 52.4293 227.838 52.3333 227.732 52.184C227.71 52.1413 227.689 52.088 227.668 52.024C227.668 51.9813 227.646 51.9493 227.604 51.928C227.561 51.8853 227.54 51.8533 227.54 51.832C227.454 51.7893 227.358 51.7147 227.252 51.608C227.188 51.5653 227.134 51.512 227.092 51.448C227.049 51.4053 227.028 51.384 227.028 51.384C226.814 51.5973 226.697 51.8427 226.676 52.12C226.676 52.3973 226.697 52.6853 226.74 52.984C226.782 53.2827 226.772 53.5813 226.708 53.88C226.708 53.944 226.665 54.04 226.58 54.168C226.558 54.2107 226.537 54.2747 226.516 54.36C226.494 54.4667 226.473 54.4987 226.452 54.456C226.409 54.008 226.388 53.56 226.388 53.112C226.388 52.6853 226.366 52.248 226.324 51.8C226.324 51.8 226.281 51.8213 226.196 51.864C226.174 51.864 226.153 51.864 226.132 51.864C226.132 51.8853 226.11 51.896 226.068 51.896C226.004 51.896 225.961 51.9067 225.94 51.928C225.918 52.3973 225.897 52.8773 225.876 53.368C225.876 53.88 225.854 54.3813 225.812 54.872C225.812 54.8933 225.801 54.872 225.78 54.808C225.758 54.7653 225.726 54.7333 225.684 54.712L225.556 54.488C225.492 54.36 225.428 54.2213 225.364 54.072C225.3 53.944 225.236 53.816 225.172 53.688C224.958 53.176 224.702 52.664 224.404 52.152C224.297 51.96 224.19 51.7893 224.084 51.64C224.084 51.6827 224.062 51.704 224.02 51.704C223.998 51.7253 223.956 51.672 223.892 51.544C223.764 51.3947 223.625 51.32 223.476 51.32C220.724 51.256 218.526 50.4347 216.884 48.856L216.756 48.728C216.286 48.2373 215.881 47.672 215.54 47.032C215.22 46.3707 215.006 45.6453 214.9 44.856C214.814 44.472 214.772 44.088 214.772 43.704C214.772 43.32 214.772 42.9253 214.772 42.52V42.488C214.772 42.3173 214.772 42.1467 214.772 41.976C214.772 41.784 214.782 41.592 214.804 41.4C214.804 41.2933 214.804 41.1867 214.804 41.08C214.825 40.9733 214.846 40.8667 214.868 40.76C214.868 40.7173 214.868 40.664 214.868 40.6C214.868 40.536 214.878 40.472 214.9 40.408C214.9 40.3867 214.9 40.3653 214.9 40.344C214.921 40.3227 214.932 40.3013 214.932 40.28C215.038 39.7253 215.198 39.2027 215.412 38.712C215.625 38.2 215.881 37.7307 216.18 37.304C216.222 37.24 216.297 37.1547 216.404 37.048C217.214 36.0667 218.249 35.32 219.508 34.808C220.788 34.296 222.206 34.04 223.764 34.04C223.892 34.04 224.02 34.04 224.148 34.04C224.276 34.04 224.393 34.0507 224.5 34.072C224.628 34.0293 224.745 34.0293 224.852 34.072L225.62 34.168C225.918 34.1253 226.164 34.1467 226.356 34.232L226.548 34.328C227.934 34.6267 229.076 35.096 229.972 35.736C230.868 36.3547 231.582 37.0373 232.116 37.784C232.158 37.848 232.201 37.9227 232.244 38.008C232.308 38.072 232.361 38.1467 232.404 38.232C232.681 38.6373 232.884 39.096 233.012 39.608C233.033 39.6293 233.044 39.6613 233.044 39.704C233.044 39.7253 233.054 39.7573 233.076 39.8C233.161 40.0987 233.172 40.344 233.108 40.536C233.108 40.5573 233.097 40.5787 233.076 40.6C233.054 40.6853 233.022 40.7493 232.98 40.792C232.937 40.8133 232.894 40.8453 232.852 40.888C232.83 40.9093 232.809 40.9413 232.788 40.984C232.766 41.0053 232.745 41.0373 232.724 41.08C232.724 41.08 232.702 41.1227 232.66 41.208C232.617 41.2933 232.574 41.3573 232.532 41.4C232.51 41.4213 232.489 41.464 232.468 41.528C232.468 41.592 232.446 41.6133 232.404 41.592C232.361 41.5493 232.34 41.496 232.34 41.432C232.34 41.3467 232.318 41.2827 232.276 41.24C232.254 41.2187 232.212 41.24 232.148 41.304C232.105 41.3467 232.062 41.432 232.02 41.56C231.998 41.624 231.977 41.6987 231.956 41.784C231.956 41.848 231.934 41.88 231.892 41.88C231.849 41.88 231.828 41.8373 231.828 41.752C231.828 41.6453 231.806 41.5813 231.764 41.56C231.764 41.5387 231.721 41.5707 231.636 41.656C231.55 41.7413 231.465 41.8053 231.38 41.848C231.209 41.9973 231.017 42.1893 230.804 42.424C230.59 42.6373 230.356 42.7333 230.1 42.712C229.929 42.712 229.758 42.6693 229.588 42.584C229.417 42.4987 229.246 42.4347 229.076 42.392C228.99 42.3493 228.884 42.3173 228.756 42.296C228.649 42.2747 228.542 42.2427 228.436 42.2C228.35 42.1573 228.254 42.1147 228.148 42.072C228.041 42.008 227.934 41.9653 227.828 41.944C227.7 41.9013 227.561 41.8693 227.412 41.848C227.284 41.8053 227.166 41.752 227.06 41.688C226.953 41.6453 226.846 41.592 226.74 41.528C226.633 41.464 226.526 41.4107 226.42 41.368C226.313 41.304 226.196 41.2613 226.068 41.24C225.961 41.1973 225.854 41.1547 225.748 41.112C225.662 41.0693 225.598 41.0267 225.556 40.984C225.385 40.8987 225.246 40.7493 225.14 40.536C225.054 40.3867 224.969 40.2373 224.884 40.088C224.82 39.9173 224.713 39.7893 224.564 39.704L224.372 39.896C224.457 39.8107 224.5 39.7467 224.5 39.704C224.478 39.704 224.425 39.7147 224.34 39.736C224.276 39.7573 224.222 39.7787 224.18 39.8V40.088C224.201 40.1733 224.212 40.2587 224.212 40.344C224.233 40.408 224.244 40.4827 224.244 40.568C224.286 40.7387 224.276 40.856 224.212 40.92C224.19 40.984 224.148 41.016 224.084 41.016C224.041 41.016 223.998 41.016 223.956 41.016L223.924 40.984C223.881 40.9413 223.86 40.8667 223.86 40.76C223.86 40.6533 223.87 40.5467 223.892 40.44C223.913 40.312 223.924 40.1947 223.924 40.088V39.928C223.924 39.864 223.913 39.832 223.892 39.832C223.892 39.8107 223.892 39.8 223.892 39.8C223.87 39.8 223.849 39.8107 223.828 39.832C223.806 39.832 223.785 39.832 223.764 39.832C223.678 39.8747 223.636 39.896 223.636 39.896C223.614 39.9173 223.561 39.928 223.476 39.928C223.454 39.928 223.422 39.9173 223.38 39.896C223.358 39.8747 223.337 39.8853 223.316 39.928C223.294 39.9707 223.284 40.056 223.284 40.184C223.284 40.312 223.252 40.3653 223.188 40.344C223.081 40.3013 223.028 40.2267 223.028 40.12C223.028 40.0133 223.038 39.928 223.06 39.864C223.017 39.9067 222.996 39.928 222.996 39.928C222.953 40.0133 222.932 40.056 222.932 40.056C222.91 40.0987 222.889 40.152 222.868 40.216C222.846 40.28 222.825 40.3333 222.804 40.376C222.74 40.504 222.708 40.6533 222.708 40.824C222.686 40.9307 222.665 41.048 222.644 41.176C222.644 41.304 222.644 41.432 222.644 41.56V41.72C222.644 41.8053 222.644 41.9013 222.644 42.008C222.644 42.0933 222.633 42.1893 222.612 42.296C222.612 42.5947 222.612 42.872 222.612 43.128C222.612 43.3627 222.622 43.5973 222.644 43.832V44.024C222.665 44.0667 222.676 44.1413 222.676 44.248C222.676 44.3547 222.686 44.4293 222.708 44.472C222.708 44.536 222.708 44.6 222.708 44.664C222.729 44.7067 222.74 44.76 222.74 44.824C222.761 44.8453 222.772 44.8773 222.772 44.92C222.772 44.9413 222.782 44.9733 222.804 45.016C222.889 45.2933 223.017 45.5067 223.188 45.656C223.23 45.6987 223.326 45.7413 223.476 45.784C223.518 45.8053 223.582 45.816 223.668 45.816C223.753 45.8373 223.828 45.848 223.892 45.848C223.956 45.848 224.03 45.848 224.116 45.848C224.158 45.8267 224.201 45.816 224.244 45.816C224.308 45.816 224.361 45.8053 224.404 45.784C224.468 45.7413 224.532 45.6987 224.596 45.656C224.681 45.6133 224.745 45.56 224.788 45.496C224.809 45.4533 224.83 45.4213 224.852 45.4C224.873 45.3787 224.894 45.3573 224.916 45.336L225.108 44.888C225.172 44.696 225.289 44.5467 225.46 44.44C225.502 44.376 225.556 44.344 225.62 44.344C225.705 44.3227 225.737 44.312 225.716 44.312C225.801 44.2693 225.876 44.248 225.94 44.248C226.11 44.2053 226.324 44.1947 226.58 44.216C226.857 44.2373 227.102 44.248 227.316 44.248H231.508C231.657 44.248 231.806 44.248 231.956 44.248C232.126 44.2267 232.286 44.2267 232.436 44.248C232.564 44.2907 232.66 44.3333 232.724 44.376L232.884 44.472C232.926 44.5147 232.948 44.5467 232.948 44.568Z" fill="black"/>
</svg>
