<svg width="240" height="80" viewBox="0 0 240 80" fill="none" xmlns="http://www.w3.org/2000/svg">
<path d="M218.198 54.28C216.065 54.28 214.198 53.9334 212.598 53.24C211.025 52.5467 209.718 51.6 208.678 50.4C207.638 49.1734 206.865 47.7734 206.358 46.2C205.852 44.6267 205.598 42.9734 205.598 41.24C205.598 39.48 205.905 37.8534 206.518 36.36C207.158 34.84 208.025 33.52 209.118 32.4C210.238 31.28 211.545 30.4134 213.038 29.8C214.532 29.16 216.158 28.84 217.918 28.84C219.758 28.84 221.465 29.16 223.038 29.8C224.612 30.44 225.985 31.3334 227.158 32.48C228.332 33.6267 229.238 34.9734 229.878 36.52C230.545 38.0667 230.878 39.7467 230.878 41.56C230.878 45.5867 229.772 48.72 227.558 50.96C225.345 53.1734 222.225 54.28 218.198 54.28ZM218.158 47.8C220.105 47.8 221.585 47.2534 222.598 46.16C223.638 45.0667 224.158 43.4934 224.158 41.44C224.158 39.6 223.598 38.12 222.478 37C221.358 35.88 219.892 35.32 218.078 35.32C216.985 35.32 215.985 35.6134 215.078 36.2C214.172 36.76 213.438 37.52 212.878 38.48C212.345 39.4134 212.078 40.4534 212.078 41.6C212.078 42.6134 212.278 43.6 212.678 44.56C213.105 45.52 213.772 46.3067 214.678 46.92C215.585 47.5067 216.745 47.8 218.158 47.8Z" fill="black"/>
<path d="M179.49 53.88C179.41 51.5334 179.343 49.36 179.29 47.36C179.263 45.36 179.25 43.3867 179.25 41.44C179.25 39.4934 179.263 37.5467 179.29 35.6C179.343 33.6267 179.423 31.52 179.53 29.28H186.29C186.183 30.48 186.09 31.6934 186.01 32.92C186.917 31.7734 187.997 30.8267 189.25 30.08C190.503 29.3067 191.983 28.92 193.69 28.92C195.37 28.92 196.743 29.2 197.81 29.76C198.903 30.32 199.757 31.0934 200.37 32.08C201.01 33.0667 201.463 34.2 201.73 35.48C202.023 36.7334 202.21 38.0934 202.29 39.56C202.37 41 202.41 42.4534 202.41 43.92C202.41 45.52 202.383 47.0534 202.33 48.52C202.277 49.9867 202.223 51.2134 202.17 52.2C202.117 53.1867 202.077 53.7734 202.05 53.96H195.33C195.383 52.8667 195.437 51.7067 195.49 50.48C195.543 49.2267 195.597 48 195.65 46.8C195.703 45.5734 195.73 44.4667 195.73 43.48C195.73 37.8 194.81 34.96 192.97 34.96C191.45 34.96 190.063 35.6267 188.81 36.96C187.583 38.2667 186.557 39.92 185.73 41.92C185.73 42.1867 185.73 42.4534 185.73 42.72C185.73 44 185.73 45.3334 185.73 46.72C185.757 48.08 185.783 49.3867 185.81 50.64C185.863 51.8667 185.903 52.9334 185.93 53.84L179.49 53.88Z" fill="black"/>
<path d="M168.503 25.16C168.503 24.92 168.49 24.68 168.463 24.44C168.463 24.1734 168.463 23.88 168.463 23.56C168.463 22.7067 168.49 21.8 168.543 20.84C168.596 19.88 168.65 19.0667 168.703 18.4L175.823 18.52C175.743 19.4267 175.65 20.4534 175.543 21.6C175.463 22.7467 175.41 23.9334 175.383 25.16H168.503ZM168.343 53.8C168.263 52.1467 168.21 50.3867 168.183 48.52C168.156 46.6267 168.143 44.7334 168.143 42.84C168.143 40.36 168.17 37.9467 168.223 35.6C168.276 33.2534 168.343 31.12 168.423 29.2L175.303 29.16C175.196 30.3867 175.13 31.9067 175.103 33.72C175.076 35.5067 175.063 37.3867 175.063 39.36C175.063 41.3067 175.076 43.2267 175.103 45.12C175.13 47.0134 175.156 48.7334 175.183 50.28C175.236 51.8 175.276 52.9734 175.303 53.8H168.343Z" fill="black"/>
<path d="M157.147 54.16C155.547 54.16 154.28 53.8133 153.347 53.12C152.413 52.4533 151.733 51.52 151.307 50.32C150.88 49.12 150.6 47.7467 150.467 46.2C150.36 44.6533 150.307 43.0267 150.307 41.32C150.307 39.56 150.373 37.7333 150.507 35.84C148.72 36.08 147 36.3867 145.347 36.76L144.107 30.48C146.32 29.8933 148.68 29.4667 151.187 29.2C151.373 27.84 151.573 26.4133 151.787 24.92C152 23.4 152.24 21.8 152.507 20.12L159.387 20.72C159.067 22.1067 158.787 23.4933 158.547 24.88C158.307 26.24 158.093 27.56 157.907 28.84C159.4 28.84 160.8 28.88 162.107 28.96C163.44 29.0133 164.667 29.12 165.787 29.28L164.987 35.56C164.053 35.4533 163.08 35.3867 162.067 35.36C161.08 35.3067 160.08 35.28 159.067 35.28C158.453 35.28 157.84 35.2933 157.227 35.32C157.067 37.2667 156.96 38.9333 156.907 40.32C156.88 41.7067 156.867 42.6933 156.867 43.28C156.867 44.7467 156.947 45.8 157.107 46.44C157.293 47.08 157.587 47.4 157.987 47.4C158.44 47.4 158.947 47.2533 159.507 46.96C160.067 46.64 160.613 46.2133 161.147 45.68C161.707 45.1467 162.173 44.5733 162.547 43.96L165.627 50.4C162.987 52.9067 160.16 54.16 157.147 54.16Z" fill="black"/>
<path d="M124.948 54.12C125.054 51.9067 125.134 49.6934 125.188 47.48C125.241 45.2667 125.268 43.08 125.268 40.92C125.241 38.9467 125.201 37 125.148 35.08C125.121 33.1334 125.054 31.2534 124.948 29.44L131.668 29.24C131.694 30.2267 131.734 31.24 131.788 32.28C132.641 31.2134 133.628 30.36 134.748 29.72C135.894 29.0534 137.201 28.72 138.668 28.72C139.228 28.72 139.948 28.8 140.828 28.96C141.708 29.12 142.601 29.4267 143.508 29.88L142.748 36.64C142.081 36.24 141.361 35.96 140.588 35.8C139.841 35.6134 139.214 35.52 138.708 35.52C137.001 35.52 135.548 36.2934 134.348 37.84C133.174 39.36 132.374 41.48 131.948 44.2C131.948 46.0667 131.921 47.8534 131.868 49.56C131.841 51.24 131.774 52.76 131.668 54.12H124.948Z" fill="black"/>
<path d="M109.648 54.2C107.088 54.2 104.835 53.6933 102.888 52.68C100.968 51.6933 99.4618 50.3067 98.3684 48.52C97.3018 46.7333 96.7684 44.6667 96.7684 42.32C96.7684 40.9067 97.0084 39.4267 97.4884 37.88C97.9684 36.3067 98.7418 34.84 99.8084 33.48C100.875 32.12 102.275 31.0133 104.008 30.16C105.768 29.3067 107.902 28.88 110.408 28.88C112.222 28.88 113.742 29.08 114.968 29.48C116.222 29.88 117.235 30.4 118.008 31.04C118.808 31.68 119.408 32.36 119.808 33.08C120.235 33.8 120.515 34.4933 120.648 35.16C120.808 35.8 120.888 36.3333 120.888 36.76C120.888 39.3467 119.795 41.3467 117.608 42.76C115.448 44.1467 112.382 44.84 108.408 44.84C107.502 44.84 106.635 44.8 105.808 44.72C105.008 44.64 104.262 44.5467 103.568 44.44C104.075 45.7733 104.915 46.76 106.088 47.4C107.262 48.0133 108.475 48.32 109.728 48.32C111.542 48.32 113.142 48 114.528 47.36C115.915 46.6933 117.222 45.68 118.448 44.32L122.008 49.44C121.155 50.1333 120.195 50.8533 119.128 51.6C118.088 52.3467 116.808 52.96 115.288 53.44C113.768 53.9467 111.888 54.2 109.648 54.2ZM110.528 34.88C108.955 34.88 107.568 35.28 106.368 36.08C105.168 36.88 104.288 37.9333 103.728 39.24C104.395 39.3467 105.048 39.44 105.688 39.52C106.355 39.5733 107.008 39.6 107.648 39.6C108.235 39.6 108.902 39.5467 109.648 39.44C110.422 39.3333 111.168 39.1733 111.888 38.96C112.635 38.7467 113.248 38.48 113.728 38.16C114.208 37.8133 114.448 37.4133 114.448 36.96C114.448 36.7467 114.342 36.48 114.128 36.16C113.915 35.84 113.528 35.5467 112.968 35.28C112.408 35.0133 111.595 34.88 110.528 34.88Z" fill="black"/>
<path d="M69.6853 62.3601C69.4986 60.2267 69.3653 58.0801 69.2853 55.9201C69.2053 53.7601 69.1653 51.2667 69.1653 48.44C69.1653 45 69.2186 41.5734 69.3253 38.16C69.4319 34.7467 69.5919 31.6267 69.8053 28.8L76.6853 29C76.6053 29.6134 76.5386 30.2667 76.4853 30.96C77.4453 30.32 78.472 29.8534 79.5653 29.56C80.6853 29.2667 81.8186 29.12 82.9653 29.12C84.432 29.12 85.8586 29.36 87.2453 29.84C88.632 30.2934 89.8853 31.0267 91.0053 32.04C92.1253 33.0267 93.0053 34.3067 93.6453 35.88C94.312 37.4534 94.6453 39.3467 94.6453 41.56C94.6453 43.7467 94.312 45.6534 93.6453 47.28C92.9786 48.9067 92.0853 50.24 90.9653 51.28C89.8453 52.3467 88.592 53.1334 87.2053 53.64C85.8186 54.1734 84.392 54.44 82.9253 54.44C80.232 54.44 77.8586 53.6401 75.8053 52.0401C75.8586 53.7467 75.9386 55.3867 76.0453 56.96C76.1519 58.56 76.2853 60.1867 76.4453 61.84L69.6853 62.3601ZM81.8853 35.76C79.2453 35.76 77.2586 37.0534 75.9253 39.64C75.8453 41.24 75.7919 42.8667 75.7653 44.5201C76.4053 45.3734 77.232 46.12 78.2453 46.76C79.2586 47.3734 80.5519 47.68 82.1253 47.68C85.8853 47.68 87.7653 45.5334 87.7653 41.24C87.7653 40.0934 87.5519 39.16 87.1253 38.44C86.6986 37.72 86.1653 37.1734 85.5253 36.8C84.8853 36.4 84.232 36.1334 83.5653 36C82.8986 35.84 82.3386 35.76 81.8853 35.76Z" fill="black"/>
<path d="M50.6672 54.2801C48.9605 54.2801 47.5472 53.9734 46.4272 53.3601C45.3339 52.7734 44.4539 51.9601 43.7872 50.9201C43.1472 49.8801 42.6672 48.7201 42.3472 47.4401C42.0539 46.1334 41.8539 44.7867 41.7472 43.4001C41.6672 41.9867 41.6272 40.6267 41.6272 39.3201C41.6272 37.8267 41.6672 36.3067 41.7472 34.7601C41.8539 33.2134 41.9605 31.5201 42.0672 29.6801L49.3872 29.2401C49.3072 29.8001 49.1872 30.6401 49.0272 31.7601C48.8672 32.8801 48.7205 34.1601 48.5872 35.6001C48.4539 37.0401 48.3872 38.5467 48.3872 40.1201C48.3872 42.7067 48.6139 44.6267 49.0672 45.8801C49.5205 47.1067 50.2005 47.7201 51.1072 47.7201C52.9205 47.7201 54.2539 46.4001 55.1072 43.7601C55.9605 41.1201 56.3872 36.9467 56.3872 31.2401V29.4001L59.7872 29.3201L63.9072 29.2401C63.5339 31.7467 63.2539 34.0534 63.0672 36.1601C62.8805 38.2667 62.7605 40.0401 62.7072 41.4801C62.6539 42.8934 62.6272 43.8401 62.6272 44.3201C62.6272 45.5467 62.7339 46.4267 62.9472 46.9601C63.1605 47.4667 63.5339 47.7201 64.0672 47.7201C64.3339 47.7201 64.6272 47.6667 64.9472 47.5601C65.2672 47.4534 65.6405 47.2667 66.0672 47.0001L65.7872 53.8801C64.7739 54.0401 63.8939 54.1201 63.1472 54.1201C61.8672 54.1201 60.8139 53.8801 59.9872 53.4001C59.1872 52.9201 58.5472 52.2801 58.0672 51.4801C57.2405 52.3601 56.2139 53.0401 54.9872 53.5201C53.7872 54.0267 52.3472 54.2801 50.6672 54.2801Z" fill="black"/>
<path d="M8.59998 53.84C8.51998 51.52 8.47998 48.9067 8.47998 46C8.47998 43.28 8.51998 40.4 8.59998 37.36C8.67998 34.32 8.81331 31.2267 8.99998 28.08C9.18665 24.9333 9.41331 21.8667 9.67998 18.88L16.64 19C16.4 20.8667 16.1866 22.7733 16 24.72C15.84 26.64 15.7066 28.5733 15.6 30.52C16.72 29.7467 18.0666 28.8533 19.64 27.84C21.24 26.8 22.9466 25.76 24.76 24.72C26.5733 23.6533 28.3866 22.64 30.2 21.68C32.04 20.72 33.76 19.9067 35.36 19.24L37.32 26.04C35.6933 26.7067 34.0533 27.44 32.4 28.24C30.7733 29.04 29.2133 29.84 27.72 30.64C26.2533 31.4133 24.9466 32.16 23.8 32.88C22.6533 33.5733 21.7466 34.1867 21.08 34.72C20.4133 35.2267 20.08 35.6 20.08 35.84C20.08 36.1867 20.6 36.7733 21.64 37.6C22.68 38.4267 24.0933 39.4 25.88 40.52C27.6666 41.64 29.6933 42.8133 31.96 44.04C34.2533 45.2667 36.6266 46.4667 39.08 47.64L35.36 53.8C32.32 52.2267 29.52 50.6533 26.96 49.08C24.4266 47.48 22.16 45.9733 20.16 44.56C18.1866 43.1467 16.5466 41.9333 15.24 40.92C15.24 41.9067 15.24 42.8933 15.24 43.88C15.24 45.6667 15.2533 47.4 15.28 49.08C15.3333 50.7333 15.3866 52.28 15.44 53.72L8.59998 53.84Z" fill="black"/>
</svg>
